<?xml version="1.0" standalone="no"?>
<!DOCTYPE svg PUBLIC "-//W3C//DTD SVG 20010904//EN"
 "http://www.w3.org/TR/2001/REC-SVG-20010904/DTD/svg10.dtd">
<svg version="1.0" xmlns="http://www.w3.org/2000/svg"
 width="1080.000000pt" height="1080.000000pt" viewBox="0 0 1080.000000 1080.000000"
 preserveAspectRatio="xMidYMid meet">
<metadata>
Created by potrace 1.11, written by Peter Selinger 2001-2013
</metadata>
<g transform="translate(0.000000,1080.000000) scale(0.100000,-0.100000)"
fill="#000000" stroke="none">
<path d="M3119 6995 c-1 -3 -2 -11 -3 -17 0 -7 -14 -14 -30 -16 -21 -3 -26 0
-20 10 6 10 5 11 -7 1 -13 -11 -60 -13 -401 -16 -102 -1 -123 -6 -96 -23 6 -4
8 -3 5 3 -3 5 7 9 24 8 16 -1 29 -5 29 -10 0 -9 -47 -11 -253 -14 -52 -1 -66
-4 -61 -13 5 -8 0 -7 -11 2 -11 9 -16 10 -11 3 4 -7 2 -13 -3 -13 -6 0 -11 4
-11 9 0 6 -8 9 -18 8 -10 0 -19 -7 -19 -14 0 -9 4 -10 14 -2 10 9 13 8 13 -2
0 -9 -12 -15 -30 -15 -23 -1 -28 1 -20 10 7 9 5 13 -5 13 -8 0 -12 -4 -9 -8 8
-13 -10 -18 -79 -20 -37 -1 -67 -6 -67 -11 0 -4 -5 -8 -11 -8 -5 0 -8 4 -5 8
3 5 -2 9 -11 9 -13 0 -12 -4 5 -18 18 -14 19 -18 6 -23 -8 -3 -13 -2 -11 2 2
4 -4 15 -15 25 -10 9 -18 13 -18 8 0 -6 5 -13 10 -16 26 -16 3 -25 -65 -25
-46 0 -75 -4 -75 -11 0 -5 4 -8 8 -5 5 3 9 -2 9 -11 0 -13 -4 -12 -18 5 -22
27 -29 28 -22 2 3 -12 0 -20 -6 -20 -7 0 -9 5 -5 13 6 9 5 9 -7 0 -8 -6 -38
-13 -67 -14 -42 -2 -49 -5 -40 -16 9 -11 7 -12 -7 -7 -11 5 -16 4 -12 -3 3 -5
1 -10 -6 -10 -7 -1 -40 -2 -74 -3 -34 -2 -60 -7 -57 -11 3 -5 0 -9 -6 -9 -6 0
-8 -4 -5 -10 11 -17 -7 -11 -21 8 -13 16 -14 16 -8 0 5 -16 -1 -18 -43 -18
-35 0 -55 -6 -70 -20 -13 -11 -39 -21 -62 -22 -22 -2 -43 -9 -46 -16 -3 -9 3
-11 21 -8 15 3 23 2 19 -2 -8 -8 -13 -9 -70 -11 -25 0 -44 -4 -44 -8 4 -24 -3
-40 -16 -40 -11 0 -12 4 -3 14 6 7 9 16 6 18 -3 3 -10 -6 -17 -18 -9 -18 -19
-23 -37 -19 -19 3 -24 0 -24 -15 0 -15 -8 -19 -37 -20 -21 -1 -39 -6 -41 -12
-2 -6 -8 -11 -13 -11 -6 0 -8 4 -5 8 3 5 -1 9 -8 9 -7 0 -13 -6 -13 -13 0 -7
3 -11 7 -9 3 2 12 0 19 -4 9 -6 5 -9 -13 -10 -50 -3 -56 -4 -56 -14 0 -6 -3
-7 -6 -4 -4 3 -18 -2 -31 -13 -14 -10 -31 -16 -40 -13 -12 5 -15 2 -10 -9 6
-18 -33 -37 -66 -32 -20 3 -18 -17 3 -24 8 -3 10 0 5 8 -5 9 -4 11 4 6 13 -9
5 -27 -12 -25 -7 1 -24 1 -38 0 -22 -1 -26 -5 -24 -26 3 -21 -1 -25 -23 -26
-15 -1 -30 -1 -34 -1 -3 1 -9 -5 -12 -14 -4 -11 -2 -12 13 -5 13 7 18 6 18 -3
0 -7 -5 -13 -11 -13 -63 1 -76 -3 -76 -27 0 -19 -4 -23 -20 -19 -15 4 -20 0
-20 -16 0 -14 -6 -21 -20 -21 -13 0 -20 -7 -20 -20 0 -14 -7 -20 -24 -20 -19
0 -23 -4 -19 -20 6 -23 -7 -26 -26 -7 -7 6 -12 8 -11 2 2 -5 2 -22 1 -37 -1
-21 -6 -28 -21 -28 -13 0 -20 -7 -20 -20 0 -15 -7 -20 -27 -20 -21 0 -24 -3
-14 -9 8 -5 19 -8 25 -7 6 2 8 1 3 -1 -4 -3 -4 -10 -1 -16 5 -8 2 -8 -7 1 -17
16 -25 15 -27 -3 -1 -8 -3 -22 -4 -30 -1 -9 -7 -14 -15 -11 -15 6 -21 -4 -26
-48 -2 -17 -10 -32 -18 -34 -8 -2 -10 0 -4 5 15 12 16 30 2 30 -11 0 -18 -37
-20 -104 -1 -15 -7 -23 -19 -23 -18 0 -21 -17 -21 -102 0 -21 -23 -24 -31 -5
-2 6 -3 1 -2 -12 2 -14 9 -27 17 -29 11 -3 11 -1 -1 8 -12 9 -12 11 -1 8 24
-7 25 -28 1 -28 -19 0 -21 -5 -19 -47 1 -27 7 -54 13 -62 8 -11 8 -13 -1 -8
-9 6 -11 -7 -10 -48 1 -30 6 -55 10 -55 5 0 5 5 2 10 -3 6 0 10 7 10 9 0 9 3
-2 10 -11 7 -11 10 -2 10 8 0 10 5 6 13 -4 6 -3 9 1 4 5 -4 10 -23 11 -41 1
-28 -2 -33 -15 -29 -14 5 -14 4 1 -8 12 -10 18 -32 20 -76 2 -48 6 -59 15 -51
16 13 17 22 1 12 -7 -4 -8 -3 -4 4 13 21 22 13 24 -20 5 -75 7 -83 25 -82 12
1 17 -6 17 -22 0 -21 8 -28 30 -26 3 0 6 -8 7 -18 1 -13 -3 -17 -13 -13 -7 3
-11 10 -7 17 3 6 2 7 -2 3 -12 -10 -16 -39 -5 -32 17 11 38 -7 33 -28 -4 -18
-3 -19 6 -7 8 11 11 12 11 2 0 -7 5 -10 10 -7 6 3 12 0 14 -7 15 -50 16 -51
31 -38 13 11 15 8 15 -18 0 -17 5 -34 12 -38 7 -4 8 -3 4 4 -4 7 -1 12 8 12
10 0 16 -9 16 -24 0 -19 4 -23 20 -19 15 4 20 0 20 -16 0 -14 6 -21 20 -21 15
0 20 -7 20 -25 0 -18 5 -25 20 -25 13 0 20 -7 20 -20 0 -18 26 -27 63 -21 4 0
7 -4 7 -10 0 -5 4 -7 10 -4 6 3 7 -1 4 -9 -6 -15 11 -22 39 -17 4 0 7 -8 7
-19 0 -19 15 -25 60 -22 12 0 11 -2 -2 -12 -27 -20 -22 -26 22 -26 33 0 40 -3
40 -20 0 -19 9 -22 70 -23 9 0 17 -8 17 -18 1 -11 -3 -19 -8 -19 -6 0 -7 5 -3
12 5 7 3 8 -6 3 -9 -6 -11 -4 -5 6 7 12 5 12 -6 1 -12 -11 -12 -14 1 -22 8 -5
27 -10 43 -11 15 -1 32 -3 37 -4 6 -1 15 -3 20 -4 6 0 10 -8 10 -16 0 -9 10
-15 25 -16 14 -1 30 -2 37 -3 15 -1 23 -26 8 -26 -6 0 -9 4 -6 8 3 5 -1 9 -8
9 -15 0 -17 -23 -2 -25 6 0 35 -1 64 -3 43 -1 52 -5 52 -20 0 -18 18 -24 62
-20 12 2 16 -4 13 -18 -3 -19 1 -21 43 -22 26 -1 57 -1 70 -1 14 1 22 -5 22
-16 0 -15 -2 -15 -10 -2 -8 13 -10 12 -10 -2 0 -15 10 -18 63 -19 34 -1 69 -1
77 0 9 1 11 -1 5 -6 -11 -9 -14 -28 -5 -37 3 -3 34 -6 68 -7 63 -2 87 -14 61
-30 -9 -5 11 -9 54 -10 97 -2 107 -3 107 -11 0 -5 0 -11 0 -14 0 -4 -6 -1 -14
5 -10 9 -16 9 -21 1 -4 -6 -4 -14 -1 -17 3 -4 6 -1 6 7 0 9 4 9 13 2 6 -5 46
-11 87 -12 103 -3 100 -2 100 -13 0 -5 6 -4 14 2 11 9 16 9 22 0 4 -7 3 -9 -4
-5 -6 3 -13 2 -17 -4 -4 -6 -10 -8 -15 -5 -5 3 -11 2 -14 -3 -2 -4 30 -9 72
-10 42 -2 83 -8 91 -15 12 -9 13 -9 7 1 -4 7 -1 12 9 12 10 0 13 -5 9 -12 -6
-10 -4 -10 7 -2 22 16 57 15 63 -3 5 -13 4 -13 -8 -4 -10 9 -15 9 -19 -2 -5
-13 52 -17 286 -20 59 -1 77 -5 77 -15 0 -12 -3 -12 -15 -2 -11 9 -19 10 -28
1 -10 -8 -17 -7 -25 1 -9 9 -12 9 -12 -3 0 -18 110 -24 122 -6 6 9 8 9 8 0 0
-10 42 -13 176 -13 96 0 173 -4 170 -8 -3 -5 1 -9 9 -9 8 0 12 4 9 9 -3 5 22
8 55 7 59 -2 61 -3 56 -27 -2 -13 -1 -21 3 -17 4 3 8 11 8 16 1 5 2 14 3 19 2
18 102 12 125 -7 20 -17 20 -17 6 0 -13 17 -12 19 10 15 14 -2 24 -9 22 -16
-1 -8 2 -11 8 -7 6 3 8 10 5 15 -3 4 12 7 33 7 25 -2 36 -6 34 -15 -1 -8 2
-11 8 -7 6 3 8 10 5 14 -2 5 30 9 72 10 43 1 79 4 82 7 8 7 10 33 3 33 -4 -1
-31 -1 -59 0 -46 1 -53 4 -53 21 0 17 -7 20 -49 20 -28 0 -53 5 -57 12 -4 6
-3 8 3 5 5 -3 10 0 10 7 0 7 -6 13 -13 13 -7 0 -11 -3 -9 -7 2 -3 0 -12 -6
-20 -7 -12 -9 -10 -9 8 0 22 -15 27 -62 23 -12 -2 -16 4 -13 18 3 18 -1 21
-28 21 -21 0 -36 7 -45 20 -8 13 -23 20 -43 20 -21 0 -28 4 -23 13 6 10 4 10
-7 0 -20 -19 -28 -16 -24 12 2 22 -2 25 -34 26 -20 1 -39 1 -44 0 -4 0 -6 2
-6 6 4 23 -3 33 -21 33 -13 0 -20 7 -20 19 0 11 -7 18 -17 18 -51 0 -73 4 -73
13 0 5 8 7 18 3 14 -5 13 -3 -3 10 -11 9 -27 17 -36 17 -9 0 -19 9 -22 21 -3
12 -10 18 -16 15 -5 -4 -12 -2 -16 3 -3 5 -14 8 -24 6 -10 -2 -18 3 -18 11 0
10 4 11 13 3 8 -7 14 -7 19 1 3 5 4 11 1 11 -3 1 -10 3 -16 4 -5 1 -21 3 -34
4 -18 1 -23 6 -22 24 1 17 -5 23 -26 25 -20 2 -28 9 -28 23 0 12 -7 19 -20 19
-13 0 -20 7 -20 20 0 13 -7 20 -20 20 -14 0 -20 7 -20 21 0 16 -5 20 -20 16
-16 -4 -20 0 -20 19 0 17 -6 24 -20 24 -13 0 -20 7 -20 20 0 13 -7 20 -20 20
-15 0 -20 7 -20 29 0 24 -4 28 -25 26 -13 -2 -24 0 -24 3 5 34 -4 61 -20 67
-11 3 -21 16 -23 28 -2 15 -9 21 -22 19 -10 -2 -16 0 -13 5 10 16 -9 78 -23
78 -14 0 -17 8 -19 67 -1 20 -5 26 -19 23 -16 -3 -19 5 -22 53 -2 32 -3 67 -3
80 1 12 -3 22 -9 22 -5 0 -6 -4 -3 -10 3 -5 1 -10 -5 -10 -6 0 -8 -4 -5 -10 3
-5 2 -10 -3 -10 -10 0 -10 11 -10 270 0 235 0 229 16 223 7 -3 11 -12 8 -19
-3 -8 -1 -14 4 -14 6 0 10 29 10 65 0 61 4 70 31 67 3 -1 6 11 6 26 1 56 3 62
21 56 16 -5 16 -5 0 6 -24 15 -24 34 0 21 18 -10 19 -8 25 63 1 11 9 21 17 23
12 4 12 3 2 -5 -11 -7 -11 -10 2 -15 9 -4 15 -3 15 1 -1 4 -1 22 0 40 1 25 5
32 21 32 12 0 20 6 19 13 -5 40 2 63 21 64 22 2 27 -12 8 -23 -7 -5 -8 -3 -3
6 5 9 4 11 -3 6 -19 -11 -14 -25 7 -23 11 0 19 4 19 7 0 3 0 20 1 38 1 25 5
32 21 32 13 0 20 7 20 20 0 11 3 19 8 19 16 -3 32 1 31 9 -5 28 2 40 21 35 12
-3 20 -2 19 3 -5 27 3 44 19 44 26 0 34 11 21 27 -9 10 -6 13 15 13 19 0 26 5
26 20 0 15 7 20 29 20 24 0 28 3 24 20 -7 27 5 25 18 -2 l10 -23 -5 23 c-3 17
1 22 17 23 12 1 26 0 32 -1 5 -1 7 2 3 5 -12 12 12 47 28 41 13 -5 19 5 15 27
0 4 8 8 19 8 11 1 25 3 30 4 6 1 14 3 18 4 5 0 9 7 9 15 0 8 -6 12 -14 9 -7
-3 -10 -10 -6 -17 3 -6 2 -7 -2 -3 -11 9 -16 37 -7 36 4 -1 24 -1 45 0 30 1
37 5 37 21 0 15 7 20 26 20 20 0 25 4 20 16 -3 8 -2 12 4 9 6 -3 10 -1 10 4 0
6 3 10 8 10 33 -5 60 3 58 18 0 10 6 18 14 19 8 0 27 2 42 2 20 2 26 7 23 20
-2 12 3 18 16 19 10 1 19 -2 19 -8 0 -5 -4 -9 -10 -9 -5 0 -10 -6 -10 -12 1
-7 9 -3 19 9 10 12 31 23 47 25 16 2 30 7 32 11 5 16 1 19 -11 8 -10 -8 -14
-7 -14 3 0 8 7 13 16 11 32 -4 66 11 66 30 0 20 12 23 108 26 26 1 51 7 54 12
3 6 1 7 -5 3 -7 -4 -12 -1 -12 6 0 9 -3 9 -10 -2 -8 -13 -10 -13 -10 1 0 15
11 18 98 22 14 1 22 7 22 18 0 9 -6 17 -12 16 -7 0 -64 1 -126 1 -87 2 -112 5
-106 15 6 10 4 10 -7 0 -7 -7 -23 -13 -35 -13 -18 0 -22 5 -19 21 3 12 1 18
-3 15 -4 -4 -7 -13 -7 -19 0 -7 -13 -13 -29 -15 -21 -3 -26 0 -21 10 6 10 5
11 -6 1 -7 -7 -23 -13 -35 -13 -17 0 -22 5 -19 20 3 17 -2 30 -6 15z m-1689
-310 c0 -8 -7 -15 -16 -15 -14 0 -14 3 -4 15 7 8 14 15 16 15 2 0 4 -7 4 -15z
m1316 -157 c4 -7 3 -8 -4 -4 -7 4 -12 2 -12 -5 0 -7 -3 -10 -6 -6 -6 5 3 27
11 27 2 0 7 -5 11 -12z m-1781 -58 c3 -5 -1 -10 -10 -10 -9 0 -13 5 -10 10 3
6 8 10 10 10 2 0 7 -4 10 -10z m1285 -565 c0 -2 -6 -5 -13 -8 -8 -3 -14 1 -14
8 0 7 6 11 14 8 7 -3 13 -6 13 -8z m-1920 -705 c0 -5 -5 -10 -11 -10 -5 0 -7
5 -4 10 3 6 8 10 11 10 2 0 4 -4 4 -10z m987 -762 c-3 -8 -6 -5 -6 6 -1 11 2
17 5 13 3 -3 4 -12 1 -19z m1833 -139 c0 -5 -4 -9 -10 -9 -5 0 -10 7 -10 16 0
8 5 12 10 9 6 -3 10 -10 10 -16z m-835 -99 c-3 -5 -12 -10 -18 -10 -7 0 -6 4
3 10 19 12 23 12 15 0z m392 -45 c0 -8 -4 -12 -9 -9 -5 3 -6 10 -3 15 9 13 12
11 12 -6z m823 -5 c0 -5 -4 -10 -10 -10 -5 0 -10 5 -10 10 0 6 5 10 10 10 6 0
10 -4 10 -10z"/>
<path d="M3149 6983 c-13 -16 -12 -17 4 -4 9 7 17 15 17 17 0 8 -8 3 -21 -13z"/>
<path d="M3269 6983 c-13 -16 -12 -17 4 -4 9 7 17 15 17 17 0 8 -8 3 -21 -13z"/>
<path d="M5309 6983 c-13 -16 -12 -17 4 -4 9 7 17 15 17 17 0 8 -8 3 -21 -13z"/>
<path d="M5399 6995 c-1 -3 -2 -11 -3 -17 0 -7 -14 -14 -30 -16 -21 -3 -26 0
-20 10 6 10 5 11 -7 2 -13 -11 -90 -14 -465 -17 -94 -1 -130 -5 -127 -13 2 -6
17 -11 33 -10 15 0 26 4 24 7 -6 10 25 4 36 -7 8 -8 -112 -14 -341 -18 -42 0
-66 -5 -66 -12 0 -7 7 -10 16 -9 9 2 16 4 16 5 0 1 8 3 19 5 14 3 16 1 7 -8
-7 -7 -38 -13 -69 -13 -31 -1 -76 -2 -99 -3 -40 -1 -41 -2 -37 -28 3 -15 2
-25 -1 -21 -4 3 -8 14 -9 24 -2 12 -12 19 -30 21 -20 1 -26 -2 -24 -14 2 -9 9
-18 16 -19 7 -1 8 0 2 3 -15 7 -12 20 4 20 7 0 13 -7 11 -16 -2 -18 -36 -22
-47 -6 -5 6 -8 6 -8 -2 0 -9 -20 -13 -66 -13 -36 0 -74 -5 -85 -10 -13 -8 -19
-7 -19 0 0 6 -5 8 -11 4 -8 -4 -7 -9 2 -15 22 -13 8 -17 -68 -21 -39 -2 -69
-6 -67 -10 2 -3 1 -8 -3 -11 -5 -2 -3 -2 4 -1 7 2 14 0 17 -4 3 -5 -27 -9 -67
-10 -66 -2 -94 -13 -81 -34 3 -4 0 -8 -5 -8 -6 0 -11 5 -11 10 0 6 -5 10 -11
10 -5 0 -7 -4 -4 -10 5 -9 -46 -16 -82 -11 -7 1 -13 -6 -13 -17 0 -18 -19 -23
-97 -25 -13 -1 -23 -5 -23 -10 0 -5 6 -7 13 -4 8 3 14 0 14 -7 0 -6 -21 -12
-51 -14 -58 -4 -57 -3 -59 -29 -1 -16 -9 -20 -42 -22 -22 -2 -46 -3 -53 -4 -9
0 -9 -4 -2 -11 19 -19 10 -26 -30 -26 -22 0 -40 -4 -40 -9 0 -5 -10 -7 -22 -5
-17 4 -15 1 7 -10 29 -14 29 -14 5 -14 -61 2 -70 -2 -70 -24 0 -21 0 -21 -27
3 -24 20 -25 21 -9 2 18 -21 18 -22 0 -22 -52 -1 -60 -6 -55 -33 0 -5 -10 -8
-23 -8 -30 0 -44 -18 -25 -32 12 -8 11 -9 -1 -5 -8 2 -14 12 -14 21 1 9 -2 16
-7 16 -5 0 -9 -9 -9 -20 0 -18 -10 -25 -32 -21 -5 0 -8 -9 -8 -22 0 -14 -6
-24 -15 -25 -8 -1 -22 -3 -30 -4 -10 -1 -12 -5 -5 -13 12 -15 3 -25 -15 -18
-8 2 -11 12 -8 21 4 14 3 15 -5 2 -6 -8 -8 -18 -6 -22 3 -4 -6 -8 -20 -8 -14
0 -25 -3 -25 -7 4 -23 -3 -33 -22 -33 -16 0 -20 -5 -16 -20 4 -16 0 -20 -19
-20 -17 0 -24 -6 -24 -20 0 -13 -7 -20 -20 -20 -14 0 -20 -7 -20 -21 0 -16 -5
-20 -20 -16 -12 3 -20 1 -19 -6 1 -7 1 -23 0 -36 -1 -20 -3 -21 -16 -11 -11 9
-15 9 -15 1 0 -7 -4 -9 -10 -6 -9 5 -15 -24 -11 -49 1 -5 -5 -4 -13 4 -9 7
-17 9 -18 4 0 -5 -2 -13 -3 -19 -2 -5 -3 -20 -4 -32 -1 -16 -7 -23 -21 -23
-19 0 -25 -17 -21 -61 1 -9 -5 -16 -13 -16 -11 0 -13 4 -6 12 5 6 5 16 0 25
-6 8 -10 13 -10 10 -1 -3 -3 -25 -6 -50 -3 -25 -10 -49 -15 -55 -5 -5 -9 -14
-9 -20 0 -5 5 -3 10 5 7 11 10 12 10 2 0 -8 -9 -16 -20 -19 -17 -4 -20 -14
-20 -54 0 -32 -4 -49 -12 -49 -8 0 -9 -3 -3 -8 6 -4 11 -18 13 -32 1 -18 -1
-21 -7 -11 -7 11 -10 11 -15 0 -3 -8 -3 -4 0 9 3 12 1 22 -4 22 -4 0 -8 -14
-8 -30 0 -21 4 -29 12 -26 16 6 28 -10 19 -24 -5 -8 -11 -7 -21 0 -11 10 -13
-3 -11 -84 1 -53 3 -92 5 -86 2 5 7 8 11 6 4 -3 8 1 8 9 0 8 -3 12 -7 10 -3
-2 -6 9 -5 24 0 15 4 28 10 28 13 0 14 -80 1 -89 -7 -5 -7 -8 2 -8 8 0 12 -18
12 -55 0 -30 5 -55 10 -55 6 0 10 -5 10 -11 0 -5 -4 -8 -8 -5 -5 3 -9 -1 -9
-9 0 -22 12 -18 25 8 11 20 12 20 11 2 -4 -68 2 -94 21 -100 13 -4 20 -15 20
-30 0 -13 5 -27 12 -31 7 -4 8 -3 4 4 -4 7 -1 12 8 12 9 0 15 -3 15 -7 -1 -5
-1 -19 0 -32 1 -17 5 -22 19 -17 16 6 16 5 0 -8 -24 -18 -23 -29 2 -16 11 6
20 7 19 3 -4 -25 2 -53 11 -48 6 3 10 2 10 -4 0 -6 7 -8 15 -5 11 5 15 -1 15
-20 0 -19 4 -24 16 -19 10 4 17 -1 21 -16 3 -12 13 -21 24 -21 11 0 18 -3 18
-7 -3 -20 2 -34 11 -28 6 3 10 1 10 -5 0 -6 5 -8 11 -5 6 4 10 1 8 -6 -3 -29
2 -39 21 -39 13 0 20 -7 20 -20 0 -15 7 -20 24 -20 14 0 28 -5 32 -12 4 -7 3
-8 -4 -4 -8 5 -10 2 -6 -8 3 -9 9 -15 12 -14 4 0 22 0 41 -1 28 -1 33 -4 28
-20 -4 -16 1 -21 22 -23 18 -2 25 -8 23 -21 -2 -9 1 -17 5 -16 29 5 53 -2 47
-13 -5 -9 -2 -9 9 1 15 12 17 11 17 -8 0 -18 6 -21 39 -21 33 0 51 -12 51 -34
0 -1 -9 -2 -21 -3 -16 -1 -18 1 -10 11 8 9 7 13 -3 13 -8 0 -13 -7 -11 -16 1
-10 14 -17 36 -18 61 -5 80 -9 79 -16 0 -4 0 -10 0 -13 0 -4 -7 -1 -15 6 -12
10 -15 10 -15 -1 0 -9 14 -15 38 -17 61 -4 76 -8 80 -23 3 -11 1 -11 -7 1 -10
13 -11 13 -11 0 0 -13 -1 -13 -11 0 -9 13 -10 13 -6 0 4 -17 5 -17 85 -19 38
-1 52 -4 43 -10 -8 -5 -20 -7 -27 -4 -15 6 -28 -13 -14 -22 6 -4 17 -2 24 5 9
7 15 7 18 1 1 -6 21 -11 44 -12 34 -2 40 -6 36 -21 -3 -13 1 -18 14 -18 16 0
17 2 4 10 -8 5 -10 10 -4 10 5 0 14 -4 20 -10 5 -5 26 -10 46 -12 28 -1 37 -6
35 -17 -2 -17 2 -18 64 -20 35 -1 40 -4 34 -20 -3 -11 -1 -22 4 -26 7 -4 8 1
4 11 -5 13 -3 15 7 9 8 -5 11 -4 6 3 -3 6 -2 13 3 16 5 4 8 -5 7 -18 -2 -14 0
-25 3 -24 37 4 91 -4 86 -13 -4 -6 3 -5 15 3 19 11 23 10 40 -9 14 -17 30 -23
69 -24 27 -1 48 -6 45 -11 -3 -4 1 -8 8 -8 10 0 10 -2 0 -9 -9 -5 19 -9 69
-10 87 -2 103 -6 96 -25 -3 -8 23 -12 86 -13 60 -2 93 -7 99 -15 5 -8 8 -9 8
-2 0 7 22 11 57 11 31 -1 51 -3 45 -5 -7 -2 -10 -7 -7 -12 6 -10 -15 -8 -32 3
-8 5 -13 3 -13 -5 0 -10 -3 -9 -11 2 -8 12 -10 12 -7 1 5 -17 14 -18 194 -22
109 -2 141 -5 141 -15 0 -9 -4 -11 -12 -4 -8 6 -17 5 -29 -3 -14 -10 -11 -12
24 -12 36 -1 39 1 34 20 -4 14 -3 16 4 6 8 -11 10 -11 14 0 3 9 6 8 11 -5 5
-11 3 -15 -5 -10 -6 4 -8 3 -5 -3 10 -15 107 -16 107 -1 0 10 2 10 8 1 5 -8
48 -13 134 -14 114 -1 126 -3 123 -18 -2 -10 3 -18 11 -18 10 0 11 4 3 14 -9
9 -7 14 5 19 22 8 49 -3 40 -17 -4 -8 -3 -9 5 -5 6 4 9 11 6 16 -3 4 12 7 33
7 25 -2 36 -6 34 -15 -1 -8 2 -11 8 -7 6 3 8 10 5 15 -3 4 12 7 33 7 25 -2 36
-6 34 -15 -1 -8 2 -11 8 -7 6 3 8 10 5 15 -8 13 128 9 144 -4 11 -8 13 -8 8 1
-6 9 19 13 103 15 60 2 110 7 109 12 0 5 5 12 11 16 7 4 -10 8 -36 8 -27 1
-50 6 -52 12 -2 5 -8 10 -13 10 -6 0 -7 -4 -4 -10 3 -5 -1 -10 -9 -10 -9 0
-16 9 -16 20 0 20 -7 22 -92 23 -15 0 -25 3 -23 7 9 15 -16 32 -49 32 -20 0
-39 5 -43 11 -4 6 0 8 10 4 10 -3 17 -2 17 4 0 6 6 7 13 3 6 -4 9 -3 4 1 -8 9
-25 12 -89 16 -33 2 -36 4 -25 18 8 10 8 13 0 8 -6 -4 -13 -2 -15 3 -2 6 -20
12 -40 13 -31 2 -35 5 -32 24 4 23 -2 26 -67 26 -9 0 -16 5 -16 12 0 6 6 12
13 12 7 0 10 -5 7 -10 -3 -6 -1 -7 5 -3 16 10 15 27 0 25 -7 -1 -28 -1 -45 0
-26 1 -33 5 -33 21 0 14 -7 20 -22 21 -46 2 -51 4 -55 19 -4 13 -3 13 6 0 7
-9 11 -10 11 -3 0 16 -21 28 -42 25 -12 -2 -18 3 -18 17 0 15 -7 21 -22 23
-43 2 -47 3 -55 12 -4 5 -3 6 5 2 6 -4 12 -2 12 4 0 6 5 8 10 5 6 -3 10 -1 10
5 0 7 -8 9 -20 5 -11 -4 -20 -2 -20 4 0 6 -10 10 -22 8 -18 -2 -23 3 -21 21 2
18 -2 22 -23 22 -21 0 -25 4 -21 20 4 16 0 20 -20 20 -13 0 -21 4 -18 10 3 6
1 10 -5 10 -6 0 -8 5 -5 10 3 6 -3 10 -14 10 -14 0 -21 6 -21 20 0 13 -7 20
-20 20 -13 0 -20 7 -20 20 0 13 -7 20 -20 20 -13 0 -20 7 -20 20 0 18 -16 25
-42 21 -7 -1 -12 38 -9 66 2 18 -16 25 -23 7 -4 -10 -2 -13 6 -8 7 4 8 3 4 -5
-12 -19 -26 -2 -26 33 0 39 -8 50 -27 35 -10 -9 -13 -6 -13 18 0 16 -5 34 -12
41 -9 9 -9 12 2 12 7 0 11 3 7 6 -12 12 -28 -7 -18 -20 8 -9 7 -13 -2 -13 -7
0 -13 10 -14 21 -3 61 -7 75 -20 64 -8 -6 -16 -8 -19 -5 -9 9 22 37 31 29 5
-4 5 -1 1 6 -6 9 -11 10 -20 3 -9 -8 -13 -7 -14 2 0 6 -2 28 -3 49 -2 36 -3
36 -19 16 -17 -22 -19 -14 -23 129 -1 12 -5 19 -9 17 -11 -7 -10 3 2 26 7 13
7 21 -2 26 -6 4 -8 3 -4 -4 3 -5 1 -12 -6 -14 -6 -2 -12 -14 -13 -26 -1 -11 1
-19 5 -17 3 2 7 -5 7 -16 1 -12 -3 -19 -10 -16 -9 3 -13 62 -15 210 l-4 207
26 10 c33 12 33 19 1 12 -15 -2 -25 0 -25 7 0 6 11 11 23 11 22 0 24 4 27 68
1 37 3 72 3 79 0 7 4 10 9 7 5 -3 6 -9 4 -13 -3 -4 1 -8 8 -8 7 0 13 5 13 11
-1 55 5 74 26 85 l22 11 -22 -6 c-13 -3 -23 -1 -23 5 0 6 9 11 20 11 13 0 20
7 20 19 0 10 9 21 20 24 11 3 20 9 19 14 -1 4 -1 23 0 41 1 26 5 32 22 32 16
0 20 5 16 20 -3 11 -1 20 5 20 5 0 7 4 4 9 -3 5 0 14 7 20 10 8 14 7 14 -4 0
-8 -5 -11 -10 -8 -6 4 -7 1 -3 -6 10 -16 19 -7 23 22 6 40 13 49 33 44 16 -4
20 0 20 19 0 17 6 24 20 24 13 0 20 7 20 20 0 22 25 28 33 8 3 -7 6 4 6 26 1
33 4 38 21 33 16 -4 20 0 20 19 0 19 5 24 24 24 16 0 23 5 22 17 0 10 5 18 12
18 14 0 33 25 27 35 -4 6 21 10 63 10 14 0 22 6 22 18 0 15 -2 15 -11 2 -9
-13 -10 -13 -7 0 3 8 15 17 28 20 13 3 26 12 29 20 6 16 22 22 61 23 14 0 19
2 12 4 -10 4 -10 8 0 21 11 13 11 14 -1 7 -10 -5 -12 -4 -7 3 4 7 18 12 32 12
17 0 24 5 24 20 0 17 7 20 45 20 38 0 45 3 45 20 0 19 14 24 66 23 6 0 11 6
11 13 0 9 -5 10 -17 4 -11 -6 -17 -5 -17 3 0 7 7 13 16 14 9 0 34 2 57 3 25 2
41 8 41 16 0 9 -5 10 -17 4 -11 -6 -17 -5 -17 3 0 7 7 13 16 13 71 4 110 9
109 13 -2 23 7 30 39 33 26 2 37 8 39 21 3 26 6 27 47 29 25 1 37 6 40 20 3
10 13 18 24 18 15 0 16 -2 3 -10 -9 -6 -10 -10 -3 -10 6 0 15 5 18 10 3 6 21
10 39 10 37 0 47 6 40 25 -5 12 -134 21 -252 16 -32 -1 -42 2 -36 11 6 10 4
11 -7 1 -7 -7 -23 -13 -35 -13 -17 0 -22 5 -19 20 3 17 -2 30 -6 15z m341 -55
c0 -5 -5 -10 -11 -10 -5 0 -7 5 -4 10 3 6 8 10 11 10 2 0 4 -4 4 -10z m-211
-83 c8 -10 7 -14 -2 -14 -8 0 -14 6 -14 14 0 7 1 13 2 13 2 0 8 -6 14 -13z
m-77 -42 c0 -5 -5 -10 -11 -12 -8 -1 -7 0 0 4 8 4 7 8 -2 15 -11 8 -11 9 -1 6
8 -2 14 -8 14 -13z m-1370 -7 c-15 -15 -42 -19 -42 -6 0 6 7 8 15 4 8 -3 15
-1 15 4 0 6 5 10 12 10 9 0 9 -3 0 -12z m1119 -121 c-10 -9 -11 -8 -5 6 3 10
9 15 12 12 3 -3 0 -11 -7 -18z m-1736 -76 c3 -5 2 -12 -3 -15 -5 -3 -9 1 -9 9
0 17 3 19 12 6z m1605 -5 c0 -3 -4 -8 -10 -11 -5 -3 -10 -1 -10 4 0 6 5 11 10
11 6 0 10 -2 10 -4z m-2209 -349 c-10 -9 -11 -8 -5 6 3 10 9 15 12 12 3 -3 0
-11 -7 -18z m1676 -192 c0 -6 -6 -12 -12 -12 -6 0 -12 6 -12 12 0 6 6 12 12
12 6 0 12 -6 12 -12z m-1923 -51 c3 -8 2 -12 -4 -9 -6 3 -10 10 -10 16 0 14 7
11 14 -7z m1796 -232 c0 -13 -12 -22 -22 -16 -10 6 -1 24 13 24 5 0 9 -4 9 -8z
m-1940 -218 c0 -8 -19 -13 -24 -6 -3 5 1 9 9 9 8 0 15 -2 15 -3z m72 -363 c8
11 9 11 6 1 -4 -16 -22 -18 -24 -2 -2 7 -1 6 3 -1 4 -8 8 -7 15 2z m503 -500
c3 -5 2 -12 -3 -15 -5 -3 -9 1 -9 9 0 17 3 19 12 6z m1005 -427 c0 -8 -4 -12
-10 -9 -5 3 -10 10 -10 16 0 5 5 9 10 9 6 0 10 -7 10 -16z m40 2 c0 -3 -4 -8
-10 -11 -5 -3 -10 -1 -10 4 0 6 5 11 10 11 6 0 10 -2 10 -4z m128 -43 c-13
-16 -15 -16 -21 1 -4 10 0 14 13 13 14 -1 16 -4 8 -14z m41 0 c-6 -7 -17 -13
-23 -12 -7 0 -6 2 2 6 6 2 10 8 8 12 -3 4 1 8 9 8 11 0 12 -4 4 -14z m1486
-91 c-3 -3 -11 0 -18 7 -9 10 -8 11 6 5 10 -3 15 -9 12 -12z"/>
<path d="M5429 6983 c-13 -16 -12 -17 4 -4 9 7 17 15 17 17 0 8 -8 3 -21 -13z"/>
<path d="M7519 6995 c-1 -3 -2 -9 -3 -14 -2 -19 -16 -20 -185 -21 -159 -1
-171 -3 -159 -18 12 -16 11 -16 -6 -2 -22 18 -109 23 -99 6 5 -8 3 -8 -8 0
-23 17 -84 12 -83 -7 1 -13 -15 -16 -105 -18 -58 -2 -129 -4 -157 -4 -38 -1
-50 -5 -47 -15 4 -10 9 -10 19 -1 12 9 13 9 9 -3 -4 -9 -22 -15 -53 -15 -208
-5 -213 -6 -210 -28 3 -18 -3 -20 -70 -23 -70 -3 -73 -4 -67 -25 4 -15 4 -18
-3 -8 -8 11 -11 11 -16 0 -3 -8 -4 -5 -1 7 4 17 1 21 -20 20 -14 -1 -25 -5
-25 -9 0 -4 0 -10 0 -13 0 -4 7 -1 15 6 12 10 15 10 15 -2 0 -8 -10 -14 -22
-15 -90 -2 -138 -8 -138 -14 0 -5 -8 -6 -17 -3 -15 5 -15 4 -3 -5 21 -15 11
-20 -52 -22 -35 -1 -55 -6 -51 -12 4 -6 -1 -8 -12 -3 -14 5 -16 4 -7 -7 12
-14 10 -14 -98 -20 -8 0 -21 -6 -28 -14 -17 -17 -1 -17 19 -1 11 10 11 9 -1
-4 -10 -11 -33 -18 -69 -19 -42 -2 -55 -7 -59 -21 -3 -14 -14 -18 -48 -18 -24
0 -44 -4 -44 -10 0 -5 8 -7 18 -4 9 3 7 -1 -6 -8 -12 -8 -19 -17 -16 -21 4 -4
-11 -7 -34 -7 -38 0 -46 -6 -44 -31 1 -6 -19 -9 -55 -9 -17 0 -23 -6 -23 -22
0 -17 -3 -19 -12 -10 -7 7 -17 12 -22 12 -6 0 -4 -5 4 -10 13 -9 13 -10 0 -11
-8 -1 -25 0 -37 1 -17 1 -23 -4 -23 -19 0 -17 -6 -21 -31 -21 -28 0 -30 -2
-18 -17 10 -14 8 -13 -10 2 l-24 20 5 -22 c6 -23 1 -26 -63 -26 -9 0 -16 -6
-16 -13 0 -10 4 -11 12 -4 9 7 14 6 18 -4 3 -7 0 -13 -6 -13 -55 1 -67 -4 -67
-28 0 -14 -3 -24 -7 -24 -25 4 -53 -2 -48 -11 3 -5 1 -10 -4 -10 -6 0 -11 5
-11 11 0 5 -5 7 -11 3 -8 -4 -3 -11 12 -20 22 -11 22 -13 4 -13 -27 0 -53 -6
-61 -14 -4 -4 -2 -7 4 -7 7 0 12 -4 12 -9 0 -4 -8 -8 -17 -8 -37 0 -43 -4 -43
-23 0 -13 -7 -20 -20 -20 -13 0 -20 -7 -20 -20 0 -13 -7 -20 -20 -20 -13 0
-20 -7 -20 -20 0 -12 -6 -20 -12 -19 -30 4 -38 -3 -38 -30 0 -25 -3 -28 -22
-23 -21 5 -22 4 -8 -13 9 -11 10 -16 3 -11 -8 4 -13 1 -13 -9 0 -10 -7 -15
-17 -13 -18 3 -19 -1 -22 -51 -1 -18 -5 -22 -21 -18 -17 4 -20 0 -20 -24 0
-22 -4 -27 -17 -23 -17 5 -17 5 0 -6 23 -15 23 -34 -1 -21 -16 8 -18 5 -21
-30 -2 -42 -16 -89 -26 -89 -4 0 -3 5 0 10 3 6 1 10 -4 10 -6 0 -11 -17 -11
-38 0 -21 -6 -44 -12 -51 -8 -8 -8 -11 -2 -8 8 5 11 -20 10 -88 0 -52 -5 -95
-9 -95 -5 0 -5 -6 0 -12 7 -13 10 -41 12 -155 1 -46 4 -53 21 -53 11 0 19 -3
19 -7 -5 -33 3 -73 15 -73 8 0 16 -7 20 -15 4 -12 2 -13 -13 -6 -13 8 -18 6
-18 -5 0 -7 2 -12 5 -9 9 9 43 -16 36 -27 -9 -15 19 -30 29 -15 5 7 7 3 3 -12
-6 -30 9 -52 32 -44 14 4 15 3 2 -5 -8 -6 -18 -8 -22 -6 -10 6 -11 -10 -1 -19
3 -4 13 -1 21 6 11 8 14 8 9 0 -4 -6 -3 -14 2 -18 6 -3 7 -13 4 -22 -4 -11 -3
-14 5 -9 7 4 12 2 12 -4 0 -6 5 -8 10 -5 6 3 10 -3 10 -14 0 -19 15 -26 43
-22 4 0 7 -8 7 -19 0 -13 7 -20 20 -20 13 0 20 -7 20 -20 0 -13 7 -20 20 -20
15 0 20 -7 20 -25 0 -18 5 -25 20 -25 13 0 20 -7 20 -20 0 -12 7 -20 18 -21
49 -2 72 -13 47 -23 -11 -4 -14 -2 -9 6 4 7 3 8 -4 4 -18 -11 -14 -26 6 -24
36 3 73 -2 68 -10 -10 -16 11 -32 45 -35 26 -2 33 -7 31 -20 -2 -12 4 -17 23
-17 18 0 25 -5 25 -20 0 -19 17 -25 68 -23 8 1 10 -6 7 -17 -7 -23 2 -28 52
-31 22 -2 40 -8 40 -14 0 -7 -6 -12 -13 -12 -7 0 -11 4 -8 9 3 4 0 8 -5 8 -6
0 -11 -7 -11 -15 0 -11 12 -15 48 -15 26 0 54 -5 62 -11 12 -8 9 -9 -10 -4
-17 4 -21 3 -11 -3 11 -8 11 -10 0 -15 -8 -2 -3 -5 11 -5 101 -2 112 -6 90
-28 -7 -7 -2 -10 13 -11 12 -1 36 -3 52 -6 17 -3 34 -5 38 -6 5 0 6 -5 2 -10
-7 -12 18 -20 72 -23 27 -2 43 -8 43 -16 0 -10 -5 -10 -22 -1 -18 9 -21 9 -11
-1 10 -11 44 -19 98 -22 11 -1 33 -13 48 -27 22 -20 30 -23 36 -12 5 8 10 9
12 3 2 -6 29 -13 59 -15 60 -4 82 -23 24 -20 -20 1 -33 -1 -30 -4 6 -6 47 -10
163 -15 47 -2 59 -6 51 -15 -6 -7 -15 -10 -22 -6 -6 4 -17 8 -25 10 -10 1 -11
-1 -2 -10 12 -12 29 -14 149 -18 57 -1 75 -10 53 -23 -5 -4 -12 0 -14 6 -4 10
-6 10 -6 0 -1 -8 -6 -10 -13 -6 -8 4 -9 3 -5 -2 5 -5 27 -9 50 -10 207 -7 237
-9 254 -22 16 -12 16 -13 -9 -8 -16 2 -28 0 -28 -5 0 -5 6 -9 13 -8 6 1 49 1
94 0 69 -1 82 -4 86 -18 4 -16 5 -16 6 -1 1 14 13 16 86 15 80 -2 103 -8 71
-20 -7 -3 -19 0 -26 6 -7 7 -10 7 -7 2 3 -6 -3 -11 -13 -11 -10 0 -16 4 -14 8
7 11 -38 0 -50 -13 -8 -8 -5 -8 12 0 12 6 22 8 22 3 0 -12 94 -10 102 3 5 7 8
6 8 -1 0 -8 49 -12 161 -13 89 -1 165 -4 170 -7 5 -3 6 -10 3 -16 -4 -7 -2 -8
5 -4 6 4 9 11 6 16 -3 4 12 7 33 7 25 -2 36 -6 34 -15 -1 -8 2 -11 8 -7 6 3 8
10 5 15 -3 4 12 7 33 7 25 -2 36 -6 34 -15 -1 -8 2 -11 8 -7 6 3 8 10 5 15 -3
4 12 7 33 7 25 -2 36 -6 34 -15 -1 -8 2 -11 8 -7 6 3 8 10 6 14 -3 4 15 9 40
9 25 1 43 -2 40 -6 -3 -5 1 -9 9 -9 8 0 12 4 9 8 -3 6 335 14 433 10 16 0 21
4 18 17 -2 11 3 19 11 19 9 0 12 -7 9 -17 -4 -14 1 -17 33 -16 23 0 39 6 39
13 0 7 -4 10 -9 7 -4 -3 -8 0 -8 5 0 7 41 11 113 12 61 0 129 1 149 1 21 0 36
4 33 7 -2 4 1 13 6 21 7 13 10 13 18 1 5 -8 10 -9 12 -2 3 6 39 11 92 12 48 1
85 4 82 8 -4 3 -11 6 -16 6 -5 0 -10 4 -11 10 -3 10 16 12 142 14 46 1 61 4
50 11 -13 8 -12 10 3 10 10 0 15 5 12 10 -3 6 -1 10 5 10 6 0 10 -6 8 -14 -2
-8 2 -15 7 -15 6 -1 10 5 10 12 0 7 18 13 48 15 33 2 45 7 41 15 -5 8 -3 8 7
0 19 -18 29 -16 29 7 0 23 10 25 29 8 11 -10 13 -10 7 0 -6 11 35 16 119 15 6
0 12 9 13 21 1 17 -1 18 -9 6 -8 -11 -12 -12 -16 -2 -2 6 -10 9 -16 5 -7 -3
-8 -2 -4 3 9 10 12 10 83 12 41 2 51 5 50 18 0 9 5 19 12 21 7 3 10 -1 6 -10
-3 -8 -1 -18 4 -21 5 -3 9 2 8 12 -1 12 8 18 32 20 18 2 30 7 27 12 -3 5 -1
11 4 14 5 4 13 1 17 -5 5 -8 3 -9 -6 -4 -9 5 -11 4 -6 -3 12 -19 29 -14 23 7
-4 16 1 19 36 19 36 1 62 16 52 32 -3 6 38 11 92 13 12 1 25 7 27 14 6 14 -15
14 -25 0 -3 -5 -9 -2 -12 5 -3 9 3 14 17 15 69 2 103 8 103 18 0 7 -6 12 -13
12 -7 0 -11 -4 -8 -9 3 -4 0 -8 -6 -8 -27 0 0 24 31 28 19 2 36 8 37 13 2 5 8
9 13 9 6 0 7 -4 4 -10 -3 -5 -2 -10 3 -10 6 0 12 7 16 15 3 8 2 14 -2 14 -18
-3 -32 2 -32 11 0 6 6 10 13 9 43 -5 67 2 67 21 0 16 7 20 33 21 17 1 38 1 45
0 7 -1 12 2 11 6 -4 22 3 33 21 33 13 0 20 7 20 20 0 19 22 26 70 21 13 -2 13
-1 0 8 -8 5 -19 7 -25 3 -5 -3 -4 2 4 11 7 9 26 17 42 17 16 0 28 3 28 8 -4
23 4 32 26 32 20 0 25 5 25 25 0 18 5 25 20 25 13 0 20 7 20 20 0 13 7 20 20
20 14 0 20 7 20 21 0 16 5 20 19 16 16 -4 21 1 23 22 2 18 8 25 21 23 11 -2
17 4 17 18 0 17 9 24 31 22 6 -1 8 14 10 61 0 22 5 27 25 27 17 0 24 5 24 20
0 17 9 24 31 22 4 -1 9 39 12 106 0 13 10 16 20 5 4 -3 2 -11 -3 -18 -7 -8 -6
-12 3 -12 7 0 13 13 14 29 0 18 -3 25 -11 21 -6 -4 -5 1 2 10 10 11 14 53 15
137 1 66 5 120 9 120 4 0 5 -9 3 -20 -3 -14 0 -18 8 -13 8 4 8 2 -1 -9 -9 -11
-10 -18 -2 -23 5 -3 10 -5 11 -3 7 31 7 48 -2 48 -6 0 -7 5 -2 13 12 19 14 47
3 47 -6 0 -9 -5 -8 -11 2 -6 -3 -13 -10 -14 -7 -2 -8 -1 -2 2 7 3 7 10 -2 21
-7 9 -8 13 -2 9 20 -12 37 19 24 42 -13 26 -16 26 -16 2 0 -11 4 -17 8 -15 4
3 8 0 8 -5 0 -6 -6 -11 -14 -11 -9 0 -14 12 -14 38 -2 111 -4 122 -23 122 -11
0 -19 7 -19 18 0 14 2 15 10 2 7 -11 10 -11 10 -2 0 8 5 10 13 6 7 -4 9 -3 4
2 -5 5 -14 9 -20 9 -7 0 -13 14 -15 31 -3 26 -7 31 -23 27 -11 -3 -19 0 -19 6
0 7 4 10 9 7 5 -3 11 1 14 9 4 9 1 12 -9 8 -10 -4 -14 2 -14 20 0 28 -15 44
-25 27 -4 -6 -11 -8 -16 -4 -6 3 -5 12 3 22 10 12 10 14 1 8 -8 -4 -13 -1 -13
9 0 9 -4 14 -9 10 -15 -8 -27 15 -30 55 0 11 -5 20 -10 20 -6 0 -8 -9 -6 -20
2 -12 0 -18 -6 -15 -5 4 -7 10 -4 15 3 5 1 11 -5 15 -5 3 -10 17 -10 30 0 17
-6 25 -22 27 -16 2 -22 9 -20 21 2 11 -4 17 -18 17 -13 0 -20 7 -20 20 0 14
-7 20 -24 20 -19 0 -23 4 -19 20 4 17 0 20 -26 21 -44 2 -48 3 -58 13 -5 5 -3
6 5 2 7 -4 12 -2 12 6 0 9 3 9 10 -2 8 -13 10 -13 10 1 0 11 -9 17 -25 18 -45
3 -54 4 -53 10 3 29 -4 39 -24 33 -18 -4 -20 -2 -16 16 7 27 0 32 -49 34 -21
1 -32 3 -26 5 9 3 9 9 1 22 -7 12 -19 16 -42 13 -28 -5 -30 -3 -17 11 16 20 8
24 -49 29 -27 2 -34 7 -32 21 2 14 -5 17 -37 17 -22 0 -43 5 -47 11 -4 7 0 9
14 5 23 -8 39 8 21 20 -8 4 -9 3 -5 -4 9 -15 -6 -16 -21 -1 -5 5 -29 11 -52
12 -39 1 -51 9 -32 21 5 4 12 1 14 -4 3 -6 4 -5 3 2 -3 14 -6 15 -66 17 -36 1
-40 4 -40 26 0 23 -4 25 -40 25 -37 0 -45 7 -41 33 0 4 -29 7 -65 7 -41 0 -63
4 -59 10 3 6 1 10 -5 10 -6 0 -9 4 -6 8 4 7 -27 12 -101 15 -7 0 -15 7 -17 14
-3 8 -2 11 3 8 5 -3 12 -1 15 3 3 5 -5 9 -17 9 -120 1 -127 3 -127 23 0 11 -7
20 -15 20 -8 0 -15 -5 -15 -11 0 -5 5 -7 10 -4 16 10 12 -1 -6 -15 -8 -8 -14
-9 -13 -4 5 29 -3 34 -61 34 -55 0 -60 2 -60 23 -1 22 -1 22 -16 -3 -14 -23
-14 -23 -9 -2 4 13 2 22 -4 22 -6 0 -11 -6 -11 -12 0 -10 -2 -10 -8 -1 -4 7
-39 13 -83 15 -74 3 -90 12 -64 35 4 4 5 3 2 -4 -4 -7 -1 -10 8 -9 29 4 20 19
-13 22 -20 2 -30 -1 -26 -8 4 -6 -1 -6 -14 1 -11 6 -58 12 -105 13 -58 2 -84
7 -84 15 0 9 4 10 14 2 10 -9 13 -8 13 2 0 11 3 11 11 -1 9 -13 10 -13 7 0 -4
14 -37 17 -230 22 -36 0 -55 5 -51 11 4 6 1 7 -8 1 -18 -11 -128 -13 -135 -2
-3 4 3 5 12 1 10 -4 15 -2 11 4 -3 5 0 10 8 10 8 0 12 -3 10 -7 -6 -9 42 -6
51 3 4 4 14 1 23 -5 14 -10 14 -10 3 2 -14 16 -7 16 -369 20 -223 3 -231 4
-227 23 2 11 0 16 -4 13 -4 -4 -7 -13 -7 -19 0 -7 -13 -13 -29 -15 -21 -3 -26
0 -21 10 6 10 5 11 -6 1 -7 -7 -23 -13 -35 -13 -17 0 -22 5 -19 20 3 17 -2 30
-6 15z m-479 -59 c-5 -5 -20 -11 -32 -12 -13 -2 -17 0 -10 2 6 3 10 9 8 13 -3
4 6 7 20 7 16 0 21 -3 14 -10z m1007 -3 c0 -8 -4 -10 -12 -3 -7 5 -16 6 -20 2
-5 -4 -5 -2 -2 4 9 15 34 13 34 -3z m46 0 c-4 -10 -9 -11 -19 -2 -18 15 -18
15 5 15 11 0 17 -5 14 -13z m-1357 -35 c4 -7 4 -10 -1 -6 -4 4 -15 2 -24 -5
-14 -11 -14 -10 -2 6 16 20 18 21 27 5z m1754 0 c0 -4 -4 -8 -9 -8 -6 0 -12 4
-15 8 -3 5 1 9 9 9 8 0 15 -4 15 -9z m-2010 -38 c13 -8 13 -11 1 -22 -10 -10
-12 -10 -7 0 4 6 2 12 -3 12 -6 0 -11 -6 -11 -12 0 -9 -3 -8 -9 2 -17 25 1 38
29 20z m-470 -134 c0 -3 -4 -8 -10 -11 -5 -3 -10 -1 -10 4 0 6 5 11 10 11 6 0
10 -2 10 -4z m-253 -81 c0 -6 -6 -12 -12 -12 -6 0 -12 6 -12 12 0 6 6 12 12
12 6 0 12 -6 12 -12z m3694 -8 c-13 -13 -26 -3 -16 12 3 6 11 8 17 5 6 -4 6
-10 -1 -17z m-3776 -37 c-3 -5 -12 -10 -18 -10 -7 0 -6 4 3 10 19 12 23 12 15
0z m-765 -500 c0 -5 -2 -10 -4 -10 -3 0 -8 5 -11 10 -3 6 -1 10 4 10 6 0 11
-4 11 -10z m-209 -793 c-10 -9 -11 -8 -5 6 3 10 9 15 12 12 3 -3 0 -11 -7 -18z
m5757 -109 c-2 -6 -10 -13 -16 -14 -7 -1 -8 0 -2 3 5 2 8 9 4 14 -3 5 0 9 6 9
7 0 10 -5 8 -12z m-96 -125 c-6 -2 -9 -10 -6 -15 4 -7 2 -8 -5 -4 -13 9 -5 26
12 25 9 0 8 -2 -1 -6z m-408 -372 c3 -5 -1 -11 -9 -14 -9 -4 -12 -1 -8 9 6 16
10 17 17 5z m-4283 -218 c13 -16 12 -17 -3 -4 -10 7 -18 15 -18 17 0 8 8 3 21
-13z m300 -110 c-11 -5 -11 -7 0 -14 8 -5 9 -9 3 -9 -6 0 -17 7 -24 15 -10 13
-9 15 11 14 13 0 18 -3 10 -6z m2932 -98 c-3 -9 -8 -14 -10 -11 -3 3 -2 9 2
15 9 16 15 13 8 -4z m-2433 -39 c-15 -15 -44 -17 -31 -2 6 7 18 13 26 13 11 0
12 -4 5 -11z m273 -46 c10 -12 9 -12 -4 -2 -9 6 -18 9 -21 6 -3 -3 -9 -1 -12
4 -9 15 22 8 37 -8z m1756 -3 c0 -9 -2 -8 -6 1 -2 6 -10 9 -15 6 -7 -4 -8 -2
-4 5 9 13 26 5 25 -12z m36 4 c-3 -6 -11 -11 -16 -11 -5 0 -4 6 3 14 14 16 24
13 13 -3z m-1474 -44 c-10 -9 -11 -8 -5 6 3 10 9 15 12 12 3 -3 0 -11 -7 -18z
m1179 17 c0 -2 -9 -8 -20 -14 -15 -8 -18 -8 -14 3 4 11 34 21 34 11z"/>
<path d="M7549 6983 c-13 -16 -12 -17 4 -4 9 7 17 15 17 17 0 8 -8 3 -21 -13z"/>
<path d="M3015 6980 c3 -5 8 -10 11 -10 2 0 4 5 4 10 0 6 -5 10 -11 10 -5 0
-7 -4 -4 -10z"/>
<path d="M7480 6980 c-9 -6 -10 -10 -3 -10 6 0 15 5 18 10 8 12 4 12 -15 0z"/>
<path d="M2522 6944 c-7 -8 -8 -14 -3 -14 10 0 25 19 20 25 -2 1 -10 -3 -17
-11z"/>
<path d="M4713 6945 c0 -8 4 -15 9 -15 4 0 8 4 8 9 0 6 -4 12 -8 15 -5 3 -9
-1 -9 -9z"/>
<path d="M6875 6951 c-3 -5 -2 -12 3 -15 5 -3 9 1 9 9 0 17 -3 19 -12 6z"/>
<path d="M4670 6946 c0 -2 7 -7 16 -10 8 -3 12 -2 9 4 -6 10 -25 14 -25 6z"/>
<path d="M3313 6848 c1 -10 6 -18 12 -18 6 0 11 8 12 18 1 10 -5 19 -12 19 -7
0 -13 -9 -12 -19z"/>
<path d="M8941 6823 c-1 -17 16 -25 25 -12 4 7 3 9 -4 5 -5 -3 -13 0 -15 6 -4
9 -6 10 -6 1z"/>
<path d="M1677 6783 c-4 -3 -7 -11 -7 -17 0 -6 5 -5 12 2 6 6 9 14 7 17 -3 3
-9 2 -12 -2z"/>
<path d="M3850 6780 c-9 -6 -10 -10 -3 -10 6 0 15 5 18 10 8 12 4 12 -15 0z"/>
<path d="M3067 6724 c3 -7 9 -14 14 -14 14 0 10 17 -5 23 -10 4 -13 1 -9 -9z"/>
<path d="M3600 6700 c-9 -6 -10 -10 -3 -10 6 0 15 5 18 10 8 12 4 12 -15 0z"/>
<path d="M9356 6697 c3 -10 9 -15 12 -12 3 3 0 11 -7 18 -10 9 -11 8 -5 -6z"/>
<path d="M2990 6680 c0 -5 5 -10 10 -10 6 0 10 5 10 10 0 6 -4 10 -10 10 -5 0
-10 -4 -10 -10z"/>
<path d="M1097 6569 c7 -7 15 -10 18 -7 3 3 -2 9 -12 12 -14 6 -15 5 -6 -5z"/>
<path d="M3307 6559 c7 -7 15 -10 18 -7 3 3 -2 9 -12 12 -14 6 -15 5 -6 -5z"/>
<path d="M4902 6481 c-11 -6 -10 -10 4 -15 9 -3 19 -4 22 -1 3 3 0 5 -7 5 -7
0 -9 5 -6 10 7 12 4 12 -13 1z"/>
<path d="M5347 6479 c7 -7 15 -10 18 -7 3 3 -2 9 -12 12 -14 6 -15 5 -6 -5z"/>
<path d="M9820 6480 c-9 -6 -10 -10 -3 -10 6 0 15 5 18 10 8 12 4 12 -15 0z"/>
<path d="M849 6443 c-13 -16 -12 -17 4 -4 16 13 21 21 13 21 -2 0 -10 -8 -17
-17z"/>
<path d="M9950 6411 c0 -5 5 -13 10 -16 6 -3 10 -2 10 4 0 5 -4 13 -10 16 -5
3 -10 2 -10 -4z"/>
<path d="M10065 6321 c-6 -11 13 -26 22 -17 4 3 1 6 -6 6 -7 0 -9 5 -6 10 3 6
4 10 1 10 -3 0 -7 -4 -11 -9z"/>
<path d="M4655 6220 c-3 -6 1 -7 9 -4 18 7 21 14 7 14 -6 0 -13 -4 -16 -10z"/>
<path d="M10355 6031 c-6 -11 9 -23 19 -14 9 9 7 23 -3 23 -6 0 -12 -4 -16 -9z"/>
<path d="M4455 5860 c-3 -5 -1 -10 4 -10 6 0 11 5 11 10 0 6 -2 10 -4 10 -3 0
-8 -4 -11 -10z"/>
<path d="M261 5823 c-1 -17 16 -25 25 -12 4 7 3 9 -4 5 -5 -3 -13 0 -15 6 -4
9 -6 10 -6 1z"/>
<path d="M2190 5716 c0 -8 4 -17 9 -20 5 -4 7 3 4 14 -6 23 -13 26 -13 6z"/>
<path d="M4396 5678 c3 -5 10 -6 15 -3 13 9 11 12 -6 12 -8 0 -12 -4 -9 -9z"/>
<path d="M4635 5546 c0 -102 3 -121 16 -124 12 -2 15 5 13 35 -1 21 -3 40 -4
43 -1 3 -1 10 0 15 2 6 4 38 5 73 2 54 0 62 -14 57 -12 -4 -11 -1 3 9 18 15
18 15 -1 14 -17 -2 -18 -11 -18 -122z m20 34 c-1 -33 -4 -62 -6 -65 -5 -4 -4
113 0 123 5 12 7 -7 6 -58z m1 -114 c-2 -38 -12 -39 -12 -1 0 18 3 32 7 30 3
-3 5 -15 5 -29z"/>
<path d="M10525 5462 c0 -19 6 -37 13 -39 15 -6 16 19 0 35 -9 9 -9 12 0 12
16 0 15 17 -1 23 -8 3 -12 -6 -12 -31z"/>
<path d="M4653 5395 c0 -8 4 -12 9 -9 5 3 6 10 3 15 -9 13 -12 11 -12 -6z"/>
<path d="M10530 5400 c0 -5 5 -10 11 -10 5 0 7 5 4 10 -3 6 -8 10 -11 10 -2 0
-4 -4 -4 -10z"/>
<path d="M2438 5383 c7 -3 16 -2 19 1 4 3 -2 6 -13 5 -11 0 -14 -3 -6 -6z"/>
<path d="M4686 5265 c4 -8 11 -15 16 -15 6 0 5 6 -2 15 -7 8 -14 15 -16 15 -2
0 -1 -7 2 -15z"/>
<path d="M4441 5204 c0 -11 3 -14 6 -6 3 7 2 16 -1 19 -3 4 -6 -2 -5 -13z"/>
<path d="M2230 5200 c0 -5 5 -10 10 -10 6 0 10 5 10 10 0 6 -4 10 -10 10 -5 0
-10 -4 -10 -10z"/>
<path d="M2280 5115 c-7 -9 -8 -15 -2 -15 5 0 12 7 16 15 3 8 4 15 2 15 -2 0
-9 -7 -16 -15z"/>
<path d="M10390 5116 c0 -2 6 -9 14 -15 11 -9 16 -9 22 0 4 8 3 9 -4 5 -7 -4
-12 -2 -12 3 0 6 -4 11 -10 11 -5 0 -10 -2 -10 -4z"/>
<path d="M2558 5093 c7 -3 16 -2 19 1 4 3 -2 6 -13 5 -11 0 -14 -3 -6 -6z"/>
<path d="M2406 4903 c-6 -14 -5 -15 5 -6 7 7 10 15 7 18 -3 3 -9 -2 -12 -12z"/>
<path d="M680 4760 c0 -5 5 -10 10 -10 6 0 10 5 10 10 0 6 -4 10 -10 10 -5 0
-10 -4 -10 -10z"/>
<path d="M2935 4731 c-3 -5 -2 -12 3 -15 5 -3 9 1 9 9 0 17 -3 19 -12 6z"/>
<path d="M5227 4693 c-10 -10 -8 -23 4 -23 5 0 8 4 5 9 -4 5 0 12 6 14 7 3 8
6 2 6 -6 1 -14 -2 -17 -6z"/>
<path d="M855 4651 c-3 -5 -2 -12 3 -15 5 -3 9 1 9 9 0 17 -3 19 -12 6z"/>
<path d="M5270 4649 c0 -5 5 -7 10 -4 6 3 10 8 10 11 0 2 -4 4 -10 4 -5 0 -10
-5 -10 -11z"/>
<path d="M9902 4644 c10 -10 20 -16 22 -13 3 3 -5 11 -17 18 -21 13 -21 12 -5
-5z"/>
<path d="M4910 4620 c0 -5 5 -10 11 -10 5 0 7 5 4 10 -3 6 -8 10 -11 10 -2 0
-4 -4 -4 -10z"/>
<path d="M5340 4600 c0 -5 5 -10 11 -10 5 0 7 5 4 10 -3 6 -8 10 -11 10 -2 0
-4 -4 -4 -10z"/>
<path d="M1017 4557 c-3 -8 1 -14 9 -14 16 0 19 13 5 21 -5 3 -11 0 -14 -7z"/>
<path d="M1194 4481 c4 -5 1 -12 -4 -14 -6 -3 -5 -4 2 -3 15 3 23 26 8 26 -6
0 -9 -4 -6 -9z"/>
<path d="M5595 4480 c-3 -6 1 -7 9 -4 18 7 21 14 7 14 -6 0 -13 -4 -16 -10z"/>
<path d="M2987 4414 c-8 -8 1 -24 12 -24 4 0 8 7 8 15 0 16 -9 20 -20 9z"/>
<path d="M1385 4401 c-3 -5 -2 -12 3 -15 5 -3 9 1 9 9 0 17 -3 19 -12 6z"/>
<path d="M3590 4401 c0 -6 4 -13 10 -16 6 -3 7 1 4 9 -7 18 -14 21 -14 7z"/>
<path d="M5285 4369 c-4 -6 -5 -12 -2 -15 2 -3 7 2 10 11 7 17 1 20 -8 4z"/>
<path d="M1519 4361 c11 -7 11 -9 0 -13 -8 -3 -10 -9 -6 -14 9 -10 28 16 21
28 -3 4 -11 8 -17 8 -8 0 -7 -3 2 -9z"/>
<path d="M3065 4360 c-3 -6 1 -7 9 -4 18 7 21 14 7 14 -6 0 -13 -4 -16 -10z"/>
<path d="M5930 4340 c0 -5 5 -10 11 -10 5 0 7 5 4 10 -3 6 -8 10 -11 10 -2 0
-4 -4 -4 -10z"/>
<path d="M3166 4317 c3 -10 9 -15 12 -12 3 3 0 11 -7 18 -10 9 -11 8 -5 -6z"/>
<path d="M1633 4303 c0 -8 6 -9 19 -2 10 5 18 11 18 12 0 2 -8 3 -18 3 -10 0
-19 -6 -19 -13z"/>
<path d="M3873 4314 c9 -3 15 -10 12 -15 -4 -5 -1 -9 5 -9 19 0 5 25 -16 27
-16 2 -16 1 -1 -3z"/>
<path d="M5523 4240 c3 -16 21 -14 25 2 3 10 2 10 -6 -1 -7 -9 -11 -10 -15 -2
-4 7 -5 8 -4 1z"/>
<path d="M1975 4229 c-4 -6 -5 -12 -2 -15 2 -3 7 2 10 11 7 17 1 20 -8 4z"/>
<path d="M8777 4233 c-4 -3 -7 -11 -7 -17 0 -6 5 -5 12 2 6 6 9 14 7 17 -3 3
-9 2 -12 -2z"/>
<path d="M3455 4199 c-4 -6 -5 -12 -2 -15 2 -3 7 2 10 11 7 17 1 20 -8 4z"/>
<path d="M6595 4191 c-3 -5 -2 -12 3 -15 5 -3 9 1 9 9 0 17 -3 19 -12 6z"/>
<path d="M6627 4183 c3 -7 6 -13 8 -13 2 0 5 6 8 13 3 8 -1 14 -8 14 -7 0 -11
-6 -8 -14z"/>
<path d="M4640 4140 c-9 -6 -10 -10 -3 -10 6 0 15 5 18 10 8 12 4 12 -15 0z"/>
<path d="M8318 4143 c7 -3 16 -2 19 1 4 3 -2 6 -13 5 -11 0 -14 -3 -6 -6z"/>
<path d="M3029 4103 c-13 -16 -12 -17 4 -4 16 13 21 21 13 21 -2 0 -10 -8 -17
-17z"/>
<path d="M3149 4103 c-13 -16 -12 -17 4 -4 16 13 21 21 13 21 -2 0 -10 -8 -17
-17z"/>
<path d="M7749 4103 c-13 -16 -12 -17 4 -4 16 13 21 21 13 21 -2 0 -10 -8 -17
-17z"/>
<path d="M2895 4100 c-3 -5 -1 -10 4 -10 6 0 11 5 11 10 0 6 -2 10 -4 10 -3 0
-8 -4 -11 -10z"/>
<path d="M5580 4106 c0 -2 8 -10 18 -17 15 -13 16 -12 3 4 -13 16 -21 21 -21
13z"/>
<path d="M7833 4095 c0 -8 4 -12 9 -9 5 3 6 10 3 15 -9 13 -12 11 -12 -6z"/>
</g>
</svg>
