<svg xmlns="http://www.w3.org/2000/svg" viewBox="0 0 30 30" width="40" height="40"><path fill="#fff" d="M5.5 27.5L5.5 2.5 18.8 2.5 24.5 8.2 24.5 27.5z"/><path fill="#c74343" d="M18.6,3L24,8.4V27H6V3H18.6 M19,2H5v26h20V8L19,2L19,2z"/><path fill="#ffd9d9" d="M18.5 8.5L18.5 2.5 18.8 2.5 24.5 8.2 24.5 8.5z"/><path fill="#c74343" d="M19 3.4L23.6 8H19V3.4M19 2h-1v7h7V8L19 2 19 2zM10 23c-.5 0-1-.4-1-.9 0-1.1 1.4-1.9 3.1-2.5.3-.5.6-1.1.9-1.8.4-.9.7-1.7.9-2.4-.4-1.1-.6-2.1-.6-2.8 0-.4.1-.8.2-1 .4-.7 1.4-.7 1.8 0 .1.2.2.6.2 1 0 .7-.2 1.7-.5 2.8.5 1.2 1.2 2.4 2 3.3 1.4-.1 2.4-.1 3 .2.9.3 1 .8 1 1.1 0 .3-.1 1.2-1.5 1.2-1.1 0-2.1-.6-2.9-1.4-.8.1-1.7.2-2.7.5-.4.1-.8.2-1.1.3C11.9 21.9 10.9 23 10 23zM11.1 21.1c-.7.4-1 .7-1.1.9C10.3 21.9 10.7 21.6 11.1 21.1zM18 19.5c.5.3 1 .5 1.5.5.5 0 .5-.1.5-.2h.5l-.5 0C19.9 19.6 19.1 19.5 18 19.5zM14.5 16.7c-.3.8-.7 1.7-1.1 2.5.8-.2 1.6-.4 2.3-.5C15.3 18.1 14.9 17.4 14.5 16.7zM14.4 12c-.1.1-.2.5 0 1.5C14.6 12.6 14.6 12.1 14.4 12z"/></svg>