<svg xmlns="http://www.w3.org/2000/svg" width="156.67" height="63" viewBox="0 0 156.67 63"><g transform="translate(0 0.015)" opacity="0.4"><path d="M69.33,15.3v15.59a17.369,17.369,0,0,1-.559,4.614,7.462,7.462,0,0,1-1.818,3.146,7.386,7.386,0,0,1-3.286,1.888,20.685,20.685,0,0,1-5.034.629A15.032,15.032,0,0,1,53.67,40.4a8.926,8.926,0,0,1-3.426-2.027,3.729,3.729,0,0,1-1.188-2.517,2.025,2.025,0,0,1,.7-1.608,2.333,2.333,0,0,1,1.608-.629,2.549,2.549,0,0,1,2.027,1.049l.909,1.049a4.705,4.705,0,0,0,1.049.979,3.182,3.182,0,0,0,1.328.559,7.62,7.62,0,0,0,1.818.21,7.112,7.112,0,0,0,3.216-.559A3.579,3.579,0,0,0,63.317,35.3a8.082,8.082,0,0,0,.559-2.237c.07-.769.07-2.1.14-3.845a10.4,10.4,0,0,1-2.866,2.657,8.2,8.2,0,0,1-3.845.909,8.555,8.555,0,0,1-4.684-1.4,8.686,8.686,0,0,1-3.076-3.845A13.472,13.472,0,0,1,48.5,21.805a15.12,15.12,0,0,1,.629-4.334,10.311,10.311,0,0,1,1.888-3.286,8.977,8.977,0,0,1,2.8-2.027,8.674,8.674,0,0,1,3.5-.7,9.153,9.153,0,0,1,3.915.839A9.622,9.622,0,0,1,64.3,15.024v-.7a3.113,3.113,0,0,1,.7-2.167,2.383,2.383,0,0,1,1.748-.769,1.977,1.977,0,0,1,2.027.979,5.8,5.8,0,0,1,.489,2.866M53.74,21.945a7.2,7.2,0,0,0,1.4,4.894,4.647,4.647,0,0,0,3.705,1.678,5.233,5.233,0,0,0,2.517-.7,4.909,4.909,0,0,0,1.957-2.167,8.754,8.754,0,0,0,.769-3.5,7.821,7.821,0,0,0-1.468-5.1,4.815,4.815,0,0,0-7.48-.07,8.372,8.372,0,0,0-1.4,4.964" transform="translate(-14.59 -3.423)" fill="#3d3a3a"/><path d="M118.008,22.3a11.7,11.7,0,0,1-.769,4.4,9.508,9.508,0,0,1-2.167,3.5,9.747,9.747,0,0,1-3.356,2.237,13,13,0,0,1-8.809,0A9.525,9.525,0,0,1,97.384,26.7a13.791,13.791,0,0,1,0-8.879,9.728,9.728,0,0,1,5.523-5.663,12.725,12.725,0,0,1,8.809,0,10.022,10.022,0,0,1,3.426,2.237,9.833,9.833,0,0,1,2.167,3.426,13.922,13.922,0,0,1,.7,4.474m-5.383,0a7.82,7.82,0,0,0-1.468-5.1,4.638,4.638,0,0,0-3.845-1.818,5.042,5.042,0,0,0-2.8.839,5.446,5.446,0,0,0-1.818,2.377,11.224,11.224,0,0,0,0,7.411,5.263,5.263,0,0,0,1.818,2.447,5.042,5.042,0,0,0,2.8.839,4.55,4.55,0,0,0,3.845-1.818,8.132,8.132,0,0,0,1.468-5.173" transform="translate(-29.081 -3.427)" fill="#3d3a3a"/><path d="M161.54,26.7v-.559a14.383,14.383,0,0,1-2.1,2.027,9.009,9.009,0,0,1-2.307,1.188,8.451,8.451,0,0,1-2.657.419,7.866,7.866,0,0,1-3.565-.839,8.368,8.368,0,0,1-2.866-2.307,9.588,9.588,0,0,1-1.818-3.565,15.6,15.6,0,0,1-.629-4.4,11.666,11.666,0,0,1,2.447-7.83A9.175,9.175,0,0,1,158.324,8.8a10.576,10.576,0,0,1,3.076,2.447v-7.9a4,4,0,0,1,.629-2.517A2.117,2.117,0,0,1,163.917,0,2.216,2.216,0,0,1,165.8.764a3.315,3.315,0,0,1,.629,2.307V26.7a3.361,3.361,0,0,1-.7,2.307,2.533,2.533,0,0,1-3.635,0,3.367,3.367,0,0,1-.559-2.307m-10.626-7.9a9.689,9.689,0,0,0,.7,3.705,5.048,5.048,0,0,0,1.888,2.307,4.735,4.735,0,0,0,5.173,0,5.333,5.333,0,0,0,1.888-2.237,8.838,8.838,0,0,0,.7-3.775,9.689,9.689,0,0,0-.7-3.705,5.38,5.38,0,0,0-1.957-2.377,4.393,4.393,0,0,0-2.587-.839,4.6,4.6,0,0,0-2.657.839,5.446,5.446,0,0,0-1.818,2.377,8.816,8.816,0,0,0-.629,3.705" transform="translate(-43.81 0)" fill="#3d3a3a"/><path d="M209.281,30.041a14.562,14.562,0,0,1-3.775,2.237,11.59,11.59,0,0,1-4.055.769,8.158,8.158,0,0,1-3.635-.839,5.637,5.637,0,0,1-2.377-2.237A5.8,5.8,0,0,1,196,23.19a7,7,0,0,1,3.845-2.1l2.517-.559c1.328-.28,2.517-.489,3.5-.769s2.027-.489,3.146-.839a6.238,6.238,0,0,0-.839-3.146c-.489-.629-1.538-.979-3.146-.979a6.688,6.688,0,0,0-3.076.559,5.023,5.023,0,0,0-1.748,1.678,10.413,10.413,0,0,1-1.049,1.468,1.752,1.752,0,0,1-1.328.35,2.443,2.443,0,0,1-1.538-.559,1.7,1.7,0,0,1-.629-1.468,4.343,4.343,0,0,1,.979-2.727,7.1,7.1,0,0,1,3.146-2.167,13.531,13.531,0,0,1,5.243-.839,14.74,14.74,0,0,1,5.523.839,5.094,5.094,0,0,1,2.866,2.657,11.345,11.345,0,0,1,.839,4.824V25.5a12.279,12.279,0,0,0,.489,3.146,11.378,11.378,0,0,1,.489,2.1,1.954,1.954,0,0,1-.769,1.538,2.758,2.758,0,0,1-1.748.7,2.09,2.09,0,0,1-1.608-.769,6.156,6.156,0,0,1-1.818-2.167m-.35-7.69a27.381,27.381,0,0,1-3.426.909c-1.468.35-2.517.559-3.146.7a3.943,3.943,0,0,0-1.678.909,2.087,2.087,0,0,0-.769,1.818,2.832,2.832,0,0,0,.979,2.1,3.487,3.487,0,0,0,2.447.839,5.8,5.8,0,0,0,2.866-.7,5.411,5.411,0,0,0,1.957-1.818,7.918,7.918,0,0,0,.7-3.985l.07-.769Z" transform="translate(-58.554 -3.34)" fill="#3d3a3a"/><path d="M14.681,30.011a15.823,15.823,0,0,1-3.775,2.237,11.59,11.59,0,0,1-4.055.769,8.158,8.158,0,0,1-3.635-.839A5.637,5.637,0,0,1,.839,29.941,5.8,5.8,0,0,1,1.4,23.16a7,7,0,0,1,3.845-2.1L7.76,20.5c1.328-.28,2.517-.489,3.5-.769q1.468-.315,3.146-.839a6.238,6.238,0,0,0-.839-3.146c-.489-.629-1.538-.979-3.146-.979a6.688,6.688,0,0,0-3.076.559,5.023,5.023,0,0,0-1.748,1.678,10.413,10.413,0,0,1-1.049,1.468,1.752,1.752,0,0,1-1.328.35,2.443,2.443,0,0,1-1.538-.559A1.7,1.7,0,0,1,1.049,16.8a4.343,4.343,0,0,1,.979-2.727,6.908,6.908,0,0,1,3.216-2.237A13.672,13.672,0,0,1,10.556,11a14.739,14.739,0,0,1,5.523.839,5.094,5.094,0,0,1,2.866,2.657,11.346,11.346,0,0,1,.839,4.824V25.4a12.279,12.279,0,0,0,.489,3.146,11.379,11.379,0,0,1,.489,2.1,2.061,2.061,0,0,1-.769,1.538,2.758,2.758,0,0,1-1.748.7,2.09,2.09,0,0,1-1.608-.769,12.463,12.463,0,0,1-1.678-2.237m-.489-7.55a27.38,27.38,0,0,1-3.426.909c-1.468.35-2.517.559-3.146.7a3.943,3.943,0,0,0-1.678.909,2.087,2.087,0,0,0-.769,1.818,2.832,2.832,0,0,0,.979,2.1,3.487,3.487,0,0,0,2.447.839,5.8,5.8,0,0,0,2.866-.7A4.492,4.492,0,0,0,13.7,27.075a7.918,7.918,0,0,0,.7-3.985l.07-.769Z" transform="translate(0 -3.31)" fill="#3d3a3a"/><circle cx="10.277" cy="10.277" r="10.277" transform="translate(0 42.431)" fill="#3d3a3a"/><circle cx="10.277" cy="10.277" r="10.277" transform="translate(33.977 42.431)" fill="#3d3a3a"/><circle cx="10.277" cy="10.277" r="10.277" transform="translate(68.023 42.431)" fill="#3d3a3a"/><circle cx="10.277" cy="10.277" r="10.277" transform="translate(101.999 42.431)" fill="#3d3a3a"/><circle cx="10.277" cy="10.277" r="10.277" transform="translate(136.046 42.431)" fill="#3d3a3a"/></g></svg>