<svg xmlns="http://www.w3.org/2000/svg" width="192.242" height="65.438" viewBox="0 0 192.242 65.438"><path d="M101.31,16.441a3.918,3.918,0,1,1-7.807,0,4.045,4.045,0,0,1,3.9-4.258A4.127,4.127,0,0,1,101.31,16.441ZM85.215,25.022V26.07a7.29,7.29,0,0,0-5.825-2.62c-6.546,0-11.651,5.437-11.651,12.97,0,7.467,5.045,12.97,11.651,12.97A7.1,7.1,0,0,0,85.215,46.7v1.114a.861.861,0,0,0,.841.917h4.864V24.105H86.056A.9.9,0,0,0,85.215,25.022Zm0,15.786a5.837,5.837,0,0,1-4.864,2.686c-3.844,0-6.786-2.62-6.786-7.074s2.943-7.074,6.786-7.074a6,6,0,0,1,4.864,2.686Zm9.309-16.7h5.765V48.734H94.524Zm86.119-.655a7.29,7.29,0,0,0-5.825,2.62V12.249h-5.765V48.734h4.865a.9.9,0,0,0,.841-.917V46.7h0a7.239,7.239,0,0,0,5.825,2.686c6.546,0,11.651-5.5,11.651-12.97S187.129,23.45,180.643,23.45Zm-.961,19.979a5.754,5.754,0,0,1-4.864-2.686V31.966a6.365,6.365,0,0,1,4.864-2.686c3.844,0,6.786,2.62,6.786,7.074S183.526,43.429,179.682,43.429Zm-13.633-9.3V48.8h-5.765V34.848c0-4.061-1.2-5.7-4.444-5.7a6.249,6.249,0,0,0-4.684,2.424V48.734h-5.765V24.105h4.564a.9.9,0,0,1,.841.917V26.07a7.914,7.914,0,0,1,6.126-2.62,8.876,8.876,0,0,1,6.306,2.358C165.269,27.642,166.05,30,166.05,34.127ZM131.4,23.45a7.29,7.29,0,0,0-5.825,2.62V12.249h-5.765V48.734h4.864a.9.9,0,0,0,.841-.917V46.7h0a7.239,7.239,0,0,0,5.825,2.686c6.546,0,11.651-5.5,11.651-12.97C143.049,28.952,137.944,23.45,131.4,23.45Zm-.961,19.979a5.754,5.754,0,0,1-4.864-2.686V31.966a6.365,6.365,0,0,1,4.864-2.686c3.844,0,6.786,2.62,6.786,7.074S134.281,43.429,130.437,43.429ZM114.823,23.45a8.482,8.482,0,0,1,2.642.328v5.83s-4.8-1.769-7.807,1.965V48.8h-5.765V24.105h4.864a.9.9,0,0,1,.841.917V26.07A7.625,7.625,0,0,1,114.823,23.45ZM54.947,46.507c-.3-.786-.6-1.638-.9-2.358-.48-1.179-.961-2.293-1.381-3.341l-.06-.065c-4.144-9.825-8.588-19.782-13.272-29.607l-.18-.393c-.48-.983-.961-2.031-1.441-3.079a19.082,19.082,0,0,0-2.162-3.6A9.429,9.429,0,0,0,27.922,0a9.767,9.767,0,0,0-7.687,3.93,22.885,22.885,0,0,0-2.162,3.6c-.48,1.048-.961,2.1-1.441,3.079l-.18.393C11.828,20.83,7.323,30.787,3.18,40.612l-.06.131c-.42,1.048-.9,2.162-1.381,3.341q-.45,1.081-.9,2.358a15.966,15.966,0,0,0-.721,7.074A13.774,13.774,0,0,0,7.924,64.39a11.448,11.448,0,0,0,4.864,1.048,12.551,12.551,0,0,0,1.561-.131,14.994,14.994,0,0,0,6.006-2.227A31.189,31.189,0,0,0,27.8,56.267a32.362,32.362,0,0,0,7.447,6.812,14.994,14.994,0,0,0,6.006,2.227,12.551,12.551,0,0,0,1.561.131,11.258,11.258,0,0,0,4.864-1.048,13.749,13.749,0,0,0,7.807-10.874A13.432,13.432,0,0,0,54.947,46.507ZM27.862,49.914c-3.243-4.454-5.345-8.646-6.066-12.184a11.5,11.5,0,0,1-.18-4,6.709,6.709,0,0,1,.961-2.751A6.222,6.222,0,0,1,27.862,28.1a6,6,0,0,1,5.285,2.882,6.709,6.709,0,0,1,.961,2.751,11.447,11.447,0,0,1-.18,4C33.207,41.2,31.105,45.394,27.862,49.914Zm23.962,3.079a9.64,9.64,0,0,1-5.465,7.664,8.4,8.4,0,0,1-4.564.655,11.163,11.163,0,0,1-4.564-1.7,28.8,28.8,0,0,1-6.846-6.354c3.964-5.306,6.366-10.153,7.267-14.476a17.874,17.874,0,0,0,.3-5.568,11.2,11.2,0,0,0-1.621-4.454,9.878,9.878,0,0,0-8.468-4.651,10.028,10.028,0,0,0-8.468,4.651,11.2,11.2,0,0,0-1.621,4.454,14.8,14.8,0,0,0,.3,5.568c.9,4.323,3.363,9.236,7.267,14.542a27.713,27.713,0,0,1-6.846,6.354,11.163,11.163,0,0,1-4.564,1.7,8.875,8.875,0,0,1-4.564-.655A9.64,9.64,0,0,1,3.9,53.058a11.766,11.766,0,0,1,.54-5.109c.18-.655.48-1.31.781-2.1.42-1.048.9-2.162,1.381-3.275l.06-.131c4.144-9.76,8.588-19.716,13.212-29.411l.18-.393c.48-.983.961-2.031,1.441-3.013a14.618,14.618,0,0,1,1.682-2.882,5.974,5.974,0,0,1,9.609,0,14.618,14.618,0,0,1,1.682,2.882c.48.983.961,2.031,1.441,3.013l.18.393C40.654,22.8,45.1,32.752,49.242,42.512v.066c.48,1.048.9,2.227,1.381,3.275.3.786.6,1.441.781,2.1A12.023,12.023,0,0,1,51.824,52.992Z" transform="translate(0.008)" opacity="0.4"/></svg>