<svg xmlns="http://www.w3.org/2000/svg" width="242.727" height="40.382" viewBox="0 0 242.727 40.382"><g transform="translate(-41.274 -420.317)" opacity="0.41" style="isolation:isolate"><path d="M237.394,424.016a3.689,3.689,0,1,1,3.682,3.7,3.69,3.69,0,0,1-3.682-3.7" transform="translate(-100.913 0)"/><path d="M357.295,474.69a3.688,3.688,0,1,1,3.681,3.7,3.691,3.691,0,0,1-3.681-3.7" transform="translate(-162.608 -26.073)"/><path d="M100.379,456.62c-3.177,0-5.385-2.523-5.385-6.129s2.208-6.126,5.385-6.126c3.2,0,5.428,2.522,5.428,6.126C105.807,454.154,103.621,456.62,100.379,456.62Zm0-17.642a11.513,11.513,0,1,0,0,23.025c6.747,0,11.645-4.842,11.645-11.512a11.2,11.2,0,0,0-11.645-11.513" transform="translate(-24.444 -9.602)"/><path d="M207.208,442.486a5.488,5.488,0,0,0-.88-1.238l-.2-.216.214-.205a9.216,9.216,0,0,0,.928-1.158l5.932-8.818H206l-4.457,6.9a1.738,1.738,0,0,1-1.524.557H199V425.265c0-2.608-1.625-2.963-3.38-2.963h-3.005l.005,30.782H199V443.85h.6c.727,0,1.223.084,1.45.479l3.52,6.644c.983,1.8,1.963,2.111,3.806,2.111h4.89l-3.642-6.024-2.415-4.573" transform="translate(-77.872 -1.021)"/><path d="M272.62,438.877a8.68,8.68,0,0,0-6.477,2.661l-.387.392-.137-.533c-.341-1.306-1.49-2.025-3.219-2.025h-2.86l.018,22.232H265.9V451.358a8.3,8.3,0,0,1,.4-2.664,5.211,5.211,0,0,1,5.133-3.893c1.978,0,2.751,1.044,2.751,3.742v9.683c0,2.3,1.065,3.38,3.369,3.38h3.016l-.01-14.14c0-5.618-2.74-8.588-7.927-8.588" transform="translate(-112.308 -9.55)"/><path d="M241.968,439.917h-3l.021,17.19h0v5.038h3.206c.04,0,.073,0,.113,0l1.493,0h1.486v-.009h.01l.013-18.844c0-2.274-1.087-3.375-3.335-3.375" transform="translate(-101.721 -10.085)"/><path d="M151.647,456.62c-3.177,0-5.389-2.523-5.389-6.129s2.212-6.126,5.389-6.126,5.427,2.522,5.427,6.126C157.074,454.154,154.889,456.62,151.647,456.62Zm0-17.642a11.513,11.513,0,1,0,11.646,11.513,11.181,11.181,0,0,0-11.646-11.513" transform="translate(-50.819 -9.602)"/><path d="M431.468,456.62c-3.176,0-5.389-2.523-5.389-6.129s2.214-6.126,5.389-6.126,5.429,2.522,5.429,6.126C436.9,454.154,434.711,456.62,431.468,456.62Zm0-17.642a11.513,11.513,0,1,0,11.646,11.513,11.18,11.18,0,0,0-11.646-11.513" transform="translate(-194.802 -9.602)"/><path d="M318.513,455.537c-3.465,0-4.7-3.023-4.7-5.856,0-1.248.315-5.316,4.365-5.316,2.012,0,4.694.577,4.694,5.525,0,4.667-2.373,5.646-4.361,5.646Zm7.652-16.268a2.75,2.75,0,0,0-2.592,1.355l-.175.34-.294-.255a8.627,8.627,0,0,0-5.835-1.935c-5.926,0-9.915,4.451-9.915,11.074s4.128,11.239,10.035,11.239a7.791,7.791,0,0,0,4.876-1.428l.489-.367v.618c0,2.969-1.92,4.608-5.4,4.608a12.809,12.809,0,0,1-4.261-.785,1.884,1.884,0,0,0-2.678,1.279l-.5,1.245-.712,1.818.441.235a17.308,17.308,0,0,0,7.75,1.888c5.4,0,11.7-2.763,11.7-10.537l.023-20.39h-2.944" transform="translate(-136.91 -9.497)"/><path d="M52.334,447.8l-5.159-.005v-6.168c0-1.318.511-2,1.641-2.161h3.518a4.167,4.167,0,0,1,0,8.334Zm-5.159-16.638v-1.623c0-1.421.6-2.1,1.92-2.183h2.64a3.329,3.329,0,0,1,3.62,3.622,3.435,3.435,0,0,1-3.537,3.745H47.175v-3.56Zm11.747,6.155-.933-.524.814-.7a7.447,7.447,0,0,0,2.534-5.807c0-4.838-3.753-7.961-9.561-7.961H45.148v0h-.755a3.235,3.235,0,0,0-3.119,3.2v27.462h3.042c.008,0,.01,0,.013,0l7.579,0c6.457,0,10.624-3.515,10.624-8.958a7.48,7.48,0,0,0-3.611-6.711" transform="translate(0 -1.033)"/><path d="M498.434,439.025a8.737,8.737,0,0,0-6.8,3.3l-.459.582-.36-.651c-1.174-2.14-3.194-3.227-6-3.227a8.042,8.042,0,0,0-5.839,2.621l-.6.65-.231-.855c-.335-1.231-1.431-1.91-3.092-1.91h-2.664l-.026,22.146h6.052V451.9a10.886,10.886,0,0,1,.321-2.59c.579-2.362,2.166-4.9,4.835-4.649,1.646.158,2.45,1.43,2.45,3.886v13.128h6.095V451.9a8.893,8.893,0,0,1,.341-2.675c.491-2.255,2.148-4.567,4.723-4.567,1.863,0,2.552,1.055,2.552,3.89v9.891c0,2.238,1,3.238,3.234,3.238h2.849l.005-14.138c0-5.648-2.487-8.514-7.38-8.514" transform="translate(-221.812 -9.626)"/><path d="M393.08,453.988a9.354,9.354,0,0,1-6.051,2.768c-3.124,0-6.28-1.917-6.28-6.2,0-3.694,2.447-6.276,5.95-6.276,1.138,0,2.431.408,2.634,1.093l.03.116a2.225,2.225,0,0,0,2.156,1.637l3.316,0v-2.9c0-3.823-4.863-5.21-8.135-5.21-7,0-12.075,4.872-12.075,11.582s5.022,11.572,11.947,11.572a12.555,12.555,0,0,0,9.306-3.989l.174-.214-2.626-4.356-.345.368" transform="translate(-171.524 -9.626)"/></g></svg>