<svg xmlns="http://www.w3.org/2000/svg" width="680.172" height="121.668" viewBox="0 0 680.172 121.668">
  <g id="clouds" transform="translate(-214.456 -192.973)">
    <path id="cloud-1" d="M211.675,216.483a12.473,12.473,0,0,0-20.752-11.544,8.369,8.369,0,0,0-12.993,4.077,12.476,12.476,0,0,0-20.608,12.935c-.253-.024-.512-.04-.772-.04a8.387,8.387,0,1,0,2.687,16.328,9.818,9.818,0,0,0,16.615,4.278,8.375,8.375,0,0,0,14.291,1.017,8.37,8.37,0,0,0,12.695-5.148,12.475,12.475,0,1,0,8.837-21.9Z" transform="translate(66.794 65.401)" fill="none" stroke="#0081b2" stroke-width="1"/>
    <path id="Path_448" data-name="Path 448" d="M395.632,149.408a5.673,5.673,0,0,0-9.439-5.251,3.805,3.805,0,0,0-5.909,1.854,5.674,5.674,0,0,0-9.372,5.883c-.115-.01-.233-.017-.35-.017a3.815,3.815,0,1,0,1.222,7.425,4.464,4.464,0,0,0,7.556,1.945,3.809,3.809,0,0,0,6.5.464,3.807,3.807,0,0,0,5.774-2.343,5.673,5.673,0,1,0,4.019-9.96Z" transform="translate(120.765 50.846)" fill="none" stroke="#0081b2" stroke-width="1"/>
    <path id="Path_449" data-name="Path 449" d="M631.39,231.943a15.772,15.772,0,0,0,26.242,14.6,10.582,10.582,0,0,0,16.427-5.156,15.775,15.775,0,0,0,26.058-16.356c.319.027.647.049.975.049a10.606,10.606,0,1,0-3.4-20.646,12.417,12.417,0,0,0-21.009-5.412,10.595,10.595,0,0,0-18.074-1.284,10.584,10.584,0,0,0-16.051,6.51,15.774,15.774,0,1,0-11.171,27.7Z" transform="translate(182.429 63.348)" fill="none" stroke="#0081b2" stroke-width="1"/>
    <path id="Path_450" data-name="Path 450" d="M476.325,183.2A13.117,13.117,0,0,0,454.5,171.055a8.8,8.8,0,0,0-13.662,4.289,13.12,13.12,0,0,0-21.671,13.6c-.267-.024-.539-.041-.812-.041a8.82,8.82,0,1,0,2.826,17.17,10.323,10.323,0,0,0,17.472,4.5,8.806,8.806,0,0,0,15.028,1.07,8.8,8.8,0,0,0,13.351-5.414,13.118,13.118,0,1,0,9.292-23.034Z" transform="translate(131.331 56.992)" fill="none" stroke="#0081b2" stroke-width="1"/>
  </g>
</svg>
