<svg xmlns="http://www.w3.org/2000/svg" width="103.655" height="102.949" viewBox="0 0 103.655 102.949"><path d="M103.717,56.181c0,3.778-11.076,9.057-29.108,9.057a78.065,78.065,0,0,1-12.535-.973,5.941,5.941,0,0,0,.138-1.07V52.881a82.139,82.139,0,0,0,12.4.916c11.287,0,23.059-2.278,29.108-6.584ZM58.06,63.194c0,3.762-11.035,9.024-29,9.024S.062,66.965.062,63.194V54.275c6.032,4.289,17.749,6.552,28.995,6.552s22.962-2.262,29-6.552Zm-58,6.616C6.1,74.1,17.819,76.37,29.057,76.37s22.962-2.27,29-6.56V78.73c0,3.77-11.035,9.024-29,9.024S.062,82.5.062,78.73ZM103.717,25c0,3.778-11.076,9.057-29.108,9.057S45.5,28.775,45.5,25V16.029c6.049,4.305,17.814,6.584,29.108,6.584s23.059-2.278,29.108-6.584ZM74.609.34c18.033,0,29.108,5.278,29.108,9.057s-11.076,9.065-29.108,9.065S45.5,13.183,45.5,9.4,56.568.34,74.609.34ZM45.5,31.613C51.549,35.927,63.314,38.2,74.609,38.2s23.059-2.278,29.108-6.592v8.976c0,3.778-11.076,9.057-29.108,9.057a79.567,79.567,0,0,1-12.527-.981,5.87,5.87,0,0,0,.13-1.005c0-5.562-7.241-9.446-16.711-11.5ZM29.057,38.635c17.968,0,29,5.254,29,9.024s-11.035,9.016-29,9.016S.062,51.421.062,47.659,11.1,38.635,29.057,38.635Zm0,64.654C11.1,103.289.062,98.035.062,94.265V85.346c6.032,4.289,17.749,6.559,28.995,6.559s22.962-2.27,29-6.559v8.919C58.06,98.035,47.025,103.289,29.057,103.289ZM74.609,80.83a78.687,78.687,0,0,1-12.543-.973,5.786,5.786,0,0,0,.146-1.127V68.481a83.014,83.014,0,0,0,12.4.908c11.287,0,23.059-2.278,29.108-6.584v8.968C103.717,75.551,92.642,80.83,74.609,80.83Z" transform="translate(-0.063 -0.34)" fill="#0275d8"/></svg>