<svg xmlns="http://www.w3.org/2000/svg" width="296.234" height="83.854" viewBox="0 0 296.234 83.854"><g transform="translate(-20.651 -237.446)" opacity="0.46"><path d="M275.531,340.78h-9.182c-.049,0-.049,0-.1-.049l-7.948-9.676-7.948,9.676c0,.049-.049.049-.1.049H242.9c-.049,0-.1,0-.1-.049v-.1l11.7-14.317L242.948,312.1a.093.093,0,0,1,0-.148c0-.049.049-.049.1-.049h9.232a.153.153,0,0,1,.1.049l6.961,8.639,7.06-8.639c0-.049.049-.049.1-.049H274a.173.173,0,0,1,.1.049v.148L263.14,325.18l12.49,15.4c.049.049.049.1,0,.1a.106.106,0,0,1-.1.1" transform="translate(-112.478 -37.697)" fill="#3d3a3a"/><path d="M394,315.67c-4.048,0-6.862,2.468-7.652,6.763h13.873v-.3A6.31,6.31,0,0,0,394,315.67m13.379,11.157c-.049.049-.049.049-.1.049H386.2c.444,4.887,3.6,7.7,8.788,7.7,3.16,0,6.566-1.086,11.305-3.6.1-.049.2,0,.2.1v6.467a.172.172,0,0,1-.049.1c-4.443,1.876-8.886,3.16-12.391,3.16-9.084,0-15.65-6.615-15.65-15.7s6.566-15.7,15.65-15.7c8.294,0,13.576,5.579,13.576,13.231-.049,1.234-.247,4.147-.247,4.2" transform="translate(-181.135 -36.432)" fill="#3d3a3a"/><path d="M518.89,290.131a4.668,4.668,0,0,1-4.69-4.591,4.69,4.69,0,1,1,9.38,0,4.668,4.668,0,0,1-4.69,4.591m-3.8,34.9c-.1,0-.1-.049-.1-.1V296.2a.106.106,0,0,1,.1-.1h7.6a.106.106,0,0,1,.1.1v28.683a.106.106,0,0,1-.1.1h-7.6Z" transform="translate(-249.893 -21.951)" fill="#3d3a3a"/><path d="M324.845,335.17a16.3,16.3,0,0,1-4.394-.642V316.114a17.066,17.066,0,0,1,5.184-.889c5.282,0,8.788,3.9,8.788,9.676,0,6.27-3.752,10.269-9.577,10.269m2.073-25.77a19.658,19.658,0,0,0-6.566,1.185H312.8a.106.106,0,0,0-.1.1v47.048a17.4,17.4,0,0,0,7.8-3.061V340.354a38.1,38.1,0,0,0,4.887.444c10.367,0,17.081-6.22,17.081-15.847-.049-9.133-6.418-15.551-15.551-15.551" transform="translate(-147.87 -36.432)" fill="#3d3a3a"/><path d="M465.418,315.282a14.05,14.05,0,0,1-6.467,1.827c-4.69,0-7.5-3.308-7.5-8.886,0-6.418,3.6-10.565,9.133-10.565a11.94,11.94,0,0,1,4.838,1.185Zm0-37.421v15.008a21.816,21.816,0,0,0-6.171-.938A15.5,15.5,0,0,0,443.4,307.778c0,8.985,6.023,15.5,14.267,15.5a18.806,18.806,0,0,0,8.689-2.32v2.616a17.006,17.006,0,0,0,6.813-2.913V274.8a16.882,16.882,0,0,0-7.751,3.061" transform="translate(-214.045 -18.913)" fill="#3d3a3a"/><path d="M562.418,332.852a12.116,12.116,0,0,1-6.023,1.975c-5.036,0-8.047-3.308-8.047-8.886,0-6.319,3.555-10.565,8.837-10.565a11.7,11.7,0,0,1,5.233,1.679Zm7.8-22.512c0-.2-.148-.3-.346-.3H563.7a.337.337,0,0,0-.346.346v1.037h-.148a19.1,19.1,0,0,0-7.652-1.827c-8.491,0-15.156,7.06-15.156,16.094,0,9.133,5.974,15.255,14.86,15.255,2.37,0,5.43-.148,8.245-3.456v3.7a17.964,17.964,0,0,0,6.665-2.913Z" transform="translate(-263.158 -36.533)" fill="#3d3a3a"/><path d="M192.146,315.548h19.105a16.9,16.9,0,0,1-2.666,7.158H188.739a4.753,4.753,0,0,1-4.69-4.246c0-.049,0-.049-.049-.1V280.694c0-.049,0-.1.049-.1a4.76,4.76,0,0,1,4.69-4.3H211.2a17.78,17.78,0,0,1-2.666,7.208h-16.39v10.269h16.193c.1,0,.1.049.1.1v7.109a.106.106,0,0,1-.1.1H192.146Z" transform="translate(-82.707 -19.672)" fill="#3d3a3a"/><path d="M148.4,364.461a3.268,3.268,0,1,1,3.011-3.258,3.062,3.062,0,0,1-3.011,3.258m0-6.961a3.654,3.654,0,0,0,0,7.307,3.5,3.5,0,0,0,3.555-3.653A3.562,3.562,0,0,0,148.4,357.5" transform="translate(-62.859 -60.785)" fill="#15375f"/><path d="M149.642,362.427v-1.333h.889c.444,0,.987.049.987.592,0,.642-.494.691-1.037.691h-.839Zm2.567-.592c0-.889-.543-1.234-1.58-1.234H149v4.3h.691v-1.827h.642l1.135,1.827h.79l-1.185-1.876a1.159,1.159,0,0,0,1.135-1.185" transform="translate(-64.986 -62.355)" fill="#15375f"/><path d="M609.8,314.312A3.3,3.3,0,1,1,612.815,311a3.077,3.077,0,0,1-3.011,3.308m0-6.912a3.654,3.654,0,0,0,0,7.307,3.655,3.655,0,0,0,0-7.307" transform="translate(-296.474 -35.419)" fill="#15375f"/><path d="M611.091,312.276v-1.333h.889c.444,0,.987.049.987.592,0,.642-.494.691-1.037.691h-.839Zm2.518-.642c0-.889-.543-1.234-1.58-1.234H610.4v4.3h.691v-1.827h.642l1.135,1.827h.79l-1.185-1.876a1.077,1.077,0,0,0,1.135-1.185" transform="translate(-298.601 -36.938)" fill="#15375f"/><path d="M60.91,263.885l-1.382-3.9-11.75-15.7,2.123-.543,20.241,17.476,11.9-3.406a18.135,18.135,0,0,1,4.2-.444A34.379,34.379,0,0,0,22.65,260.33a34.677,34.677,0,0,0-1.629,16.686l28.535-9.923Z" transform="translate(0 0)" fill="#3d3a3a"/><path d="M88.3,284.1a17.633,17.633,0,0,1-4.1,2.073L72.259,289.58l-8,25.573-2.073.691,1.679-19.55-.938-4.048-11.157,3.16L22.2,302.366A34.37,34.37,0,1,0,88.3,284.1" transform="translate(-0.784 -23.622)" fill="#3d3a3a"/><path d="M62.625,275.031l.938,4.048-1.679,19.55,2.073-.691,7.948-25.573,11.947-3.406a17.63,17.63,0,0,0,4.1-2.073c-.395-1.037-.79-2.073-1.284-3.11a18.136,18.136,0,0,0-4.2.444l-11.9,3.406L50.332,250.1l-2.123.543,11.8,15.7,1.382,3.9-11.256,3.209L21.6,283.374l.3,1.777,29.522-6.912Z" transform="translate(-0.481 -6.407)" fill="#fff"/></g></svg>