<svg xmlns="http://www.w3.org/2000/svg" width="132.599" height="130.175" viewBox="0 0 132.599 130.175"><g transform="translate(0 -1)"><path d="M43.431,53,31,65.431l2.072,6.216h8.287L51.719,61.287Z" transform="translate(33.228 55.737)" fill="#becde8"/><path d="M116.952,19H9.216A6.215,6.215,0,0,0,3,25.216v55.94a6.215,6.215,0,0,0,6.216,6.216H116.952a6.215,6.215,0,0,0,6.216-6.216V25.216A6.215,6.215,0,0,0,116.952,19Z" transform="translate(3.216 19.293)" fill="#cda1a7"/><path d="M121.1,58.431H5.072A2.073,2.073,0,0,1,3,56.359V54.287A8.288,8.288,0,0,1,11.287,46H114.88a8.288,8.288,0,0,1,8.287,8.287v2.072A2.073,2.073,0,0,1,121.1,58.431Z" transform="translate(3.216 48.234)" fill="#c4939c"/><path d="M125.311,8H5.144A4.143,4.143,0,0,0,1,12.144v20.31a8.287,8.287,0,0,0,6.462,8.084L65.228,53.581l57.765-13.044a8.287,8.287,0,0,0,6.462-8.082V12.144A4.143,4.143,0,0,0,125.311,8Z" transform="translate(1.072 7.503)" fill="#cda1a7"/><path d="M5.144,8H125.311a4.143,4.143,0,0,1,4.144,4.144h0a6.215,6.215,0,0,1-6.216,6.216H7.216A6.215,6.215,0,0,1,1,12.144H1A4.143,4.143,0,0,1,5.144,8Z" transform="translate(1.072 7.503)" fill="#dbb2ba"/><path d="M39.359,41.575H31.072A2.073,2.073,0,0,1,29,39.5V27.072A2.073,2.073,0,0,1,31.072,25h8.287a2.073,2.073,0,0,1,2.072,2.072V39.5A2.073,2.073,0,0,1,39.359,41.575Z" transform="translate(31.084 25.725)" fill="#f9e3ae"/><path d="M64.006,31A29.006,29.006,0,1,0,93.012,60.006,29.006,29.006,0,0,0,64.006,31Z" transform="translate(37.515 32.156)" fill="#ffeb97"/><path d="M59.719,35A20.719,20.719,0,1,0,80.437,55.719,20.719,20.719,0,0,0,59.719,35Z" transform="translate(41.802 36.443)" fill="#abdef9"/><path d="M55.431,39A12.431,12.431,0,1,0,67.862,51.431,12.431,12.431,0,0,0,55.431,39Z" transform="translate(46.09 40.731)" fill="#c6edff"/><path d="M49.216,39a6.216,6.216,0,1,0,6.216,6.216A6.216,6.216,0,0,0,49.216,39ZM62.683,55.575a3.108,3.108,0,1,0,3.108,3.108A3.108,3.108,0,0,0,62.683,55.575Z" transform="translate(46.09 40.731)" fill="#f2f2f2"/><path d="M132.6,39.951v-20.3a6.234,6.234,0,0,0-6.216-6.216H90.2L83.757,3.768A6.2,6.2,0,0,0,78.586,1H54.013a6.2,6.2,0,0,0-5.171,2.768L42.4,13.431H6.216A6.234,6.234,0,0,0,0,19.647v20.3a10.206,10.206,0,0,0,4.144,8.287v54.283a6.234,6.234,0,0,0,6.216,6.216H73.383l-8.907,8.888a7.94,7.94,0,0,0,11.229,11.229l9.489-9.51a3.254,3.254,0,0,0,.435-.5,30.707,30.707,0,0,0,15.891,4.392,31.056,31.056,0,0,0,26.934-46.555V48.238A10.206,10.206,0,0,0,132.6,39.951ZM52.29,6.066a2.067,2.067,0,0,1,1.724-.922H78.586a2.067,2.067,0,0,1,1.724.922l4.908,7.365H47.381ZM72.764,125.912a3.78,3.78,0,0,1-5.345-5.345l9.468-9.489a31.316,31.316,0,0,0,5.325,5.408ZM122.758,108.7a26.9,26.9,0,0,1-42.452.041,20.823,20.823,0,0,1-1.637-2.362c-.373-.58-.725-1.181-1.036-1.782a26.336,26.336,0,0,1-2.714-8.287,24.855,24.855,0,0,1-.331-4.144A26.934,26.934,0,1,1,122.758,108.7ZM101.521,61.084A31.116,31.116,0,0,0,70.443,92.162H14.5a2.072,2.072,0,1,0,0,4.144h56.23a29.985,29.985,0,0,0,2.32,8.287H10.359a2.078,2.078,0,0,1-2.072-2.072V50.1l49.725,11.25v3.874a4.156,4.156,0,0,0,4.144,4.144h8.287a4.156,4.156,0,0,0,4.144-4.144V61.353L124.311,50.1V71.07A31,31,0,0,0,101.521,61.084ZM62.156,52.8h8.287V65.228H62.156Zm62.156-6.982a6.989,6.989,0,0,1-.7.207L74.587,57.085V52.8a4.156,4.156,0,0,0-4.144-4.144H62.156A4.156,4.156,0,0,0,58.012,52.8v4.289L8.992,46.021a6.989,6.989,0,0,1-.7-.207,6.172,6.172,0,0,1-4.144-5.863V30.006a2.071,2.071,0,0,0,2.072-2.072V23.79a2.071,2.071,0,0,0-2.072-2.072V19.647a2.078,2.078,0,0,1,2.072-2.072H126.383a2.078,2.078,0,0,1,2.072,2.072v2.072a2.071,2.071,0,0,0-2.072,2.072v4.144a2.071,2.071,0,0,0,2.072,2.072v9.945A6.172,6.172,0,0,1,124.311,45.814Z" transform="translate(0 0)" fill="#8d6c9f"/><path d="M8.072,11A2.071,2.071,0,0,0,6,13.072v4.144a2.072,2.072,0,0,0,4.144,0V13.072A2.071,2.071,0,0,0,8.072,11Zm10.359,0a2.071,2.071,0,0,0-2.072,2.072v4.144a2.072,2.072,0,0,0,4.144,0V13.072A2.071,2.071,0,0,0,18.431,11ZM28.79,11a2.071,2.071,0,0,0-2.072,2.072v4.144a2.072,2.072,0,0,0,4.144,0V13.072A2.071,2.071,0,0,0,28.79,11ZM39.15,11a2.071,2.071,0,0,0-2.072,2.072v4.144a2.072,2.072,0,0,0,4.144,0V13.072A2.071,2.071,0,0,0,39.15,11Zm10.359,0a2.071,2.071,0,0,0-2.072,2.072v4.144a2.072,2.072,0,0,0,4.144,0V13.072A2.071,2.071,0,0,0,49.509,11Zm10.359,0A2.071,2.071,0,0,0,57.8,13.072v4.144a2.072,2.072,0,0,0,4.144,0V13.072A2.071,2.071,0,0,0,59.868,11Zm10.359,0a2.071,2.071,0,0,0-2.072,2.072v4.144a2.072,2.072,0,0,0,4.144,0V13.072A2.071,2.071,0,0,0,70.228,11Zm10.359,0a2.071,2.071,0,0,0-2.072,2.072v4.144a2.072,2.072,0,0,0,4.144,0V13.072A2.071,2.071,0,0,0,80.587,11Zm10.359,0a2.071,2.071,0,0,0-2.072,2.072v4.144a2.072,2.072,0,0,0,4.144,0V13.072A2.071,2.071,0,0,0,90.946,11Zm10.359,0a2.071,2.071,0,0,0-2.072,2.072v4.144a2.072,2.072,0,1,0,4.144,0V13.072A2.071,2.071,0,0,0,101.305,11Zm10.359,0a2.071,2.071,0,0,0-2.072,2.072v4.144a2.072,2.072,0,0,0,4.144,0V13.072A2.071,2.071,0,0,0,111.665,11ZM94.912,58.653a22.612,22.612,0,1,0,22.612,22.612A22.638,22.638,0,0,0,94.912,58.653Zm0,41.081A18.469,18.469,0,1,1,113.38,81.265,18.49,18.49,0,0,1,94.912,99.734Z" transform="translate(6.431 10.719)" fill="#8d6c9f"/><path d="M49.986,37.826a2.072,2.072,0,1,0,0,4.144,10.533,10.533,0,0,1,9.7,6.41,2.071,2.071,0,0,0,1.906,1.258,2.049,2.049,0,0,0,.812-.166A2.071,2.071,0,0,0,63.5,46.754,14.67,14.67,0,0,0,49.986,37.826Z" transform="translate(51.357 39.472)" fill="#8d6c9f"/></g></svg>