<svg xmlns="http://www.w3.org/2000/svg" width="230.237" height="32.031" viewBox="0 0 230.237 32.031"><g transform="translate(-1 -1)" opacity="0.4" style="isolation:isolate"><path d="M29.854,19.248v13.2H21.7V20.607c0-3.3-1.359-4.659-3.688-4.659-2.524,0-4.659,1.553-4.659,5.436V32.449H5.2V1h8.153V11.677a9.689,9.689,0,0,1,6.989-2.524C25.778,9.153,29.854,12.259,29.854,19.248Z" transform="translate(3.953)" fill="#0b0b0c"/><path d="M19,17.042C19,10.053,24.436,5.2,32.007,5.2s13.007,4.853,13.007,11.842S39.578,28.884,32.007,28.884C24.63,28.884,19,24.03,19,17.042Zm17.86,0c0-3.494-2.135-5.436-4.853-5.436s-4.853,1.941-4.853,5.436,2.135,5.436,4.853,5.436S36.86,20.536,36.86,17.042Z" transform="translate(16.943 3.953)" fill="#0b0b0c"/><path d="M61.225,20.73,65.5,25.2c-2.135,2.524-5.436,3.688-9.706,3.688-8.153,0-13.589-5.047-13.589-11.842C42.2,10.053,47.636,5.2,55.012,5.2c6.6,0,12.23,4.271,12.23,11.648l-16.5,3.106c.971,1.941,2.718,2.718,5.241,2.718A7.329,7.329,0,0,0,61.225,20.73ZM50.159,15.877l9.318-1.747a4.285,4.285,0,0,0-4.465-3.106C52.295,10.83,50.353,12.577,50.159,15.877Z" transform="translate(38.781 3.953)" fill="#0b0b0c"/><path d="M90.619,21c0,7.377-5.047,11.842-11.259,11.842-3.106,0-5.241-.777-6.794-2.718v2.33H64.8V1h8.153V11.483a8.657,8.657,0,0,1,6.406-2.33C85.572,9.153,90.619,13.618,90.619,21Zm-8.153,0c0-3.494-2.135-5.436-4.853-5.436S72.759,17.5,72.759,21s2.135,5.436,4.853,5.436S82.466,24.49,82.466,21Z" transform="translate(60.054)" fill="#0b0b0c"/><path d="M98.325,20.73,102.6,25.2c-2.135,2.524-5.436,3.688-9.706,3.688-8.153,0-13.589-5.047-13.589-11.842C79.3,10.053,84.736,5.2,92.112,5.2c6.6,0,12.23,4.271,12.23,11.648l-16.5,3.106c.971,1.941,2.718,2.718,5.241,2.718A7.027,7.027,0,0,0,98.325,20.73ZM87.259,15.877l9.318-1.747a4.285,4.285,0,0,0-4.465-3.106C89.395,10.83,87.453,12.577,87.259,15.877Z" transform="translate(73.703 3.953)" fill="#0b0b0c"/><path d="M119.219,1V32.449h-7.765v-2.33a8.482,8.482,0,0,1-6.795,2.718C98.447,32.837,93.4,28.178,93.4,21c0-7.377,5.047-11.842,11.259-11.842a8.657,8.657,0,0,1,6.406,2.33V1ZM111.26,21c0-3.494-2.135-5.436-4.853-5.436S101.553,17.5,101.553,21s2.135,5.436,4.853,5.436C109.319,26.431,111.26,24.49,111.26,21Z" transform="translate(86.975)" fill="#0b0b0c"/><path d="M108.4,26.46l2.33-5.436a15.738,15.738,0,0,0,7.959,2.135c2.718,0,3.688-.582,3.688-1.553,0-3.106-13.589.388-13.589-8.736,0-4.271,4.077-7.571,11.259-7.571a21.809,21.809,0,0,1,9.124,1.941l-2.33,5.436a12.947,12.947,0,0,0-6.6-1.747c-2.718,0-3.688.777-3.688,1.553,0,3.106,13.589-.194,13.589,8.93,0,4.271-3.883,7.571-11.454,7.571C114.806,28.79,110.73,27.819,108.4,26.46Z" transform="translate(101.094 4.048)" fill="#0b0b0c"/><rect width="8.153" height="8.153" transform="translate(9.153 24.49)" fill="#0b0b0c"/><path d="M47.007,25.848a4.855,4.855,0,0,1-2.524.777c-1.359,0-2.33-.971-2.33-2.718v-8.93h5.241V9.153H42.153V1H34V24.1c0,5.824,3.494,8.736,9.318,8.736a10.1,10.1,0,0,0,5.63-1.359Z" transform="translate(31.062)" fill="#0b0b0c"/><rect width="8.153" height="8.153" transform="translate(1 16.336)" fill="#0b0b0c"/><g transform="translate(109.324 1)"><path d="M56.8,24.1V1h7.959V23.713a2.256,2.256,0,0,0,2.524,2.524,4.636,4.636,0,0,0,1.747-.388l.388,6.018a13.452,13.452,0,0,1-3.883.582C60.1,32.449,56.8,29.537,56.8,24.1Z" transform="translate(-56.8 -1)" fill="#0b0b0c"/></g><path d="M10.9,11" transform="translate(9.319 9.413)" fill="#0b0b0c"/></g></svg>