<svg xmlns="http://www.w3.org/2000/svg" width="29.675" height="29.675" viewBox="0 0 29.675 29.675"><path d="M11.768,3A8.776,8.776,0,0,0,3,11.768v12.14a8.776,8.776,0,0,0,8.768,8.768h12.14a8.776,8.776,0,0,0,8.768-8.768V11.768A8.776,8.776,0,0,0,23.908,3ZM25.931,8.4a1.349,1.349,0,1,1-1.349,1.349A1.353,1.353,0,0,1,25.931,8.4Zm-8.093,2.023a7.419,7.419,0,1,1-7.419,7.419A7.423,7.423,0,0,1,17.838,10.419Zm0,1.349a6.07,6.07,0,1,0,6.07,6.07A6.079,6.079,0,0,0,17.838,11.768Z" transform="translate(-3 -3)" fill="#fff"/></svg>