<svg xmlns="http://www.w3.org/2000/svg" width="115.243" height="72.999" viewBox="0 0 115.243 72.999"><g transform="translate(-935.126 -672.475)" opacity="0.43" style="isolation:isolate"><g transform="translate(935.126 672.475)"><path d="M992.747,745.462q-28.546,0-57.093.011c-.431,0-.529-.1-.529-.528q.018-35.971,0-71.942c0-.431.1-.529.529-.528q57.093.017,114.185,0c.432,0,.529.1.529.528q-.018,35.971,0,71.941c0,.431-.1.529-.529.529Q1021.294,745.454,992.747,745.462Z" transform="translate(-935.126 -672.475)" fill="#fefefe"/><path d="M1019.36,699.49l-12.051,5.607c.309-1.326.588-2.532.872-3.737.831-3.526,1.672-7.049,2.486-10.578a1.386,1.386,0,0,1,.786-1.02,148.622,148.622,0,0,1,38.836-13.96,38.294,38.294,0,0,1,17.839.3,16.661,16.661,0,0,1,10.451,7.555c2.824,4.653,2.737,9.373.337,14.134a11.725,11.725,0,0,1-3.178,3.6c-.472.393-.923.814-1.421,1.171-.451.322-.479.54-.059.95a13.838,13.838,0,0,1,2.612,15.018,19.267,19.267,0,0,1-9.784,9.567,33.962,33.962,0,0,1-9.96,2.664c-5.694.735-11.412.5-17.125.439-.71-.007-1.42-.036-2.129-.018-.426.01-.508-.114-.413-.535.906-4,1.77-8.01,2.685-12.008,1.8-7.865,3.6-15.731,5.736-23.515a1.173,1.173,0,0,1,.824-.894,69.855,69.855,0,0,0,11.612-5.26,10.987,10.987,0,0,0,1.85-1.329,9.753,9.753,0,0,0-2.076-.27,29.912,29.912,0,0,0-12.342,2c-3.088,1.105-6.068,2.477-9.112,3.693a.831.831,0,0,0-.5.7q-1.972,7.953-3.944,15.905c-1.7,6.9-3.377,13.814-4.954,20.748-.091.4-.243.561-.682.558q-7.05-.057-14.1-.067c-.521,0-.537-.176-.431-.61q3.626-14.976,7.224-29.959A1.59,1.59,0,0,0,1019.36,699.49Z" transform="translate(-966.918 -673.54)" fill="#4a4a4a"/><path d="M978.515,702c-2.576,10.634-4.983,21.313-7.784,31.886a28.726,28.726,0,0,1-14.263,18.2,35.774,35.774,0,0,1-14.106,4.239c-1.145.116-2.291.2-3.442.231-.341.008-.479-.033-.377-.443q1.855-7.358,3.669-14.726c.086-.349.286-.439.593-.5a19.69,19.69,0,0,0,5.587-1.892,10.4,10.4,0,0,0,4.751-5.433,161.428,161.428,0,0,0,5.466-17.915c.444-1.7.85-3.421,1.275-5.131a1.083,1.083,0,0,1,.693-.767c3.939-1.788,7.884-3.561,11.82-5.353q2.561-1.166,5.126-2.32C977.823,701.939,978.16,701.638,978.515,702Z" transform="translate(-936.616 -685.404)" fill="#4a4a4a"/><path d="M995.338,691.077a1.776,1.776,0,0,0-.7.252q-8.639,3.908-17.275,7.825c-.24.109-.513.177-.66.432a8.787,8.787,0,0,1,.422-2.252q2.155-9.621,4.342-19.235c.033-.15.085-.3.1-.448.058-.463.3-.634.777-.633q7.907.018,15.815,0c.466,0,.61.119.49.6Q996.982,684.346,995.338,691.077Z" transform="translate(-953.439 -674.476)" fill="#cbcbcb"/><path d="M1101.678,732.736c-.02,3.538-2.914,7.263-6.238,7.987a5.469,5.469,0,0,1-2.726-.133c-.323-.095-.42-.227-.342-.572q1.673-7.364,3.315-14.735c.086-.386.233-.513.615-.367a4.715,4.715,0,0,1,1.138.541,10.059,10.059,0,0,1,4.145,6.193A8.818,8.818,0,0,1,1101.678,732.736Z" transform="translate(-1004.372 -695.546)" fill="#fefefe"/><path d="M1107.293,703.841a7.246,7.246,0,0,1-2.9,5.666,14.913,14.913,0,0,1-4.447,2.361,1.689,1.689,0,0,1-.277.073c-.623.119-.689.054-.553-.549q.983-4.375,1.969-8.749.442-1.963.882-3.926c.166-.742.191-.759.965-.615a5.828,5.828,0,0,1,4.321,4.964C1107.273,703.333,1107.28,703.6,1107.293,703.841Z" transform="translate(-1007.326 -683.731)" fill="#fefefe"/></g></g></svg>