<svg xmlns="http://www.w3.org/2000/svg" width="106.852" height="106.852" viewBox="0 0 106.852 106.852"><path d="M41,.188A40.809,40.809,0,1,0,66.21,72.968l3.639,3.639a7.667,7.667,0,0,0,1.43,8.968l19.1,19.235a7.639,7.639,0,0,0,10.787,0l3.639-3.639a7.639,7.639,0,0,0,0-10.787l-19.235-19.1a7.564,7.564,0,0,0-8.968-1.3L72.968,66.34A40.8,40.8,0,0,0,41,.188Zm0,7.538A33.271,33.271,0,1,1,7.725,41,33.273,33.273,0,0,1,41,7.725ZM19.942,30.469a22.766,22.766,0,0,0,19.365,34.7,23.005,23.005,0,0,0,13.126-4.159,28.322,28.322,0,0,1-3.119.13A29.3,29.3,0,0,1,19.942,31.769C19.942,31.33,19.926,30.908,19.942,30.469Z" transform="translate(-0.188 -0.188)" fill="#0275d8"/></svg>