<svg xmlns="http://www.w3.org/2000/svg" width="483.321" height="429.358" viewBox="0 0 483.321 429.358"><g transform="translate(-1091.831 -197.597)"><g transform="translate(1048.093 207.391)"><path d="M235.662,59.611h0v0a5.579,5.579,0,0,0-5.373-4.476h-2.455l-51.3,278.424h53.758a5.642,5.642,0,0,0,5.517-5.75V60.879A5.91,5.91,0,0,0,235.662,59.611Z" transform="translate(52.758 25.795)" fill="#d3d3d3" opacity="0.5" style="mix-blend-mode:multiply;isolation:isolate"/><g transform="translate(168.461 10.949)"><path d="M143.8,55.038a5.646,5.646,0,0,1-5.4,5.863h0a5.645,5.645,0,0,1-5.4-5.863V35.781a5.645,5.645,0,0,1,5.4-5.862h0a5.646,5.646,0,0,1,5.4,5.862Z" transform="translate(-132.998 4.829)" fill="#27213b"/><path d="M143.8,82.005a5.646,5.646,0,0,1-5.4,5.862h0a5.645,5.645,0,0,1-5.4-5.862V62.748a5.644,5.644,0,0,1,5.4-5.862h0a5.645,5.645,0,0,1,5.4,5.862Z" transform="translate(-132.998 15.543)" fill="#27213b"/><path d="M295.671,104.023a5.644,5.644,0,0,1-5.4,5.86h0a5.645,5.645,0,0,1-5.4-5.86V35.781a5.646,5.646,0,0,1,5.4-5.862h0a5.644,5.644,0,0,1,5.4,5.862Z" transform="translate(-72.662 4.829)" fill="#27213b"/><path d="M349.289,396.92c0,9.25-6.912,16.747-15.434,16.747H151.744c-8.523,0-15.432-7.5-15.432-16.747V21.8c0-9.249,6.908-16.745,15.432-16.745h182.11c8.522,0,15.434,7.5,15.434,16.745Z" transform="translate(-131.681 -5.051)" fill="#27213b"/><path d="M340.409,386.454c0,8.866-6.457,16.059-14.428,16.059H155.689c-7.97,0-14.43-7.193-14.43-16.059V26.7c0-8.87,6.46-16.06,14.43-16.06H325.981c7.972,0,14.428,7.19,14.428,16.06Z" transform="translate(-129.716 -2.829)" fill="#b6c9db"/><path d="M178.935,7.448V22.012a8.188,8.188,0,0,0,8.046,8.322H264.75a8.189,8.189,0,0,0,8.048-8.322V7.448Z" transform="translate(-114.748 -4.099)" fill="#27213b"/><path d="M246.272,14.038a2.9,2.9,0,0,1-2.776,3.013H196.3a2.9,2.9,0,0,1-2.776-3.013h0a2.9,2.9,0,0,1,2.776-3.014h47.2a2.9,2.9,0,0,1,2.776,3.014Z" transform="translate(-108.952 -2.678)" fill="#b6c9db"/><path d="M340.409,355V89.821c-25.174,19.088-136.243,106.858-199.15,156.639V355c0,8.866,6.46,16.059,14.43,16.059H325.981C333.952,371.057,340.409,363.863,340.409,355Z" transform="translate(-129.716 28.627)" fill="#b6c9db" opacity="0.4" style="mix-blend-mode:screen;isolation:isolate"/></g><g transform="translate(127.91 53.393)"><g transform="translate(0 0)"><path d="M399.853,41.695a10.3,10.3,0,0,1,.115,1.462V355.585a10.1,10.1,0,0,1-9.953,10.218H111.108a9.75,9.75,0,0,0,8.027,4.283h277.4a9.979,9.979,0,0,0,9.838-10.1V51.191A10.1,10.1,0,0,0,399.853,41.695Z" transform="translate(-101.144 -32.937)" fill="#acadaf" style="mix-blend-mode:multiply;isolation:isolate"/><path d="M400.059,44.653a6.6,6.6,0,0,0-6.458-6.724H112.938a6.6,6.6,0,0,0-6.46,6.724V357.082a6.6,6.6,0,0,0,6.46,6.725H393.6a6.6,6.6,0,0,0,6.458-6.725Z" transform="translate(-102.983 -34.433)" fill="#fff" opacity="0.5" style="mix-blend-mode:screen;isolation:isolate"/><path d="M336.143,43.169h0v0a6.529,6.529,0,0,0-6.291-5.238h-2.871L266.934,363.807h62.919a6.6,6.6,0,0,0,6.458-6.725V44.653A7.115,7.115,0,0,0,336.143,43.169Z" transform="translate(-39.236 -34.433)" fill="#d3d3d3" opacity="0.5" style="mix-blend-mode:multiply;isolation:isolate"/><path d="M112.938,37.929a6.6,6.6,0,0,0-6.46,6.724V219.32L167.537,37.929Z" transform="translate(-102.983 -34.433)" fill="#fff" opacity="0.5" style="mix-blend-mode:screen;isolation:isolate"/><g transform="translate(50.65 18.875)"><path d="M258.317,98.341a3.858,3.858,0,0,1-3.855,3.859H181.743a3.862,3.862,0,0,1-3.862-3.859v-44.4a3.863,3.863,0,0,1,3.862-3.862h72.719a3.859,3.859,0,0,1,3.855,3.862Z" transform="translate(-125.266 -48.482)" fill="#efbb31"/><path d="M2.762,0H77.676a2.763,2.763,0,0,1,2.763,2.763v46.6a2.763,2.763,0,0,1-2.763,2.763H2.764A2.764,2.764,0,0,1,0,49.361V2.762A2.762,2.762,0,0,1,2.762,0Z" transform="translate(49.592 1.594)" fill="#efe731"/><path d="M186.126,50.076h-6.549a3.86,3.86,0,0,0-3.859,3.862v19.9Z" transform="translate(-126.125 -48.482)" fill="#efe731" opacity="0.5" style="mix-blend-mode:screen;isolation:isolate"/><path d="M235.271,50.076h-1.185L218.569,95.851s12.078-.914,20.563-2.251V53.938A3.859,3.859,0,0,0,235.271,50.076Z" transform="translate(-109.101 -48.482)" fill="#efe731" opacity="0.5" style="mix-blend-mode:multiply;isolation:isolate"/><text transform="translate(57.686 18)" fill="#efbb31" font-size="17" font-family="SegoeUI, Segoe UI"><tspan x="0" y="0">HOTEL</tspan></text><path d="M238.45,108.339a93.139,93.139,0,0,0-93.141,93.139,94.336,94.336,0,0,0,.7,11.236H330.892A93,93,0,0,0,238.45,108.339Z" transform="translate(-138.207 -25.334)" fill="#fff" opacity="0.3" style="mix-blend-mode:overlay;isolation:isolate"/><path d="M166.478,132.687A92.757,92.757,0,0,0,145.309,191.8a94.336,94.336,0,0,0,.7,11.236h40.939a93.76,93.76,0,0,0,.7-11.236A92.748,92.748,0,0,0,166.478,132.687Z" transform="translate(-138.207 -15.661)" fill="#fff" opacity="0.3" style="mix-blend-mode:overlay;isolation:isolate"/><path d="M269.886,133.512a92.707,92.707,0,0,0-20.265,57.965,94.045,94.045,0,0,0,.7,11.236h39.128a94.049,94.049,0,0,0,.7-11.236A92.713,92.713,0,0,0,269.886,133.512Z" transform="translate(-96.764 -15.333)" fill="#fff" opacity="0.3" style="mix-blend-mode:overlay;isolation:isolate"/><path d="M278.957,230.625H190.251l68.07-165.853,20.636,22.942Z" transform="translate(-120.351 -42.643)" fill="#95344d"/><path d="M259.577,224.1V81.19L239.03,224.1Z" transform="translate(-100.972 -36.12)" fill="#b3404d" opacity="0.2" style="mix-blend-mode:multiply;isolation:isolate"/><rect width="96.088" height="166.46" transform="translate(41.881 22.128)" fill="#e57275"/><path d="M193.717,64.771H170.2v63.763Z" transform="translate(-128.318 -42.643)" fill="#e57275" opacity="0.5" style="mix-blend-mode:screen;isolation:isolate"/><path d="M213.364,231.232h35.775V64.771L219.424,227.6S216.711,229.081,213.364,231.232Z" transform="translate(-111.169 -42.643)" fill="#e57275" opacity="0.4" style="mix-blend-mode:multiply;isolation:isolate"/><g transform="translate(66.339 129.319)"><path d="M226.191,141.485H190.913a3.209,3.209,0,0,0-3.21,3.207v55.456h41.7V144.692A3.207,3.207,0,0,0,226.191,141.485Z" transform="translate(-187.703 -141.485)" fill="#b3404d"/><rect width="17.2" height="11.413" transform="translate(2.714 47.249)" fill="#866072" style="mix-blend-mode:screen;isolation:isolate"/><path d="M206.846,143.383h-14.41a2.813,2.813,0,0,0-2.79,2.835v40.4h17.2Z" transform="translate(-186.931 -140.731)" fill="#866072" style="mix-blend-mode:screen;isolation:isolate"/><rect width="17.201" height="11.413" transform="translate(21.786 47.249)" fill="#866072" style="mix-blend-mode:screen;isolation:isolate"/><path d="M206.789,175.3H192.64l-2.855,9,3.894,2.417h13.11Z" transform="translate(-186.876 -128.051)" fill="#866072" opacity="0.7" style="mix-blend-mode:screen;isolation:isolate"/><path d="M203.294,182.944v1.618l3.465,2.151H220.5V175.3H205.72Z" transform="translate(-181.509 -128.051)" fill="#866072" opacity="0.7" style="mix-blend-mode:screen;isolation:isolate"/><path d="M220.495,146.218a2.812,2.812,0,0,0-2.792-2.835H203.294v43.235h17.2Z" transform="translate(-181.509 -140.731)" fill="#866072" style="mix-blend-mode:screen;isolation:isolate"/><path d="M205.855,186.618V143.383l-13.716,43.236Z" transform="translate(-185.941 -140.731)" fill="#866072" opacity="0.7" style="mix-blend-mode:screen;isolation:isolate"/><path d="M219.682,186.4V146a2.834,2.834,0,0,0-.872-2.051L205.339,186.4Z" transform="translate(-180.696 -140.508)" fill="#866072" opacity="0.7" style="mix-blend-mode:screen;isolation:isolate"/><path d="M201.12,167.177a.9.9,0,0,1-.905.907h0a.906.906,0,0,1-.907-.907v-8.769a.906.906,0,0,1,.907-.908h0a.9.9,0,0,1,.905.908Z" transform="translate(-183.092 -135.123)" fill="#86404d"/><path d="M206.314,167.177a.906.906,0,0,1-.905.907h0a.9.9,0,0,1-.907-.907v-8.769a.905.905,0,0,1,.907-.908h0a.906.906,0,0,1,.905.908Z" transform="translate(-181.029 -135.123)" fill="#86404d"/></g><g transform="translate(25.954 252.021)"><path d="M6.273,0H142.728A6.273,6.273,0,0,1,149,6.273V34.34a6.272,6.272,0,0,1-6.272,6.272H6.273A6.273,6.273,0,0,1,0,34.339V6.273A6.273,6.273,0,0,1,6.273,0Z" fill="#63ba45"/><path d="M278.381,238.061a8.763,8.763,0,0,0-8.764-8.762H244.939c-3.7,11.669-8.523,27.785-12.087,40.611h36.766a8.763,8.763,0,0,0,8.764-8.765Z" transform="translate(-129.381 -229.299)" fill="#63ba45" opacity="0.5" style="mix-blend-mode:multiply;isolation:isolate"/><path d="M166.856,269.837c5.688-11.465,14.163-30.021,18.872-40.538H167.566a8.765,8.765,0,0,0-8.765,8.762v23.083A8.733,8.733,0,0,0,166.856,269.837Z" transform="translate(-158.801 -229.299)" fill="#7ee054" opacity="0.5" style="mix-blend-mode:screen;isolation:isolate"/><text transform="translate(19.62 29.936)" fill="#5e9a54" font-size="27" font-family="SegoeUI, Segoe UI" opacity="0.5" style="mix-blend-mode:multiply;isolation:isolate"><tspan x="0" y="0">BOOKED</tspan></text><text transform="translate(20.69 29.025)" fill="#fff" font-size="27" font-family="SegoeUI, Segoe UI"><tspan x="0" y="0">BOOKED</tspan></text></g><g transform="translate(12.308 203.531)"><path d="M166.061,194.6l5.853,9.849,11.176,2.525-7.56,8.6,1.055,11.41-10.524-4.528-10.521,4.528,1.054-11.41-7.56-8.6,11.177-2.525Z" transform="translate(-149.035 -194.596)" fill="#efe731"/><path d="M153.691,224.185l10.521-4.528,10.524,4.528-1.055-11.41,7.56-8.6-11.176-2.525-15.32,11.13Z" transform="translate(-147.185 -191.796)" fill="#efbb31"/><g transform="translate(46.768)"><path d="M199.533,194.6l5.851,9.849,11.177,2.525-7.562,8.6,1.058,11.41-10.524-4.528-10.523,4.528,1.054-11.41-7.56-8.6,11.177-2.525Z" transform="translate(-182.505 -194.596)" fill="#efe731"/><path d="M187.161,224.185l10.523-4.528,10.524,4.528-1.058-11.41,7.562-8.6-11.177-2.525-15.32,11.13Z" transform="translate(-180.655 -191.796)" fill="#efbb31"/></g><g transform="translate(93.536)"><path d="M233,194.6l5.853,9.849,11.177,2.525-7.561,8.6,1.059,11.41L233,222.458l-10.518,4.528,1.051-11.41-7.558-8.6,11.177-2.525Z" transform="translate(-215.976 -194.596)" fill="#efe731"/><path d="M220.633,224.185l10.518-4.528,10.527,4.528-1.059-11.41,7.561-8.6L237,201.645l-15.32,11.13Z" transform="translate(-214.125 -191.796)" fill="#efbb31"/></g><g transform="translate(140.302)"><path d="M266.472,194.6l5.848,9.849L283.5,206.97l-7.558,8.6L277,226.986l-10.526-4.528-10.521,4.528L257,215.575l-7.56-8.6,11.178-2.525Z" transform="translate(-249.444 -194.596)" fill="#efe731"/><path d="M254.1,224.185l10.521-4.528,10.526,4.528-1.059-11.41,7.558-8.6-11.177-2.525-15.317,11.13Z" transform="translate(-247.594 -191.796)" fill="#efbb31"/></g></g><g transform="translate(48.409 31.107)"><rect width="13.03" height="17.499" fill="#866072" style="mix-blend-mode:screen;isolation:isolate"/><path d="M187.9,71.2l-13.03,17.5H187.9Z" transform="translate(-174.871 -71.197)" fill="#866072" style="mix-blend-mode:screen;isolation:isolate"/></g><g transform="translate(70.075 31.107)"><rect width="13.029" height="17.499" fill="#866072" style="mix-blend-mode:screen;isolation:isolate"/><path d="M203.406,71.2,190.376,88.7h13.029Z" transform="translate(-190.376 -71.197)" fill="#866072" style="mix-blend-mode:screen;isolation:isolate"/></g><g transform="translate(91.739 31.107)"><rect width="13.034" height="17.499" fill="#866072" style="mix-blend-mode:screen;isolation:isolate"/><path d="M218.914,71.2,205.881,88.7h13.034Z" transform="translate(-205.881 -71.197)" fill="#866072" style="mix-blend-mode:screen;isolation:isolate"/></g><g transform="translate(113.405 31.107)"><rect width="13.035" height="17.499" fill="#866072" style="mix-blend-mode:screen;isolation:isolate"/><path d="M234.422,71.2,221.387,88.7h13.035Z" transform="translate(-221.387 -71.197)" fill="#866072" style="mix-blend-mode:screen;isolation:isolate"/></g><g transform="translate(48.409 55.748)"><rect width="13.03" height="17.499" fill="#866072" style="mix-blend-mode:screen;isolation:isolate"/><path d="M187.9,88.832l-13.03,17.5H187.9Z" transform="translate(-174.871 -88.832)" fill="#866072" style="mix-blend-mode:screen;isolation:isolate"/></g><g transform="translate(70.075 55.748)"><rect width="13.029" height="17.499" fill="#866072" style="mix-blend-mode:screen;isolation:isolate"/><path d="M203.406,88.832l-13.029,17.5h13.029Z" transform="translate(-190.376 -88.832)" fill="#866072" style="mix-blend-mode:screen;isolation:isolate"/></g><g transform="translate(91.739 55.748)"><rect width="13.034" height="17.499" fill="#866072" style="mix-blend-mode:screen;isolation:isolate"/><path d="M218.914,88.832l-13.034,17.5h13.034Z" transform="translate(-205.881 -88.832)" fill="#866072" style="mix-blend-mode:screen;isolation:isolate"/></g><g transform="translate(113.405 55.748)"><rect width="13.035" height="17.499" fill="#866072" style="mix-blend-mode:screen;isolation:isolate"/><path d="M234.422,88.832l-13.035,17.5h13.035Z" transform="translate(-221.387 -88.832)" fill="#866072" style="mix-blend-mode:screen;isolation:isolate"/></g><g transform="translate(48.409 80.387)"><rect width="13.03" height="17.5" fill="#866072" style="mix-blend-mode:screen;isolation:isolate"/><path d="M187.9,106.466l-13.03,17.5H187.9Z" transform="translate(-174.871 -106.466)" fill="#866072" style="mix-blend-mode:screen;isolation:isolate"/></g><g transform="translate(70.075 80.387)"><rect width="13.029" height="17.5" fill="#866072" style="mix-blend-mode:screen;isolation:isolate"/><path d="M203.406,106.466l-13.029,17.5h13.029Z" transform="translate(-190.376 -106.466)" fill="#866072" style="mix-blend-mode:screen;isolation:isolate"/></g><g transform="translate(91.739 80.387)"><rect width="13.034" height="17.5" fill="#866072" style="mix-blend-mode:screen;isolation:isolate"/><path d="M218.914,106.466l-13.034,17.5h13.034Z" transform="translate(-205.881 -106.466)" fill="#866072" style="mix-blend-mode:screen;isolation:isolate"/></g><g transform="translate(113.405 80.387)"><rect width="13.035" height="17.5" fill="#866072" style="mix-blend-mode:screen;isolation:isolate"/><path d="M234.422,106.466l-13.035,17.5h13.035Z" transform="translate(-221.387 -106.466)" fill="#866072" style="mix-blend-mode:screen;isolation:isolate"/></g><g transform="translate(48.409 105.027)"><rect width="13.03" height="17.5" fill="#866072" style="mix-blend-mode:screen;isolation:isolate"/><path d="M187.9,124.1l-13.03,17.5H187.9Z" transform="translate(-174.871 -124.099)" fill="#866072" style="mix-blend-mode:screen;isolation:isolate"/></g><g transform="translate(70.075 105.027)"><rect width="13.029" height="17.5" fill="#866072" style="mix-blend-mode:screen;isolation:isolate"/><path d="M203.406,124.1l-13.029,17.5h13.029Z" transform="translate(-190.376 -124.099)" fill="#866072" style="mix-blend-mode:screen;isolation:isolate"/></g><g transform="translate(91.739 105.027)"><rect width="13.034" height="17.5" fill="#866072" style="mix-blend-mode:screen;isolation:isolate"/><path d="M218.914,124.1l-13.034,17.5h13.034Z" transform="translate(-205.881 -124.099)" fill="#866072" style="mix-blend-mode:screen;isolation:isolate"/></g><g transform="translate(113.405 105.027)"><rect width="13.035" height="17.5" fill="#866072" style="mix-blend-mode:screen;isolation:isolate"/><path d="M234.422,124.1l-13.035,17.5h13.035Z" transform="translate(-221.387 -124.099)" fill="#866072" style="mix-blend-mode:screen;isolation:isolate"/></g><g transform="translate(48.409 129.668)"><rect width="13.03" height="17.499" transform="translate(0 0)" fill="#866072" style="mix-blend-mode:screen;isolation:isolate"/><path d="M187.9,141.735l-13.03,17.5H187.9Z" transform="translate(-174.871 -141.735)" fill="#866072" style="mix-blend-mode:screen;isolation:isolate"/></g><g transform="translate(113.405 129.668)"><rect width="13.035" height="17.499" transform="translate(0 0)" fill="#866072" style="mix-blend-mode:screen;isolation:isolate"/><path d="M234.422,141.735l-13.035,17.5h13.035Z" transform="translate(-221.387 -141.735)" fill="#866072" style="mix-blend-mode:screen;isolation:isolate"/></g><path d="M185.5,185.532a8.492,8.492,0,0,0,.472-2.686,8.58,8.58,0,0,0-16.879-2.194,6.155,6.155,0,0,0-10.26,4.61c0,.092.024.179.027.27Z" transform="translate(-132.832 0.85)" fill="#63ba45"/><path d="M267.982,178.964a6.385,6.385,0,0,0-4.237,1.628,8.871,8.871,0,0,0-17.148-.1c-.043.036-.088.061-.133.1a8.887,8.887,0,1,0-17.02,5.061h44.92c0-.094.027-.183.027-.279A6.409,6.409,0,0,0,267.982,178.964Z" transform="translate(-104.974 0.732)" fill="#63ba45"/><g transform="translate(0 185.563)"><path d="M310.333,183.854a2.114,2.114,0,0,1-2.113,2.117H159.443a2.118,2.118,0,0,1-2.12-2.117h0a2.119,2.119,0,0,1,2.12-2.117H308.221a2.115,2.115,0,0,1,2.113,2.117Z" transform="translate(-133.434 -181.737)" fill="#27213b"/><path d="M158.368,183.854a2.115,2.115,0,0,1-2.116,2.117h-13.91a2.116,2.116,0,0,1-2.117-2.117h0a2.117,2.117,0,0,1,2.117-2.117h13.91a2.116,2.116,0,0,1,2.116,2.117Z" transform="translate(-140.226 -181.737)" fill="#27213b"/><path d="M289.088,183.854a2.116,2.116,0,0,1-2.117,2.117h-13.91a2.119,2.119,0,0,1-2.12-2.117h0a2.12,2.12,0,0,1,2.12-2.117h13.91a2.116,2.116,0,0,1,2.117,2.117Z" transform="translate(-88.294 -181.737)" fill="#27213b"/></g><g transform="translate(15.798 135.507)"><g transform="translate(0 0)"><path d="M180.234,161.6c0,8.665-6.425,15.689-14.352,15.689s-14.35-7.024-14.35-15.689,6.423-15.687,14.35-15.687S180.234,152.936,180.234,161.6Z" transform="translate(-151.532 -145.913)" fill="#63ba45"/><path d="M156.154,154.964a13.174,13.174,0,0,0-4.457.782,17.16,17.16,0,0,0-.165,2.258c0,8.665,6.423,15.689,14.35,15.689a13.287,13.287,0,0,0,4.457-.78,17.194,17.194,0,0,0,.165-2.259C170.5,161.988,164.08,154.964,156.154,154.964Z" transform="translate(-151.532 -142.317)" fill="#63ba45" opacity="0.5" style="mix-blend-mode:screen;isolation:isolate"/><path d="M157.974,170.654a17.959,17.959,0,0,0,.12,1.951,13.231,13.231,0,0,0,5.229,1.088c7.927,0,14.352-7.024,14.352-15.689a16.861,16.861,0,0,0-.123-1.949,13.21,13.21,0,0,0-5.226-1.091C164.4,154.964,157.974,161.988,157.974,170.654Z" transform="translate(-148.973 -142.317)" fill="#63ba45" opacity="0.5" style="mix-blend-mode:multiply;isolation:isolate"/></g><path d="M162.816,194.352a.787.787,0,0,1-.788.789h0a.789.789,0,0,1-.791-.789V152.274a.79.79,0,0,1,.791-.791h0a.788.788,0,0,1,.788.791Z" transform="translate(-147.676 -143.7)" fill="#27213b"/><path d="M163.849,160.581a.913.913,0,0,1,.267,1.244h0a.914.914,0,0,1-1.273-.022l-5.923-4.858a.911.911,0,0,1-.27-1.242h0a.912.912,0,0,1,1.272.02Z" transform="translate(-149.558 -142.122)" fill="#27213b"/><path d="M164.1,166.365a.914.914,0,0,1,.268,1.245h0a.915.915,0,0,1-1.272-.021l-5.926-4.858a.911.911,0,0,1-.268-1.244h0a.912.912,0,0,1,1.272.021Z" transform="translate(-149.457 -139.824)" fill="#27213b"/><path d="M161.889,158.425a.929.929,0,0,0-.21,1.234h0a.8.8,0,0,0,1.178.029l5.338-4.632a.925.925,0,0,0,.211-1.232h0a.805.805,0,0,0-1.179-.031Z" transform="translate(-147.561 -142.878)" fill="#27213b"/><path d="M162.047,163.776a.926.926,0,0,0-.208,1.234h0a.8.8,0,0,0,1.178.029l5.339-4.632a.93.93,0,0,0,.208-1.234h0a.8.8,0,0,0-1.178-.031Z" transform="translate(-147.498 -140.752)" fill="#27213b"/></g><g transform="translate(144.164 135.507)"><g transform="translate(0 0)"><path d="M272.1,161.6c0,8.665-6.422,15.689-14.349,15.689S243.4,170.265,243.4,161.6s6.426-15.687,14.354-15.687S272.1,152.936,272.1,161.6Z" transform="translate(-243.4 -145.913)" fill="#63ba45"/><path d="M248.028,154.964a13.193,13.193,0,0,0-4.463.782A17.647,17.647,0,0,0,243.4,158c0,8.665,6.426,15.689,14.354,15.689a13.253,13.253,0,0,0,4.455-.78,17.444,17.444,0,0,0,.169-2.259C262.378,161.988,255.95,154.964,248.028,154.964Z" transform="translate(-243.4 -142.317)" fill="#63ba45" opacity="0.5" style="mix-blend-mode:screen;isolation:isolate"/><path d="M249.845,170.654a17.962,17.962,0,0,0,.122,1.951,13.214,13.214,0,0,0,5.227,1.088c7.927,0,14.349-7.024,14.349-15.689a15.972,15.972,0,0,0-.124-1.949,13.2,13.2,0,0,0-5.224-1.091C256.271,154.964,249.845,161.988,249.845,170.654Z" transform="translate(-240.839 -142.317)" fill="#63ba45" opacity="0.5" style="mix-blend-mode:multiply;isolation:isolate"/></g><path d="M254.686,194.352a.79.79,0,0,1-.788.789h0a.789.789,0,0,1-.792-.789V152.274a.79.79,0,0,1,.792-.791h0a.791.791,0,0,1,.788.791Z" transform="translate(-239.544 -143.7)" fill="#27213b"/><path d="M255.718,160.581a.909.909,0,0,1,.267,1.244h0a.914.914,0,0,1-1.273-.022l-5.923-4.858a.911.911,0,0,1-.268-1.242h0a.913.913,0,0,1,1.273.02Z" transform="translate(-241.425 -142.122)" fill="#27213b"/><path d="M255.969,166.365a.922.922,0,0,1,.271,1.245h0a.913.913,0,0,1-1.27-.021l-5.93-4.858a.913.913,0,0,1-.265-1.244h0a.912.912,0,0,1,1.272.021Z" transform="translate(-241.324 -139.824)" fill="#27213b"/><path d="M253.76,158.425a.935.935,0,0,0-.214,1.234h0a.8.8,0,0,0,1.179.029l5.342-4.632a.928.928,0,0,0,.208-1.232h0a.805.805,0,0,0-1.179-.031Z" transform="translate(-239.428 -142.878)" fill="#27213b"/><path d="M253.917,163.776a.933.933,0,0,0-.21,1.234h0a.808.808,0,0,0,1.182.029l5.333-4.632a.921.921,0,0,0,.208-1.234h0a.8.8,0,0,0-1.177-.031Z" transform="translate(-239.365 -140.752)" fill="#27213b"/></g><g transform="translate(45.813 158.651)"><path d="M173.576,170.34h16.27a8.14,8.14,0,0,0-16.27,0Z" transform="translate(-172.79 -162.477)" fill="#866072" style="mix-blend-mode:screen;isolation:isolate"/><path d="M179.683,170.177h7.737a8.156,8.156,0,0,0-5.183-7.292C181.423,165.135,180.477,167.8,179.683,170.177Z" transform="translate(-170.363 -162.315)" fill="#866072" opacity="0.7" style="mix-blend-mode:screen;isolation:isolate"/><rect width="17.84" height="1.721" transform="translate(0 7.304)" fill="#86404d"/></g><g transform="translate(112.341 158.651)"><path d="M221.188,170.34h16.271a8.14,8.14,0,0,0-16.271,0Z" transform="translate(-220.401 -162.477)" fill="#866072" style="mix-blend-mode:screen;isolation:isolate"/><path d="M227.3,170.177h7.737a8.158,8.158,0,0,0-5.183-7.292C229.038,165.135,228.09,167.8,227.3,170.177Z" transform="translate(-217.975 -162.315)" fill="#866072" opacity="0.7" style="mix-blend-mode:screen;isolation:isolate"/><rect width="17.844" height="1.721" transform="translate(0 7.304)" fill="#86404d"/></g><rect width="15.421" height="2.268" transform="translate(47.097 47.369)" fill="#b3404d"/><rect width="15.421" height="2.268" transform="translate(47.097 29.678)" fill="#b3404d"/><rect width="15.421" height="2.267" transform="translate(47.097 72.317)" fill="#b3404d"/><rect width="15.421" height="2.268" transform="translate(47.097 54.627)" fill="#b3404d"/><rect width="15.421" height="2.267" transform="translate(47.097 96.826)" fill="#b3404d"/><rect width="15.421" height="2.269" transform="translate(47.097 79.135)" fill="#b3404d"/><rect width="15.421" height="2.266" transform="translate(47.097 121.547)" fill="#b3404d"/><rect width="15.421" height="2.268" transform="translate(47.097 103.856)" fill="#b3404d"/><rect width="15.421" height="2.266" transform="translate(47.097 146.041)" fill="#b3404d"/><rect width="15.421" height="2.269" transform="translate(47.097 128.35)" fill="#b3404d"/><rect width="15.422" height="2.268" transform="translate(68.871 47.369)" fill="#b3404d"/><rect width="15.422" height="2.268" transform="translate(68.871 29.678)" fill="#b3404d"/><rect width="15.422" height="2.267" transform="translate(68.871 72.317)" fill="#b3404d"/><rect width="15.422" height="2.268" transform="translate(68.871 54.627)" fill="#b3404d"/><rect width="15.422" height="2.267" transform="translate(68.871 96.826)" fill="#b3404d"/><rect width="15.422" height="2.269" transform="translate(68.871 79.135)" fill="#b3404d"/><rect width="15.422" height="2.266" transform="translate(68.871 121.547)" fill="#b3404d"/><rect width="15.422" height="2.268" transform="translate(68.871 103.856)" fill="#b3404d"/><rect width="15.426" height="2.268" transform="translate(90.415 47.369)" fill="#b3404d"/><rect width="15.426" height="2.268" transform="translate(90.415 29.678)" fill="#b3404d"/><rect width="15.426" height="2.267" transform="translate(90.415 72.317)" fill="#b3404d"/><rect width="15.426" height="2.268" transform="translate(90.415 54.627)" fill="#b3404d"/><rect width="15.426" height="2.267" transform="translate(90.415 96.826)" fill="#b3404d"/><rect width="15.426" height="2.269" transform="translate(90.415 79.135)" fill="#b3404d"/><rect width="15.426" height="2.266" transform="translate(90.415 121.547)" fill="#b3404d"/><rect width="15.426" height="2.268" transform="translate(90.415 103.856)" fill="#b3404d"/><rect width="15.421" height="2.268" transform="translate(111.964 47.369)" fill="#b3404d"/><rect width="15.421" height="2.268" transform="translate(111.964 29.678)" fill="#b3404d"/><rect width="15.421" height="2.267" transform="translate(111.964 72.317)" fill="#b3404d"/><rect width="15.421" height="2.268" transform="translate(111.964 54.627)" fill="#b3404d"/><rect width="15.421" height="2.267" transform="translate(111.964 96.826)" fill="#b3404d"/><rect width="15.421" height="2.269" transform="translate(111.964 79.135)" fill="#b3404d"/><rect width="15.421" height="2.266" transform="translate(111.964 121.547)" fill="#b3404d"/><rect width="15.421" height="2.268" transform="translate(111.964 103.856)" fill="#b3404d"/><rect width="15.421" height="2.266" transform="translate(111.964 146.041)" fill="#b3404d"/><rect width="15.421" height="2.269" transform="translate(111.964 128.35)" fill="#b3404d"/><text transform="translate(55.982 18)" fill="#fff" font-size="17" font-family="SegoeUI, Segoe UI"><tspan x="0" y="0">HOTEL</tspan></text></g><g transform="translate(15.97 121.285)"><path d="M150.349,139.7a17.472,17.472,0,1,1-17.47-17.472A17.472,17.472,0,0,1,150.349,139.7Z" transform="translate(-115.406 -122.227)" fill="#fff"/><path d="M128.129,138.167l7.553-5.942V125.6l-15.971,12.563,15.971,12.563v-6.622Z" transform="translate(-113.696 -120.885)" fill="#63ba45"/><g transform="translate(233.686)"><path d="M282.648,139.7a17.472,17.472,0,1,0,17.472-17.472A17.472,17.472,0,0,0,282.648,139.7Z" transform="translate(-282.648 -122.227)" fill="#fff"/><path d="M299.476,138.167l-7.554-5.942V125.6l15.972,12.563-15.972,12.563v-6.622Z" transform="translate(-278.964 -120.885)" fill="#e57275"/></g></g><path d="M394.594,368.294H113.931a10.1,10.1,0,0,1-9.954-10.218V45.647a10.1,10.1,0,0,1,9.954-10.22H394.594a10.1,10.1,0,0,1,9.951,10.22V358.076A10.1,10.1,0,0,1,394.594,368.294ZM113.931,38.923a6.6,6.6,0,0,0-6.46,6.724V358.076a6.6,6.6,0,0,0,6.46,6.725H394.594a6.6,6.6,0,0,0,6.458-6.725V45.647a6.6,6.6,0,0,0-6.458-6.724Z" transform="translate(-103.977 -35.427)" fill="#fff"/></g></g><g transform="translate(332.3 24.27)"><rect width="3.31" height="9.232" fill="#27213b"/><rect width="3.309" height="7.317" transform="translate(5.139 1.916)" fill="#27213b"/><rect width="3.309" height="5.401" transform="translate(10.365 3.832)" fill="#27213b"/></g><g transform="translate(352.695 25.713)"><path d="M280.293,18.113h-1.509v-2.5H264.849v9.465h13.935V22.757h1.509ZM276.811,23.4H266.706V17.3h10.105Z" transform="translate(-264.849 -15.617)" fill="#27213b"/><rect width="1.796" height="4.18" transform="translate(2.935 2.496)" fill="#63ba45"/><rect width="1.793" height="4.18" transform="translate(6.07 2.496)" fill="#63ba45"/></g><g transform="translate(140.617 -9.794)"><path d="M166.707,8.3a15.831,15.831,0,0,0,.187-2.317A15.769,15.769,0,0,0,136.434.248a10.184,10.184,0,0,0-15.288,8.191c-5.034,1.118-8.075,5.4-8.075,10.534,0,5.979,4.119,10.826,10.728,10.826h41.029c6.609,0,10.728-4.847,10.728-10.826C175.556,13.585,172.2,9.128,166.707,8.3Z" transform="translate(-113.071 9.794)" fill="#fff"/><path d="M166.775,14.484c0-5.388-3.352-9.845-8.849-10.675.056-.383-.034.39,0,0a5.917,5.917,0,0,0-4.5-2.3,10.2,10.2,0,0,0-10.176,9.571c-5.034,1.118-8.074,5.4-8.074,10.534a12.019,12.019,0,0,0,.58,3.7h20.293C162.656,25.311,166.775,20.463,166.775,14.484Z" transform="translate(-104.29 14.283)" fill="#eaeaff"/></g><g transform="translate(409.889 287.26)"><path d="M314.631,220.891a15.759,15.759,0,0,1,30.271-8.05,10.188,10.188,0,0,1,15.291,8.192c5.033,1.116,8.072,5.4,8.072,10.533,0,5.979-4.119,10.828-10.728,10.828H316.508c-6.608,0-10.727-4.849-10.727-10.828C305.781,226.178,309.134,221.724,314.631,220.891Z" transform="translate(-305.781 -202.799)" fill="#98bdec"/><path d="M361.285,229.1c0-5.128-3.039-9.416-8.072-10.533a10.188,10.188,0,0,0-15.291-8.192c-.1-.257-.214-.5-.327-.755a15.524,15.524,0,0,0-5.395,14.349c-5.5.831-8.85,5.287-8.85,10.672a11.637,11.637,0,0,0,1.224,5.286h25.983C357.166,239.931,361.285,235.083,361.285,229.1Z" transform="translate(-298.801 -200.336)" fill="#608dc7" opacity="0.3" style="mix-blend-mode:multiply;isolation:isolate"/></g><g transform="translate(43.737 87.376)"><g transform="translate(20.645 20.145)"><path d="M71.929,196.851a97.207,97.207,0,0,1-9.474-26.071c-12.963-61.9,31.762-95,32.215-95.332l-.926-1.284c-.461.333-46.018,34-32.839,96.941a98.743,98.743,0,0,0,10.163,27.461C71.864,199.239,72.442,198.074,71.929,196.851Z" transform="translate(-58.512 -74.165)" fill="#fff"/><path d="M86.8,182.842a114.715,114.715,0,0,1-14.86-15.914c-.463-.365-1.184,1.058-.778,1.582A116.73,116.73,0,0,0,86.06,184.3C86.967,184.644,87.4,183.869,86.8,182.842Z" transform="translate(-53.536 -37.335)" fill="#fff"/><path d="M86.35,181.106c-1.357-.826-1.434,1.019-.676,1.452a138.734,138.734,0,0,0,34.865,18.066l.461-1.517A137.254,137.254,0,0,1,86.35,181.106Z" transform="translate(-47.912 -31.762)" fill="#fff"/></g><path d="M108.765,59.748,64.014,125.786l-5.058-24.515Z" transform="translate(-37.691 -59.748)" fill="#6054a4"/><path d="M43.737,91.669l71.074-31.921L98.136,117.706Z" transform="translate(-43.737 -59.748)" fill="#98bdec"/><path d="M66,125.786,53.946,98.074l56.809-38.326L69.222,105.577Z" transform="translate(-39.681 -59.748)" fill="#608dc7"/><path d="M69.222,94.68l-15.275-7.5L66,114.889Z" transform="translate(-39.681 -48.851)" fill="#606fc7"/><path d="M53.348,149.68l8.24-17.094L74.5,146.2,63.1,143.744Z" transform="translate(-39.919 -30.81)" fill="#fff"/></g><g transform="translate(51.087 255.708)"><path d="M144.234,180.378q-1.97.941-3.889,2.078c-31.981-.218-56.553,28.769-89.245,25.727q6.323,24.933,12.643,49.864-1.019.482-2.051.914c.984.879,1.963,1.733,2.937,2.572,34.981,3.256,60.666-30.155,96.071-25.232q-6.766-26.671-13.53-53.35Q145.7,181.636,144.234,180.378Z" transform="translate(-48.161 -180.154)" fill="#e2d3b8"/><path d="M156.372,223.812a248.251,248.251,0,0,0-22.74-18.467c-26.9,1.874-49.98,18.815-79.034,12.2q3.877,15.292,7.754,30.584-1.019.482-2.051.914c.984.879,1.963,1.733,2.937,2.572,34.981,3.256,60.666-30.155,96.071-25.232Q157.834,225.069,156.372,223.812Z" transform="translate(-46.771 -170.235)" fill="#c99da2"/><path d="M158.6,233.794c-34.981-3.256-60.665,30.156-96.071,25.229Q55.763,232.351,49,205.672c35.406,4.928,61.091-28.485,96.072-25.231Q151.835,207.119,158.6,233.794Z" transform="translate(-48.997 -180.218)" fill="#fff"/><path d="M151.883,228.918c-31.41-.319-55.66,27.6-87.426,25.869q-5.843-23.049-11.69-46.1c31.766,1.726,56.016-26.191,87.424-25.872Q146.038,205.87,151.883,228.918Z" transform="translate(-47.499 -179.187)" fill="#63ba45"/><path d="M111.064,206.724c2.561,10.1-3.286,21.6-12.893,26.368S78.492,232.7,75.9,222.482c-2.56-10.1,3.337-21.418,12.942-26.184S108.472,196.5,111.064,206.724Z" transform="translate(-38.546 -174.552)" fill="#fff"/><path d="M49,198.435q1.616,6.372,3.231,12.74c.267.05.532.108.8.14,7.776.954,12.158-5.853,10.436-12.873A53.113,53.113,0,0,1,49,198.435Z" transform="translate(-48.997 -172.98)" fill="#fff"/><path d="M124.691,193.2c.074.007.145,0,.219.01q-1.618-6.384-3.238-12.767a54.25,54.25,0,0,0-13.787.516C109.749,188.065,116.987,192.522,124.691,193.2Z" transform="translate(-25.601 -180.218)" fill="#fff"/><path d="M57.112,227.42c-.267-.031-.521-.042-.781-.067q1.641,6.47,3.282,12.945a53.157,53.157,0,0,0,14.463.006c-.007-.034-.011-.067-.018-.1C72.241,233.032,64.924,228.38,57.112,227.42Z" transform="translate(-46.083 -161.492)" fill="#fff"/><path d="M128.188,209.3c-.074-.01-.148-.024-.224-.031-7.741-.678-12.094,6.356-10.3,13.414.007.029.022.067.031.1a54.046,54.046,0,0,1,13.786-.514Q129.834,215.785,128.188,209.3Z" transform="translate(-21.876 -168.693)" fill="#fff"/><g transform="translate(13.404 21.472)"><g transform="translate(0 23.716)"><path d="M74.68,213.9a1.65,1.65,0,0,1-1,2.072,60.693,60.693,0,0,1-13.087,2,2.149,2.149,0,0,1-1.944-1.654h0a1.25,1.25,0,0,1,1.088-1.717,60.763,60.763,0,0,0,13.086-2,1.6,1.6,0,0,1,1.856,1.3Z" transform="translate(-58.59 -212.558)" fill="#63ba45" opacity="0.5" style="mix-blend-mode:multiply;isolation:isolate"/><path d="M76.015,219.164a1.653,1.653,0,0,1-1,2.074,60.664,60.664,0,0,1-13.086,2,2.143,2.143,0,0,1-1.945-1.652h0a1.256,1.256,0,0,1,1.09-1.723,60.618,60.618,0,0,0,13.086-1.994,1.594,1.594,0,0,1,1.854,1.3Z" transform="translate(-58.06 -210.466)" fill="#63ba45" opacity="0.5" style="mix-blend-mode:multiply;isolation:isolate"/></g><g transform="translate(65.005)"><path d="M121.062,197.179a1.317,1.317,0,0,1-1.073,1.784,64.047,64.047,0,0,0-12.97,2.455,1.542,1.542,0,0,1-1.843-1.26h0a1.71,1.71,0,0,1,.989-2.114,64.19,64.19,0,0,1,12.968-2.455,2.029,2.029,0,0,1,1.928,1.59Z" transform="translate(-105.112 -195.585)" fill="#63ba45" opacity="0.5" style="mix-blend-mode:multiply;isolation:isolate"/><path d="M122.4,202.446a1.315,1.315,0,0,1-1.075,1.782,64.238,64.238,0,0,0-12.97,2.456,1.542,1.542,0,0,1-1.843-1.259h0a1.713,1.713,0,0,1,.991-2.116,64.1,64.1,0,0,1,12.967-2.454,2.031,2.031,0,0,1,1.93,1.59Z" transform="translate(-104.582 -193.492)" fill="#63ba45" opacity="0.5" style="mix-blend-mode:multiply;isolation:isolate"/></g></g><path d="M105.852,234.662c8.507-3.409,17.261-5.841,26.655-5.744q-5.846-23.051-11.691-46.1a61.871,61.871,0,0,0-19.276,3.092C102.549,198.295,104.3,218.921,105.852,234.662Z" transform="translate(-28.122 -179.187)" fill="#63ba45" opacity="0.2" style="mix-blend-mode:multiply;isolation:isolate"/><path d="M71.574,199.756a58.532,58.532,0,0,1-18.806,2.2q5.846,23.051,11.69,46.1a53.833,53.833,0,0,0,9.68-.355Q72.943,224.063,71.574,199.756Z" transform="translate(-47.499 -172.456)" fill="#63ba45" opacity="0.5" style="mix-blend-mode:screen;isolation:isolate"/></g><g transform="translate(460.369 92.278)"><path d="M394.723,106.477a97.174,97.174,0,0,1,2.544,27.622c-3.176,63.167-54.841,83.828-55.359,84.029l.567,1.477c.531-.2,53.146-21.2,56.375-85.426a98.745,98.745,0,0,0-2.857-29.142C395.391,104.184,394.538,105.165,394.723,106.477Z" transform="translate(-341.908 -46.784)" fill="#fff"/><path d="M370.143,86.982a114.807,114.807,0,0,1,10.333,19.165c.355.469,1.411-.724,1.153-1.333a116.575,116.575,0,0,0-10.4-19.058C370.431,85.2,369.82,85.835,370.143,86.982Z" transform="translate(-330.725 -54.399)" fill="#fff"/><path d="M375.46,90.812c1.1,1.146,1.646-.62,1.023-1.232a138.633,138.633,0,0,0-29.136-26.324l-.831,1.35A137.3,137.3,0,0,1,375.46,90.812Z" transform="translate(-340.078 -63.256)" fill="#fff"/><path d="M395.7,126.882l-12.311,14.442-9.027-16.445,10.392,5.266Z" transform="translate(-329.013 -38.774)" fill="#fff"/></g><g transform="translate(427.242 221.117)"><path d="M318.2,179.431l18.166,10.489V168.941L318.2,179.431l18.166,10.489V168.941Z" transform="translate(-318.2 -150.107)" fill="#fff"/><g transform="translate(12.251)"><path d="M384.777,184.366a28.9,28.9,0,1,1-28.9-28.9A28.9,28.9,0,0,1,384.777,184.366Z" transform="translate(-326.968 -155.462)" fill="#fff"/><path d="M366.76,170.388c-6.6-7.01-13.924.5-14.908,3.713-.982-3.21-8.06-11.364-14.906-3.713-8.065,9.011,14.906,24.757,14.906,24.757S374.85,178.978,366.76,170.388Z" transform="translate(-323.686 -150.795)" fill="#e53659"/><path d="M347.136,174.02c-.007-.027-.024-.059-.034-.087v21.108l.034.024s23-16.167,14.908-24.757C355.441,163.3,348.119,170.81,347.136,174.02Z" transform="translate(-318.969 -150.715)" fill="#e6e6e6" style="mix-blend-mode:multiply;isolation:isolate"/></g></g><g transform="translate(412.241 61.044)"><path d="M360.755,63.145c-.467,1.562-2.434,2.354-4.4,1.769h0c-1.969-.584-3.184-2.325-2.722-3.887l3.184-10.688c.464-1.562.841-2.828,1.544-2.619l2.856.851c1.966.584,3.179,2.325,2.716,3.886Z" transform="translate(-289.16 -38.203)" fill="#c6c6c6"/><path d="M337.988,56.37c-.464,1.562-2.434,2.354-4.4,1.77h0c-1.966-.585-3.183-2.326-2.716-3.889l3.18-10.688c.464-1.561.843-2.827,1.547-2.619l2.853.85c1.966.585,3.182,2.326,2.718,3.889Z" transform="translate(-298.205 -40.894)" fill="#c6c6c6"/><path d="M377.549,125.85a6.049,6.049,0,0,1-7.671,3.752l-57.817-17.2a6.051,6.051,0,0,1-4.373-7.336l17.38-58.407a6.052,6.052,0,0,1,7.675-3.752l57.816,17.2a6.049,6.049,0,0,1,4.371,7.337Z" transform="translate(-307.464 -40.221)" fill="#c99da2"/><path d="M386.837,60.107,329.021,42.9a6.068,6.068,0,0,0-7.685,3.8l-4.5,15.135L384.32,81.916l2.371.706,4.5-15.135A6.07,6.07,0,0,0,386.837,60.107Z" transform="translate(-303.743 -40.22)" fill="#ffccc4" opacity="0.5" style="mix-blend-mode:multiply;isolation:isolate"/><path d="M384.672,59.467,328.821,42.846a5.806,5.806,0,0,0-7.387,3.541l-4.6,15.467L384.32,81.937l4.6-15.467A5.806,5.806,0,0,0,384.672,59.467Z" transform="translate(-303.743 -40.241)" fill="#e57275"/><path d="M338.668,54.319a5.867,5.867,0,1,1-3.952-7.3A5.87,5.87,0,0,1,338.668,54.319Z" transform="translate(-299.634 -38.569)" fill="#95344d"/><path d="M308.076,97.759a5.807,5.807,0,0,0,4.251,7l55.85,16.619a5.807,5.807,0,0,0,7.387-3.541l12.319-41.389L320.393,56.37Z" transform="translate(-307.305 -34.757)" fill="#fff"/><path d="M335.293,55.411a2.987,2.987,0,0,1-3.741,1.965h0a2.983,2.983,0,0,1-2.057-3.69L332.674,43a2.988,2.988,0,0,1,3.741-1.966h0a2.992,2.992,0,0,1,2.06,3.693Z" transform="translate(-298.76 -40.902)" fill="#fff"/><path d="M361.434,61.094a5.868,5.868,0,1,1-3.95-7.3A5.87,5.87,0,0,1,361.434,61.094Z" transform="translate(-290.589 -35.877)" fill="#95344d"/><path d="M358.059,62.186a2.988,2.988,0,0,1-3.743,1.965h0a2.99,2.99,0,0,1-2.057-3.69l3.18-10.688a2.989,2.989,0,0,1,3.742-1.966h0a2.989,2.989,0,0,1,2.06,3.692Z" transform="translate(-289.716 -38.211)" fill="#fff"/><g transform="translate(6.956 28.541)"><path d="M326.82,67.758a2.716,2.716,0,0,1-3.412,1.762l-2.357-.7a2.716,2.716,0,0,1-1.893-3.341l.675-2.268a2.717,2.717,0,0,1,3.414-1.762l2.356.7a2.718,2.718,0,0,1,1.893,3.341Z" transform="translate(-309.817 -61.328)" fill="#e57275"/><path d="M324.587,75.264a2.716,2.716,0,0,1-3.412,1.762l-2.357-.7a2.718,2.718,0,0,1-1.895-3.34l.675-2.269a2.716,2.716,0,0,1,3.411-1.762l2.359.7A2.713,2.713,0,0,1,325.261,73Z" transform="translate(-310.704 -58.346)" fill="#e57275"/><path d="M322.355,82.77a2.721,2.721,0,0,1-3.415,1.763l-2.354-.7a2.716,2.716,0,0,1-1.9-3.341l.676-2.268a2.715,2.715,0,0,1,3.411-1.761l2.357.7a2.717,2.717,0,0,1,1.895,3.341Z" transform="translate(-311.592 -55.364)" fill="#e57275"/><path d="M320.214,89.964a2.718,2.718,0,0,1-3.414,1.761l-2.356-.7a2.715,2.715,0,0,1-1.895-3.34l.675-2.268a2.719,2.719,0,0,1,3.412-1.763l2.359.7a2.718,2.718,0,0,1,1.893,3.341Z" transform="translate(-312.442 -52.506)" fill="#e57275"/></g><g transform="translate(18.796 32.064)"><path d="M335.294,70.279a2.717,2.717,0,0,1-3.412,1.762l-2.357-.7A2.717,2.717,0,0,1,327.631,68l.675-2.268a2.713,2.713,0,0,1,3.411-1.761l2.359.7a2.716,2.716,0,0,1,1.892,3.34Z" transform="translate(-318.291 -63.85)" fill="#98bdec"/><path d="M333.06,77.785a2.716,2.716,0,0,1-3.412,1.763l-2.354-.7a2.718,2.718,0,0,1-1.9-3.341l.676-2.269a2.717,2.717,0,0,1,3.411-1.762l2.359.7a2.715,2.715,0,0,1,1.892,3.34Z" transform="translate(-319.179 -60.868)" fill="#98bdec"/><path d="M330.828,85.292a2.717,2.717,0,0,1-3.411,1.762l-2.359-.7a2.713,2.713,0,0,1-1.895-3.338l.675-2.269a2.718,2.718,0,0,1,3.414-1.762l2.357.7a2.715,2.715,0,0,1,1.893,3.338Z" transform="translate(-320.066 -57.885)" fill="#98bdec"/><path d="M328.685,92.484a2.717,2.717,0,0,1-3.411,1.763l-2.357-.7a2.718,2.718,0,0,1-1.893-3.342l.675-2.266a2.716,2.716,0,0,1,3.412-1.762l2.357.7a2.718,2.718,0,0,1,1.893,3.341Z" transform="translate(-320.916 -55.028)" fill="#98bdec"/></g><g transform="translate(30.637 35.589)"><path d="M343.768,72.8a2.719,2.719,0,0,1-3.415,1.761l-2.354-.7a2.717,2.717,0,0,1-1.893-3.341l.676-2.266a2.714,2.714,0,0,1,3.411-1.762l2.357.7a2.717,2.717,0,0,1,1.893,3.338Z" transform="translate(-326.765 -66.372)" fill="#98bdec"/><path d="M341.533,80.307a2.716,2.716,0,0,1-3.412,1.762l-2.356-.7a2.718,2.718,0,0,1-1.893-3.342l.675-2.268A2.716,2.716,0,0,1,337.959,74l2.357.7a2.716,2.716,0,0,1,1.892,3.34Z" transform="translate(-327.653 -63.39)" fill="#63ba45"/><path d="M339.3,87.814a2.715,2.715,0,0,1-3.411,1.762l-2.356-.7a2.716,2.716,0,0,1-1.895-3.341l.675-2.269a2.718,2.718,0,0,1,3.412-1.761l2.357.7a2.714,2.714,0,0,1,1.892,3.34Z" transform="translate(-328.54 -60.408)" fill="#98bdec"/><path d="M337.159,95a2.717,2.717,0,0,1-3.412,1.763l-2.354-.7a2.718,2.718,0,0,1-1.895-3.341l.675-2.269a2.717,2.717,0,0,1,3.412-1.761l2.356.7a2.719,2.719,0,0,1,1.895,3.34Z" transform="translate(-329.39 -57.551)" fill="#98bdec"/></g><g transform="translate(42.478 39.112)"><path d="M352.243,75.323a2.719,2.719,0,0,1-3.415,1.762l-2.356-.7a2.714,2.714,0,0,1-1.892-3.341l.675-2.268a2.717,2.717,0,0,1,3.412-1.762l2.354.7a2.719,2.719,0,0,1,1.9,3.341Z" transform="translate(-335.239 -68.894)" fill="#98bdec"/><path d="M350.009,82.829a2.719,2.719,0,0,1-3.416,1.762l-2.354-.7a2.717,2.717,0,0,1-1.893-3.341l.676-2.268a2.715,2.715,0,0,1,3.411-1.761l2.356.7a2.715,2.715,0,0,1,1.895,3.34Z" transform="translate(-336.127 -65.911)" fill="#63ba45"/><path d="M347.776,90.337a2.715,2.715,0,0,1-3.414,1.761l-2.356-.7a2.717,2.717,0,0,1-1.895-3.341l.674-2.269a2.719,2.719,0,0,1,3.415-1.762l2.354.7a2.72,2.72,0,0,1,1.9,3.341Z" transform="translate(-337.014 -62.93)" fill="#98bdec"/><path d="M345.636,97.528a2.718,2.718,0,0,1-3.415,1.761l-2.354-.7a2.717,2.717,0,0,1-1.895-3.34l.676-2.269a2.715,2.715,0,0,1,3.412-1.761l2.356.7a2.719,2.719,0,0,1,1.893,3.342Z" transform="translate(-337.864 -60.072)" fill="#98bdec"/></g><g transform="translate(54.319 42.634)"><path d="M360.717,77.846a2.719,2.719,0,0,1-3.415,1.762l-2.356-.7a2.714,2.714,0,0,1-1.892-3.341l.674-2.268a2.716,2.716,0,0,1,3.411-1.763l2.36.7a2.719,2.719,0,0,1,1.895,3.34Z" transform="translate(-343.713 -71.414)" fill="#98bdec"/><path d="M358.482,85.351a2.717,2.717,0,0,1-3.412,1.762l-2.357-.7a2.717,2.717,0,0,1-1.892-3.341l.673-2.268a2.719,2.719,0,0,1,3.411-1.762l2.357.7a2.717,2.717,0,0,1,1.9,3.34Z" transform="translate(-344.601 -68.432)" fill="#63ba45"/><path d="M356.249,92.858a2.717,2.717,0,0,1-3.411,1.761l-2.359-.7a2.714,2.714,0,0,1-1.892-3.341l.672-2.269a2.717,2.717,0,0,1,3.411-1.759l2.359.7a2.719,2.719,0,0,1,1.895,3.341Z" transform="translate(-345.488 -65.449)" fill="#98bdec"/><path d="M354.109,100.051a2.719,2.719,0,0,1-3.414,1.761l-2.357-.7a2.719,2.719,0,0,1-1.893-3.341l.676-2.268a2.715,2.715,0,0,1,3.411-1.762l2.357.7a2.72,2.72,0,0,1,1.895,3.342Z" transform="translate(-346.339 -62.592)" fill="#98bdec"/></g><path d="M377.579,54.887,374.92,54.1l-40.234,61.4,22.835,6.8a5.807,5.807,0,0,0,7.387-3.541l12.319-41.389,4.6-15.467A5.806,5.806,0,0,0,377.579,54.887Z" transform="translate(-296.65 -35.661)" fill="#fff" opacity="0.3" style="mix-blend-mode:screen;isolation:isolate"/></g><g transform="translate(451.012 170.384)"><path d="M372.13,125.752l-3.265-3.707-11.736,10.341c-3.366,1.828-7.13,3.762-7.424,3.433a16.605,16.605,0,0,0-3.154-1.135l-4.84-5.173-3.1,2.9c-1.851-.51-3.186-.864-3.186-.864l-.212,4.04,14.342,15.332,25.192-22.2.214-4.04Z" transform="translate(-335.212 -118.006)" fill="#4a7c45"/><path d="M344.315,130.17l-2.6-2.781-3.1,2.9c-1.851-.51-3.186-.864-3.186-.864l-.212,4.04L349.554,148.8l.212-4.041Z" transform="translate(-335.212 -115.883)" fill="#2a753e"/><g transform="translate(0.213)"><path d="M349.706,148.029,335.364,132.7l6.5-6.078,8.438,9.024,18.712-16.488,5.884,6.675Z" transform="translate(-335.364 -119.154)" fill="#63ba45"/></g><path d="M341.865,124.5l-6.5,6.078,14.341,15.332.6-12.387Z" transform="translate(-335.152 -117.032)" fill="#63ba45" opacity="0.5" style="mix-blend-mode:screen;isolation:isolate"/></g><g transform="translate(88.065 33.884)"><path d="M105.547,41.058c-2.269,8.259-22.58,23.994-22.58,23.994s-9.423-23.9-7.153-32.161a15.417,15.417,0,1,1,29.733,8.167Z" transform="translate(-75.461 -21.465)" fill="#e53659"/><path d="M101.627,25.765,78.611,54.6c1.636,5.015,3.1,8.743,3.1,8.743s20.311-15.735,22.58-23.994A15.51,15.51,0,0,0,101.627,25.765Z" transform="translate(-74.21 -19.756)" fill="#b3404d" opacity="0.2" style="mix-blend-mode:multiply;isolation:isolate"/><path d="M100.711,39.4a10.954,10.954,0,1,1-7.663-13.463A10.956,10.956,0,0,1,100.711,39.4Z" transform="translate(-73.98 -19.845)" fill="#95344d"/><path d="M99.205,38.144A10.278,10.278,0,1,1,92.016,25.51,10.277,10.277,0,0,1,99.205,38.144Z" transform="translate(-74.05 -20.004)" fill="#fff"/></g><path d="M95.9,138.7H90.962V133.76a1.545,1.545,0,0,0-3.089,0V138.7H82.931a1.545,1.545,0,1,0,0,3.089h4.941v4.941a1.545,1.545,0,0,0,3.089,0V141.79H95.9a1.545,1.545,0,0,0,0-3.089Z" transform="translate(14.958 56.419)" fill="#fff"/><path d="M333.556,21.8h-4.941V16.86a1.545,1.545,0,1,0-3.089,0V21.8h-4.942a1.545,1.545,0,0,0,0,3.089h4.942v4.941a1.545,1.545,0,0,0,3.089,0V24.891h4.941a1.545,1.545,0,0,0,0-3.089Z" transform="translate(109.375 9.976)" fill="#fff"/><g transform="translate(58.659 81.445)"><path d="M60.381,67.433a5.965,5.965,0,1,1,5.965-5.965A5.972,5.972,0,0,1,60.381,67.433Zm0-9.979A4.014,4.014,0,1,0,64.4,61.468,4.019,4.019,0,0,0,60.381,57.454Z" transform="translate(-54.416 -55.503)" fill="#63ba45"/></g><g transform="translate(512.444 251.098)"><path d="M385.142,188.848a5.964,5.964,0,1,1,5.964-5.965A5.971,5.971,0,0,1,385.142,188.848Zm0-9.979a4.014,4.014,0,1,0,4.014,4.014A4.019,4.019,0,0,0,385.142,178.868Z" transform="translate(-379.177 -176.919)" fill="#606fc7"/></g><g transform="translate(471.722 43.707)"><path d="M356,40.424a5.964,5.964,0,1,1,5.962-5.965A5.971,5.971,0,0,1,356,40.424Zm0-9.979a4.014,4.014,0,1,0,4.013,4.014A4.02,4.02,0,0,0,356,30.444Z" transform="translate(-350.033 -28.495)" fill="#e53659"/></g><g transform="translate(51.778 251.557)"><path d="M55.457,189.176a5.964,5.964,0,1,1,5.962-5.964A5.97,5.97,0,0,1,55.457,189.176Zm0-9.978a4.014,4.014,0,1,0,4.014,4.014A4.02,4.02,0,0,0,55.457,179.2Z" transform="translate(-49.492 -177.247)" fill="#e53659"/></g><g transform="translate(399.571 24.894)"><path d="M304.362,26.961A5.965,5.965,0,1,1,310.326,21,5.972,5.972,0,0,1,304.362,26.961Zm0-9.979A4.014,4.014,0,1,0,308.376,21,4.019,4.019,0,0,0,304.362,16.982Z" transform="translate(-298.397 -15.031)" fill="#98bdec"/></g></g><path d="M456.761,438.773l-1.367-2.484h-4.85v-2.41h3.527l-4.1-7.466h3.718l4.953,9.068,5-9.068h3.718l-4.115,7.466h3.542v2.41h-4.865l-1.381,2.484h6.246v2.41h-6.54V449.1h-3.189v-7.921h-6.511v-2.41Z" transform="translate(538.271 353.695) rotate(-30)" fill="#63ba45"/></g></svg>