<svg xmlns="http://www.w3.org/2000/svg" width="126" height="138" viewBox="0 0 126 138"><path d="M67,2a9.046,9.046,0,0,0-9,9,9.025,9.025,0,0,0,6,8.438V41h6V19.438A9.025,9.025,0,0,0,76,11,9.046,9.046,0,0,0,67,2Zm0,6a3,3,0,1,1-3,3A2.956,2.956,0,0,1,67,8ZM13,29a9,9,0,0,0,0,18,8.9,8.9,0,0,0,5.162-1.664L34,55.59V50a9.189,9.189,0,0,1,.129-1.26L21.613,40.449A8.781,8.781,0,0,0,22,38,9.046,9.046,0,0,0,13,29Zm108,0a9.046,9.046,0,0,0-9,9,8.784,8.784,0,0,0,.387,2.455L99.871,48.746A9.059,9.059,0,0,1,100,50v5.59l15.838-10.254A8.9,8.9,0,0,0,121,47a9,9,0,1,0,0-18ZM13,35a3,3,0,1,1-3,3A2.956,2.956,0,0,1,13,35Zm108,0a3,3,0,1,1-3,3A2.956,2.956,0,0,1,121,35ZM43,47a3,3,0,0,0-3,3V92a3,3,0,0,0,3,3H91a3,3,0,0,0,3-3V50a3,3,0,0,0-3-3ZM61,59H73a3,3,0,0,1,0,6H61a3,3,0,0,1,0-6ZM34,86.41,18.162,96.664A8.9,8.9,0,0,0,13,95a9,9,0,1,0,9,9,8.786,8.786,0,0,0-.387-2.455l12.516-8.291A9.058,9.058,0,0,1,34,92Zm66,0V92a9.19,9.19,0,0,1-.129,1.26l12.516,8.291A8.784,8.784,0,0,0,112,104a9,9,0,1,0,9-9,8.9,8.9,0,0,0-5.162,1.664ZM13,101a3,3,0,1,1-3,3A2.956,2.956,0,0,1,13,101Zm51,0v21.563a9,9,0,1,0,6,0V101Zm57,0a3,3,0,1,1-3,3A2.956,2.956,0,0,1,121,101ZM67,128a3,3,0,1,1-3,3A2.956,2.956,0,0,1,67,128Z" transform="translate(-4 -2)" fill="#0275d8"/></svg>