<svg xmlns="http://www.w3.org/2000/svg" width="51.136" height="54.867" viewBox="0 0 51.136 54.867"><path d="M46.587,38.379c-3.312-2.835-6.682-4.558-9.953-1.723l-1.957,1.706c-1.43,1.246-4.09,7.051-14.368-4.784C10.03,21.77,16.144,19.93,17.583,18.7l1.965-1.715C22.8,14.15,21.572,10.579,19.222,6.9L17.808,4.675C15.45,1.011,12.874-1.4,9.612,1.43L7.848,2.977A16.523,16.523,0,0,0,1.391,13.933c-1.179,7.786,2.543,16.71,11.048,26.5S29.267,55.14,37.145,55.056A16.64,16.64,0,0,0,48.9,50.189l1.765-1.547c3.262-2.827,1.238-5.712-2.083-8.548Z" transform="translate(-1.178 -0.191)" fill="#fff"/></svg>