<svg xmlns="http://www.w3.org/2000/svg" width="286.427" height="48.06" viewBox="0 0 286.427 48.06"><g transform="translate(-406.694 -473.85)" opacity="0.53" style="isolation:isolate"><g transform="translate(406.694 473.85)"><path d="M446.527,521.858c-12.661,0-25.323-.042-37.983.052-1.63.012-1.811-.481-1.774-1.879.1-3.683.034-7.37.034-11.055.711-.958,1.761-.846,2.768-.88,2.382-.081,2.753-.465,2.79-2.878.026-1.726-.029-3.453.059-5.18a1.826,1.826,0,0,1,1.888-1.919c2.31-.273,4.155.207,5.513,2.334,1.214,1.9,2.763,3.586,4.022,5.461a4.725,4.725,0,0,0,4.732,2.185c1.676-.142,1.973-.6,1-1.952-1.6-2.222-3.372-4.315-4.962-6.546-.173-.242-.373-.465-.543-.709-1.307-1.878-1.295-2.068.247-3.82,3.882-4.41,4.169-9.643.694-14.174-2.211-2.882-5.383-3.8-8.828-3.942-2.319-.1-4.644-.012-6.967-.031a2.687,2.687,0,0,1-2.411-.873c-.4-1.835.31-2.211,2.148-2.2,16.1.092,32.208.053,48.312.053a4.692,4.692,0,0,1,.361.425,5.316,5.316,0,0,1,.514,3.124q.019,13.5.007,27c0,.6-.016,1.192.039,1.787.125,1.338.95,1.836,2.2,1.813a1.808,1.808,0,0,0,2.032-1.793c.116-1.547.028-3.1.053-4.647a11.4,11.4,0,0,1,.1-1.962c.268-1.4,1.256-1.781,2.3-.811a24.365,24.365,0,0,1,2.445,2.84c1.288,1.641,2.674,3.2,3.952,4.848,1.5,1.928,3.565,1.688,5.572,1.451,1.044-.123.717-.929.3-1.484-.889-1.194-1.886-2.308-2.886-3.407-1.805-1.983-3.493-4.066-5.256-6.084-1.224-1.4-1.216-2.148-.011-3.6q3.191-3.854,6.335-7.747c.352-.437,1-.869.607-1.53-.307-.518-.965-.327-1.487-.39a5.381,5.381,0,0,0-5.6,2.647,36.991,36.991,0,0,1-3.928,4.859c-.4.434-.818.926-1.52.7a1.342,1.342,0,0,1-.849-1.435c-.13-4.945-.113-9.891-.014-14.836a2.6,2.6,0,0,1,.458-1.338,4.608,4.608,0,0,1,.362-.425H690.772c2.326,0,2.326,0,2.326,2.326v.895c-.672.379-1.109-.169-1.625-.41-1.818-.849-3.165-.128-3.5,1.875a11.014,11.014,0,0,0-.078,1.784q-.005,11.978,0,23.956a10.486,10.486,0,0,0,.1,1.961c.4,2.085,1.824,2.732,3.657,1.643.453-.269.835-.719,1.44-.391,0,4.473-.024,8.947.023,13.42.008.77-.148,1.055-.919.9a3.711,3.711,0,0,0-.714-.007H447.6c-.005-1.135.885-1.1,1.625-1.211,3.891-.578,7.823-.728,11.735-1.087,7.885-.724,15.776-1.376,23.665-2.046,7.533-.639,15.069-1.259,22.6-1.915,4.677-.408,9.373-.442,14.046-.758,2.758-.186,5.516-.4,8.281-.5a9.948,9.948,0,0,1,1.565.084q-41.883.155-83.768.091a12.617,12.617,0,0,0-5.028.884c-.418.76.267,1.074.632,1.463,1.007,1.072,2.085,2.077,3.092,3.15C446.536,520.535,447.065,521.063,446.527,521.858Z" transform="translate(-406.694 -473.85)" fill="#fefefe"/><path d="M407,480c3.334.021,6.671-.034,10,.081,4.644.16,8.28,2.128,10.346,6.423a11.044,11.044,0,0,1-1,11.67,7.832,7.832,0,0,1-.541.71c-1.817,2.113-1.815,2.11-.154,4.3q3.127,4.13,6.24,8.271c.275.367.828.736.626,1.2-.257.584-.945.24-1.441.327-.058.01-.121-.008-.178,0-4.105.766-7.071-.646-8.99-4.437-.689-1.36-2.011-2.4-2.714-3.751-1.124-2.169-2.946-2.043-4.877-1.938-1.069.058-1.023.8-1.027,1.516-.013,2.323-.063,4.647.01,6.967.039,1.261-.432,1.673-1.66,1.6-1.543-.087-3.1-.021-4.644-.02Z" transform="translate(-406.89 -477.799)" fill="#5c5c5c"/><path d="M505.217,593.987c-2.165-2.6-4.753-4.778-7.113-7.182-.049-.281.067-.463.349-.489.475-.044.952-.022,1.429-.022q43.247,0,86.494.03c.578,0,1.424-.539,1.8.454l-36.995,3.135-31.3,2.65q-6.4.542-12.8,1.1a2.854,2.854,0,0,0-.782.325Z" transform="translate(-465.384 -545.979)" fill="#5d5d5d"/><path d="M1196.116,509.8c-.843,1.546-2.006,2.612-3.885,2.025-1.85-.579-2.185-2.114-2.18-3.86q.039-13.223,0-26.444c0-1.705.2-3.254,2.055-3.942,1.908-.706,3.009.452,4.009,1.8Z" transform="translate(-909.712 -476.109)" fill="#5c5c5c"/><path d="M548.04,474.391,548,474h6.084l-.03.384A5.574,5.574,0,0,1,548.04,474.391Z" transform="translate(-497.431 -473.946)" fill="#adadad"/><path d="M495.982,510.753c0,3.813-.038,7.626.021,11.438.019,1.219-.361,1.876-1.61,1.605-1.469-.318-3.179.868-4.457-.75-.219-.277-.672.06-.972.232-4.934,2.841-11.447.49-14.494-4.882a15.767,15.767,0,0,1,1.393-17.449,10.662,10.662,0,0,1,12.9-2.953,1.645,1.645,0,0,0,1.638-.07c1.551-.693,3.386-.4,5.08-.148.744.108.487.987.491,1.538C495.992,503.127,495.982,506.94,495.982,510.753Z" transform="translate(-448.935 -488.691)" fill="#5c5c5c"/><path d="M548.023,475.081l6.013-.007v16.948l.4.18c1.753-2.2,3.614-4.329,5.222-6.633a4.13,4.13,0,0,1,4.165-2.024c1.744.16,3.514.034,5.767.034-1.892,2.3-3.461,4.213-5.038,6.12-1.329,1.608-2.593,3.278-4.025,4.788-1.026,1.082-1.047,1.8-.015,2.945,3.2,3.536,6.26,7.191,9.364,10.81.331.385.829.694.8,1.532-2.478,0-4.95.014-7.421-.01-.612-.006-.868-.574-1.2-.979-2.159-2.622-4.3-5.255-6.472-7.87-.359-.433-.587-1.041-1.483-1.187,0,2.774-.076,5.491.03,8.2.058,1.481-.413,1.94-1.9,1.926-4.243-.042-4.249.021-4.243-4.2Q547.994,490.367,548.023,475.081Z" transform="translate(-497.414 -474.636)" fill="#5c5c5c"/><path d="M737.053,512.711c-2.325,0-4.651.031-6.974-.013-1.184-.022-1.48.433-1.1,1.517a6.588,6.588,0,0,0,4.655,4.546,5.344,5.344,0,0,0,5.765-1.941c.837-1.015,1.449-.927,2.352-.281.628.448,1.331.791,2,1.181,1.851,1.082,1.864,1.112.472,2.653-3.5,3.871-7.841,5.319-12.766,3.642-5.138-1.749-7.927-5.75-8.7-11.054a15.524,15.524,0,0,1,1.34-9.242,11.268,11.268,0,0,1,21.095,1.358,16.734,16.734,0,0,1,.747,6c-.049,1.182-.477,1.694-1.731,1.653-2.382-.078-4.768-.023-7.153-.023Z" transform="translate(-609.525 -488.733)" fill="#5c5c5c"/><path d="M1004.473,524.355c-5.336,4.092-11.3,3.091-15.035-2.4-3.924-5.768-2.957-14.076,2.142-18.4,4.085-3.466,8.627-3.567,12.837-.225.759-1.008,1.327-2.308,2.918-2.233,2.073.1,3.229,1.36,3.237,3.682.019,5.96-.015,11.921.021,17.88.01,1.739-.259,3.276-2.163,3.843C1006.553,527.054,1005.367,526.049,1004.473,524.355Z" transform="translate(-779.343 -491.208)" fill="#5c5c5c"/><path d="M1133.383,515.727c-2.145,0-4.29.016-6.435-.007-1.08-.011-1.319.434-1.045,1.446a5.638,5.638,0,0,0,9.172,2.718c.716-.633,1.32-1.4,2.42-1.292a3.008,3.008,0,0,1,2.766,1.94,2.9,2.9,0,0,1-.965,3.215c-4.867,4.925-13.682,4.229-17.817-1.417a14.923,14.923,0,0,1,.735-17.8c4.9-5.654,13.6-4.842,17.685,1.656a14.064,14.064,0,0,1,2.137,6.923c.084,1.746-.6,2.529-2.4,2.582-2.084.061-4.171.014-6.257.014Z" transform="translate(-864.014 -491.126)" fill="#5c5c5c"/><path d="M632.778,511.693c0,3.754-.074,7.51.035,11.261.045,1.552-.522,2.047-1.946,1.822-1.473-.232-3.066.542-4.453-.55-.132-.1-.561.111-.823.237-6.415,3.1-14.029-1.278-14.524-9.449-.306-5.047-.068-10.126-.106-15.19-.007-.952.429-1.18,1.3-1.239,4.77-.326,4.768-.345,4.769,4.362,0,3.694-.058,7.39.022,11.083.081,3.722,3.108,6.04,6.343,4.972a5.027,5.027,0,0,0,3.314-5.021c.053-4.468.089-8.939-.009-13.406-.035-1.583.448-2.04,2.016-2.014,4.066.067,4.067,0,4.067,4.016Z" transform="translate(-537.826 -489.653)" fill="#5c5c5c"/><path d="M815.662,515.007c0,2.846-.036,5.171.016,7.494.025,1.09-.252,1.585-1.478,1.625-4.588.152-4.587.2-4.587-4.383,0-3.337.012-6.674-.009-10.011a10.68,10.68,0,0,0-.208-2.3c-.616-2.688-2.694-4.293-5.111-4.027a4.877,4.877,0,0,0-4.339,4.888q-.127,6.969-.016,13.942c.026,1.522-.5,1.911-1.951,1.9-4.125-.039-4.125.018-4.125-4.14,0-6.674.064-13.349-.042-20.021-.029-1.789.57-2.366,2.235-2.113,1.368.208,2.834-.438,4.139.512.169.123.655-.176.988-.3,6.825-2.479,13.148,1.324,14.241,8.533C815.864,509.575,815.543,512.556,815.662,515.007Z" transform="translate(-655.273 -488.918)" fill="#5c5c5c"/><path d="M1069.439,517.3q1.876-6.409,3.751-12.818c.863-2.951,2.325-4.161,4.356-3.6,2.058.568,2.619,2.34,1.668,5.35q-2.665,8.433-5.35,16.859c-.817,2.558-2.359,3.871-4.506,3.9-2.195.034-3.873-1.315-4.717-3.909q-2.878-8.833-5.691-17.688c-.708-2.225.058-3.98,1.885-4.505s3.43.5,4.1,2.719c1.19,3.933,2.329,7.882,3.494,11.823.182.615.386,1.225.58,1.837Z" transform="translate(-825.361 -491.121)" fill="#5c5c5c"/><path d="M889.582,503.054c0-3.573-.057-7.148.029-10.719.033-1.364-.439-1.784-1.745-1.7a38.823,38.823,0,0,1-4.286,0c-1.978-.094-3.194-1.267-3.144-2.923A2.859,2.859,0,0,1,883.592,485q9.022-.05,18.044,0a2.743,2.743,0,0,1,3.052,2.776c.026,1.649-1.06,2.733-3,2.841a39.877,39.877,0,0,1-4.464.013c-1.283-.073-1.612.458-1.6,1.665.044,6.788.022,13.578.017,20.366a11.894,11.894,0,0,1-.063,1.783,3,3,0,0,1-5.97-.5c-.047-3.632-.014-7.265-.014-10.9Z" transform="translate(-710.898 -480.995)" fill="#5c5c5c"/><path d="M681.193,499.542c0-1.67-.051-3.341.017-5.008.047-1.152-.209-1.881-1.545-1.69-1.418.2-1.765-.538-1.65-1.782a10.727,10.727,0,0,0,0-2.144c-.171-1.562.155-2.582,2.053-2.3.846.127,1.153-.36,1.131-1.176-.032-1.192-.006-2.385,0-3.577,0-.358-.125-.813.045-1.057,1.257-1.8,3.12-.468,4.673-.827.813-.187,1.361.18,1.334,1.164-.039,1.37.033,2.743-.011,4.113-.031.975.319,1.345,1.334,1.4,3.745.2,3.743.233,3.738,3.941,0,2.374,0,2.374-2.457,2.384-2.6.011-2.605.011-2.605,2.637,0,2.862-.037,5.725.023,8.586.053,2.527,1.418,3.535,3.829,2.949.336-.082.755-.385,1.007-.069,1.186,1.489,2.352,3,3.447,4.553.385.546-.292.683-.612.83-7.378,3.373-13.395-1.219-13.712-7.565-.089-1.784-.014-3.577-.014-5.366Z" transform="translate(-580.891 -477.701)" fill="#5c5c5c"/><path d="M949.99,514.033c0-3.036.014-6.073-.006-9.109-.01-1.46.226-2.835,1.805-3.323a2.6,2.6,0,0,1,3.424,1.462c.328.708.658.458,1.063.106a8.3,8.3,0,0,1,3.45-1.8,2.771,2.771,0,0,1,3.575,1.789,2.724,2.724,0,0,1-2,3.443c-4.167,1.428-5.231,2.921-5.233,7.342,0,2.977,0,5.953,0,8.931-.006,2.819-1.12,4.378-3.092,4.347-1.93-.03-2.984-1.524-2.989-4.256Q949.983,518.5,949.99,514.033Z" transform="translate(-755.558 -491.444)" fill="#5c5c5c"/><path d="M587.943,586.563a4.165,4.165,0,0,0-2.434-.364q-42.7-.008-85.408,0a3.11,3.11,0,0,0-2.23.389c-.2-.3-.224-.6.189-.653a13.667,13.667,0,0,1,1.78-.078q45.024,0,90.049.005a4.519,4.519,0,0,1,2.511.393C590.61,586.235,589.322,586.768,587.943,586.563Z" transform="translate(-465.152 -545.765)" fill="#a9a9a9"/><path d="M424.323,502.454a2.518,2.518,0,0,1,.01-.713c.417-1.354-1.057-3.429.9-4.059,3.043-.977,6.238.293,7.476,2.444a4.947,4.947,0,0,1-.762,6.09c-2,1.964-4.492,1.594-6.92,1.436-.7-.046-.682-.735-.689-1.264-.019-1.311-.006-2.623-.006-3.934Z" transform="translate(-417.928 -488.939)" fill="#fefefe"/><path d="M489.816,522.527a7.869,7.869,0,0,1,2.022-5.87,4.91,4.91,0,0,1,7.525.16c2.289,2.675,2.478,7.889.388,10.71a5.1,5.1,0,0,1-8.481-.085A7.933,7.933,0,0,1,489.816,522.527Z" transform="translate(-460.067 -500.261)" fill="#fefefe"/><path d="M745.832,517.587c-1.366,0-2.734-.032-4.1.012-.924.03-1.144-.3-.856-1.163a5.526,5.526,0,0,1,5.275-3.533,5.124,5.124,0,0,1,4.829,3.553c.31.937-.013,1.156-.872,1.138C748.684,517.566,747.258,517.587,745.832,517.587Z" transform="translate(-621.208 -498.927)" fill="#fefefe"/><path d="M1015.014,524.112a9.137,9.137,0,0,1-1.619,5.32,5.03,5.03,0,0,1-8.539-.385,8.829,8.829,0,0,1-.055-9.794c2.183-3.593,6.694-3.531,8.929.036A9.562,9.562,0,0,1,1015.014,524.112Z" transform="translate(-789.823 -501.292)" fill="#fefefe"/><path d="M1142.742,520.177c-1.009,0-2.019.014-3.028,0-1.689-.027-1.865-.325-1.062-1.851a4.492,4.492,0,0,1,4.5-2.586,4.315,4.315,0,0,1,3.963,2.819c.48,1.067.413,1.7-.987,1.63C1145,520.133,1143.87,520.176,1142.742,520.177Z" transform="translate(-876.411 -500.743)" fill="#fefefe"/></g></g></svg>