<svg xmlns="http://www.w3.org/2000/svg" width="102.442" height="88.177" viewBox="0 0 102.442 88.177"><path d="M103.966,48.9C100.893,25.595,82.153,6.981,59.183,4.344,28.225.788,2,25.33,2,56.1A52.4,52.4,0,0,0,13.659,89.167a7.97,7.97,0,0,0,6.178,3.01H86.645a7.564,7.564,0,0,0,5.871-2.665A52.639,52.639,0,0,0,103.966,48.9ZM69.51,19.39a3.905,3.905,0,0,1,5.382-1.467A4.048,4.048,0,0,1,76.334,23.4a3.905,3.905,0,0,1-5.382,1.467A4.048,4.048,0,0,1,69.51,19.39ZM53.221,12.015a4.009,4.009,0,1,1-3.94,4.008A3.976,3.976,0,0,1,53.221,12.015ZM9.88,56.1a3.941,3.941,0,1,1,3.94,4.008A3.976,3.976,0,0,1,9.88,56.1ZM21.07,79.616a3.905,3.905,0,0,1-5.382-1.467,4.048,4.048,0,0,1,1.442-5.475,3.905,3.905,0,0,1,5.382,1.467A4.048,4.048,0,0,1,21.07,79.616Zm1.442-41.548a3.905,3.905,0,0,1-5.382,1.467,4.044,4.044,0,0,1-1.442-5.475,3.905,3.905,0,0,1,5.382-1.467A4.048,4.048,0,0,1,22.512,38.068Zm12.979-13.2A3.905,3.905,0,0,1,30.109,23.4a4.048,4.048,0,0,1,1.442-5.475,3.905,3.905,0,0,1,5.382,1.467A4.048,4.048,0,0,1,35.491,24.865ZM46.4,60.112a8.091,8.091,0,0,1,2.884-10.95c2.368-1.391,20.465-8.365,33.589-13.355a2.526,2.526,0,0,1,2.455,4.329C74.514,49.2,59.529,61.659,57.161,63.05A7.811,7.811,0,0,1,46.4,60.112ZM90.755,78.149a3.905,3.905,0,0,1-5.382,1.467,4.048,4.048,0,0,1-1.442-5.475,3.905,3.905,0,0,1,5.382-1.467A4.044,4.044,0,0,1,90.755,78.149Zm1.868-18.036a4.009,4.009,0,1,1,3.94-4.008A3.976,3.976,0,0,1,92.622,60.112Z" transform="translate(-2 -4)" fill="#0275d8"/></svg>