<svg xmlns="http://www.w3.org/2000/svg" width="105.74" height="73.438" viewBox="0 0 105.74 73.438"><g transform="translate(-894.111 -713.833)" opacity="0.48" style="isolation:isolate"><g transform="translate(894.111 713.833)"><path d="M946.987,787.26q-26.229,0-52.458.011c-.38,0-.416-.1-.416-.44q.014-36.285,0-72.57c0-.361.077-.425.43-.425q52.436.014,104.872,0c.4,0,.437.119.437.462q-.012,36.286,0,72.57c0,.334-.08.4-.406.4Q973.215,787.254,946.987,787.26Z" transform="translate(-894.111 -713.833)" fill="#fdfdfd"/><path d="M919.985,721.452h.558q4.974,0,9.946,0a1.3,1.3,0,0,0,.738-.213,39.929,39.929,0,0,1,13.96-5.436,49.874,49.874,0,0,1,13.224-.762,41.121,41.121,0,0,1,19.241,6.107,1.383,1.383,0,0,0,.781.22q5.3-.008,10.606,0h.487c.051.205-.11.3-.192.425a21.858,21.858,0,0,0-3.031,6.167.761.761,0,0,0,.135.724,17.091,17.091,0,0,1,3.2,10.668,17.322,17.322,0,0,1-14.281,16.515c-6.6,1.145-12.136-.949-16.554-5.974-.308-.351-.393-.252-.6.056-1.131,1.712-2.28,3.412-3.422,5.117-.185-.07-.235-.236-.32-.364-1.055-1.57-2.114-3.136-3.151-4.718-.212-.322-.305-.387-.594-.05a17.439,17.439,0,0,1-30.662-12.789,16.63,16.63,0,0,1,3.073-8.4.876.876,0,0,0,.138-.843,22.047,22.047,0,0,0-2.957-5.962Z" transform="translate(-899.252 -714.045)" fill="#0a0a0a"/><path d="M960.3,784.3v-.534c0-1.92.01-3.841-.008-5.761,0-.427.136-.575.556-.543.378.03.761.006,1.143.006.656,0,.656,0,.656.635q0,2.749,0,5.5c0,3.431-.009,6.862.01,10.292,0,.448-.123.6-.568.561a7.815,7.815,0,0,0-1.186,0c-.338.021-.43-.123-.429-.436a6.674,6.674,0,0,0-.033-1.3c-.154.006-.187.119-.248.193a4.3,4.3,0,0,1-7.24-.5,7.5,7.5,0,0,1-.232-7.222,4.435,4.435,0,0,1,7.326-1A.241.241,0,0,0,960.3,784.3Z" transform="translate(-905.595 -726.476)" fill="gray"/><path d="M925.108,794.242v2.583c0,1.085-.007,2.17.006,3.255,0,.27-.083.358-.352.349-.527-.018-1.056-.022-1.583,0-.3.013-.4-.075-.4-.389.017-1.246.007-2.493.007-3.739,0-3.857.006-7.712-.01-11.569,0-.4.111-.507.491-.48a12.489,12.489,0,0,0,1.319,0c.247-.009.336.075.327.327-.017.461,0,.923,0,1.385l.124.072a.586.586,0,0,1,.058-.166,4.518,4.518,0,0,1,8.031,1.461,8.15,8.15,0,0,1-.255,5.76,4.493,4.493,0,0,1-7.581,1.291A1.606,1.606,0,0,0,925.108,794.242Z" transform="translate(-899.807 -727.774)" fill="#0a0a0a"/><path d="M1011.933,790a5.853,5.853,0,0,1-1.486,4.374,5.565,5.565,0,0,1-5.01,1.569c-2.986-.379-4.65-2.305-4.82-5.542a6.193,6.193,0,0,1,1.646-4.939,2.521,2.521,0,0,1,.258-.239,6.112,6.112,0,0,1,6.248-.754c2.05.8,2.915,2.519,3.159,4.608A8.038,8.038,0,0,1,1011.933,790Z" transform="translate(-915.271 -727.766)" fill="gray"/><path d="M945.57,794.281a5.264,5.264,0,0,1-2.544,1.5,4.654,4.654,0,0,1-2.476-.061,3.142,3.142,0,0,1-2.355-2.682,3.28,3.28,0,0,1,1.528-3.486,6.706,6.706,0,0,1,3.174-.929c.686-.051,1.377-.066,2.065-.064.352,0,.455-.127.436-.469a2.361,2.361,0,0,0-2.484-2.278,6.065,6.065,0,0,0-2.945.776c-.458.232-.463.23-.471-.293a6.866,6.866,0,0,0-.014-.835c-.065-.471.13-.7.567-.869a8.862,8.862,0,0,1,4.193-.529,3.64,3.64,0,0,1,3.327,3.379,7.913,7.913,0,0,1,.1,1.181c.01,2.214,0,4.428.015,6.641,0,.389-.113.523-.5.494a9.31,9.31,0,0,0-1.187,0c-.32.017-.458-.087-.436-.422S945.57,794.631,945.57,794.281Z" transform="translate(-902.861 -727.776)" fill="gray"/><path d="M988.935,794.413c.047-1.065.047-1.063,1.01-.708a6,6,0,0,0,2.367.407,2.812,2.812,0,0,0,.818-.151,1.431,1.431,0,0,0,1.062-1.171,1.366,1.366,0,0,0-.683-1.376,15.618,15.618,0,0,0-1.7-.926,9.291,9.291,0,0,1-1.6-1,2.765,2.765,0,0,1,.453-4.74A5.925,5.925,0,0,1,994,784.19a10.972,10.972,0,0,1,1.9.332.359.359,0,0,1,.318.435c-.037.409-.066.818-.073,1.228,0,.324-.123.372-.4.247a6.12,6.12,0,0,0-2.827-.525,2.105,2.105,0,0,0-.966.264.994.994,0,0,0-.269,1.574,3.343,3.343,0,0,0,1.033.735c.765.4,1.567.735,2.3,1.205a3.132,3.132,0,0,1,1.673,2.756,3.055,3.055,0,0,1-1.64,2.77,6.066,6.066,0,0,1-3.181.707,8.865,8.865,0,0,1-2.378-.39c-.453-.13-.639-.349-.551-.809A1.628,1.628,0,0,0,988.935,794.413Z" transform="translate(-912.948 -727.807)" fill="gray"/><path d="M899.483,779.946c0,1.072.013,2.083-.008,3.093-.006.328.085.438.417.425.63-.023,1.262.006,1.892-.011.3-.008.429.071.407.391a9.292,9.292,0,0,0,0,1.1c.013.27-.087.359-.353.354-.675-.013-1.349,0-2.024,0-.2,0-.337.018-.333.279.034,2.053-.088,4.108.063,6.157.1,1.356.82,1.8,2.144,1.446.18-.049.36-.1.6-.175,0,.6,0,1.152,0,1.706,0,.175-.1.212-.241.246a5.937,5.937,0,0,1-2.873.034,2.369,2.369,0,0,1-1.725-1.662,5.6,5.6,0,0,1-.273-1.774c0-1.907-.023-3.814.006-5.72.007-.47-.144-.575-.569-.543-.452.034-.909,0-1.363.011-.26.008-.372-.067-.357-.346a10.843,10.843,0,0,0,0-1.143c-.014-.268.079-.363.348-.355.528.015,1.057-.016,1.584.011.341.017.425-.112.414-.431-.022-.615.019-1.233-.016-1.847-.022-.383.123-.535.476-.635C898.286,780.386,898.857,780.162,899.483,779.946Z" transform="translate(-894.266 -726.97)" fill="#0a0a0a"/><path d="M972.758,790.854a1.2,1.2,0,0,0,.322-.491c.931-1.861,1.866-3.721,2.78-5.591a.659.659,0,0,1,.708-.441c.526.027,1.055.01,1.583.009.246,0,.323.1.2.323-.082.155-.159.314-.237.471q-2.563,5.086-5.125,10.169c-.064.127-.093.329-.238.345-.172.019-.191-.195-.251-.317q-2.56-5.208-5.111-10.422c-.274-.559-.264-.57.349-.571.528,0,1.056.015,1.583-.006a.559.559,0,0,1,.6.393c.855,1.881,1.724,3.756,2.589,5.633C972.583,790.517,972.665,790.67,972.758,790.854Z" transform="translate(-908.638 -727.841)" fill="gray"/><path d="M1019.62,785.935c.317-.3.526-.62.8-.889a3.367,3.367,0,0,1,3.076-.908c.186.029.255.115.248.288-.022.571-.046,1.142-.065,1.713-.006.205-.117.24-.292.2a4,4,0,0,0-.52-.083,2.554,2.554,0,0,0-2.725,1.776,5,5,0,0,0-.287,1.725q0,2.7,0,5.408c0,.593,0,.593-.611.594-.44,0-.88-.017-1.319.005-.334.017-.425-.12-.422-.436.011-1.612,0-3.224,0-4.837,0-1.89.011-3.781-.009-5.672,0-.431.139-.572.554-.541a11.694,11.694,0,0,0,1.187,0c.281-.007.4.107.39.389C1019.611,785.1,1019.62,785.516,1019.62,785.935Z" transform="translate(-918.627 -727.792)" fill="gray"/><path d="M908.965,785.952a3.764,3.764,0,0,1,2.79-1.865,9.65,9.65,0,0,1,1.139.055c.16,0,.189.1.184.236-.022.6-.05,1.2-.058,1.8,0,.242-.126.209-.281.168a2.88,2.88,0,0,0-1.22-.061,2.771,2.771,0,0,0-2.283,2.651,27.424,27.424,0,0,0-.078,3.3q-.021,1.583,0,3.167c0,.29-.084.378-.37.367-.527-.021-1.056-.02-1.583,0-.283.01-.381-.072-.375-.365.018-.894.006-1.789.006-2.684,0-2.655.008-5.309-.01-7.962,0-.389.1-.517.489-.486a12.456,12.456,0,0,0,1.32,0c.242-.006.341.071.332.327C908.953,785.051,908.965,785.5,908.965,785.952Z" transform="translate(-896.638 -727.791)" fill="#0a0a0a"/><path d="M982.793,790.056q0-2.549,0-5.1c0-.618,0-.618.639-.619.38,0,.764.025,1.143-.007.438-.036.582.111.579.565-.02,2.623-.01,5.246-.01,7.869,0,.879-.008,1.759,0,2.638,0,.3-.087.425-.4.414-.512-.019-1.026-.022-1.539,0-.34.014-.421-.132-.419-.442C982.8,793.6,982.793,791.829,982.793,790.056Z" transform="translate(-911.731 -727.84)" fill="gray"/><path d="M919.384,790.131c0,1.745-.011,3.49.01,5.235,0,.376-.11.474-.468.452a14.307,14.307,0,0,0-1.5,0c-.29.013-.37-.084-.368-.369.013-1.452.006-2.9.006-4.355,0-2.111.008-4.223-.008-6.333,0-.35.1-.458.443-.439.5.026,1,.023,1.5,0,.314-.014.394.1.392.4C919.378,786.525,919.384,788.328,919.384,790.131Z" transform="translate(-898.671 -727.839)" fill="#0a0a0a"/><path d="M918.179,778.409a1.378,1.378,0,1,1-1.4,1.385A1.4,1.4,0,0,1,918.179,778.409Z" transform="translate(-898.615 -726.664)" fill="#0b0b0b"/><path d="M982.547,779.765a1.372,1.372,0,0,1,2.743.018,1.372,1.372,0,1,1-2.743-.018Z" transform="translate(-911.684 -726.666)" fill="gray"/><path d="M980.557,755.136a13.935,13.935,0,1,1,13.9-13.938A13.958,13.958,0,0,1,980.557,755.136Z" transform="translate(-908.518 -716.502)" fill="#fefefe"/><path d="M924.375,741.109a13.929,13.929,0,1,1,13.906,13.939A13.944,13.944,0,0,1,924.375,741.109Z" transform="translate(-900.125 -716.49)" fill="#fefefe"/><path d="M942.517,721.954a41.9,41.9,0,0,1,16.695-3.251,40.832,40.832,0,0,1,16.693,3.273c-9.321,1.126-14.84,6.278-16.664,15.531a17.626,17.626,0,0,0-16.724-15.553Z" transform="translate(-903.729 -714.801)" fill="#989898"/><path d="M960.9,790.526a4.837,4.837,0,0,1-.544,2.41,2.662,2.662,0,0,1-2.708,1.51,2.5,2.5,0,0,1-2.242-1.781,6.188,6.188,0,0,1,.009-4.516,2.488,2.488,0,0,1,2.4-1.813A2.719,2.719,0,0,1,960.5,788.1,5.87,5.87,0,0,1,960.9,790.526Z" transform="translate(-906.208 -728.24)" fill="#fefefe"/><path d="M931.641,790.384a5.705,5.705,0,0,1-.52,2.559,2.6,2.6,0,0,1-2.442,1.578,2.536,2.536,0,0,1-2.453-1.556,5.734,5.734,0,0,1-.043-4.9,2.72,2.72,0,0,1,2.708-1.665,2.636,2.636,0,0,1,2.458,1.99A5.944,5.944,0,0,1,931.641,790.384Z" transform="translate(-900.379 -728.252)" fill="#fefefe"/><path d="M1010.152,790.453a5.489,5.489,0,0,1-.584,2.51,2.872,2.872,0,0,1-2.644,1.59,2.76,2.76,0,0,1-2.623-1.54,5.333,5.333,0,0,1,.013-5.184,2.774,2.774,0,0,1,2.631-1.536,2.865,2.865,0,0,1,2.608,1.583A5.576,5.576,0,0,1,1010.152,790.453Z" transform="translate(-915.874 -728.231)" fill="#fefefe"/><path d="M944.878,791.747c1.185-.015,1.185-.015,1.084,1.186a2.9,2.9,0,0,1-3.134,2.761,1.8,1.8,0,0,1-.805-3.4,5.217,5.217,0,0,1,2.24-.547C944.466,791.735,944.672,791.747,944.878,791.747Z" transform="translate(-903.436 -729.314)" fill="#fefefe"/><path d="M991.577,742.259a8.617,8.617,0,1,1-8.609-8.632A8.637,8.637,0,0,1,991.577,742.259Z" transform="translate(-910.054 -717.766)" fill="#0a0a0a"/><path d="M947.958,742.233a8.618,8.618,0,1,1-8.638-8.6A8.642,8.642,0,0,1,947.958,742.233Z" transform="translate(-901.386 -717.766)" fill="#0a0a0a"/><path d="M989.339,742.971a5.641,5.641,0,1,1-5.617-5.627A5.632,5.632,0,0,1,989.339,742.971Z" transform="translate(-910.791 -718.505)" fill="#fefefe"/><path d="M945.717,743.014a5.641,5.641,0,1,1-5.576-5.67A5.635,5.635,0,0,1,945.717,743.014Z" transform="translate(-902.124 -718.505)" fill="#fefefe"/><path d="M987.276,743.682a2.9,2.9,0,0,1-2.889,2.882,2.9,2.9,0,1,1,0-5.8A2.892,2.892,0,0,1,987.276,743.682Z" transform="translate(-911.472 -719.184)" fill="gray"/><path d="M943.653,743.66a2.9,2.9,0,1,1-2.877-2.9A2.926,2.926,0,0,1,943.653,743.66Z" transform="translate(-902.803 -719.184)" fill="#797979"/></g></g></svg>