<svg xmlns="http://www.w3.org/2000/svg" width="35.413" height="28.778" viewBox="0 0 35.413 28.778"><path d="M35.355,9.023a14.534,14.534,0,0,1-4.176,1.145,7.284,7.284,0,0,0,3.2-4.019A14.589,14.589,0,0,1,29.76,7.911a7.269,7.269,0,0,0-12.378,6.627A20.63,20.63,0,0,1,2.406,6.945a7.281,7.281,0,0,0,2.249,9.7,7.259,7.259,0,0,1-3.293-.911v.091a7.275,7.275,0,0,0,5.826,7.126,7.272,7.272,0,0,1-1.913.254,7,7,0,0,1-1.369-.132,7.282,7.282,0,0,0,6.787,5.048,14.565,14.565,0,0,1-9.022,3.108,14.294,14.294,0,0,1-1.731-.1A20.528,20.528,0,0,0,11.078,34.4c13.364,0,20.672-11.07,20.672-20.669,0-.315-.008-.632-.019-.941A14.77,14.77,0,0,0,35.355,9.023Z" transform="translate(0.059 -5.617)" fill="#fff"/></svg>